<svg width="358" height="448" viewBox="0 0 358 448" fill="none" xmlns="http://www.w3.org/2000/svg">
<rect x="2.25" y="2.25" width="353.5" height="443.5" rx="69.75" fill="white"/>
<rect x="2.25" y="2.25" width="353.5" height="443.5" rx="69.75" stroke="#DDDDDD" stroke-width="4.5"/>
<path d="M83.7457 335.869H77.3707C77.1889 334.824 76.8537 333.898 76.3651 333.091C75.8764 332.273 75.2685 331.58 74.5412 331.011C73.8139 330.443 72.9844 330.017 72.0526 329.733C71.1321 329.438 70.1378 329.29 69.0696 329.29C67.1719 329.29 65.4901 329.767 64.0241 330.722C62.5582 331.665 61.4105 333.051 60.581 334.881C59.7514 336.699 59.3366 338.92 59.3366 341.545C59.3366 344.216 59.7514 346.466 60.581 348.295C61.4219 350.114 62.5696 351.489 64.0241 352.42C65.4901 353.341 67.1662 353.801 69.0526 353.801C70.098 353.801 71.0753 353.665 71.9844 353.392C72.9048 353.108 73.7287 352.693 74.456 352.148C75.1946 351.602 75.8139 350.932 76.3139 350.136C76.8253 349.341 77.1776 348.432 77.3707 347.409L83.7457 347.443C83.5071 349.102 82.9901 350.659 82.1946 352.114C81.4105 353.568 80.3821 354.852 79.1094 355.966C77.8366 357.068 76.348 357.932 74.6435 358.557C72.9389 359.17 71.0469 359.477 68.9673 359.477C65.8991 359.477 63.1605 358.767 60.7514 357.347C58.3423 355.926 56.4446 353.875 55.0582 351.193C53.6719 348.511 52.9787 345.295 52.9787 341.545C52.9787 337.784 53.6776 334.568 55.0753 331.898C56.473 329.216 58.3764 327.165 60.7855 325.744C63.1946 324.324 65.9219 323.614 68.9673 323.614C70.9105 323.614 72.7173 323.886 74.3878 324.432C76.0582 324.977 77.5469 325.778 78.8537 326.835C80.1605 327.881 81.2344 329.165 82.0753 330.688C82.9276 332.199 83.4844 333.926 83.7457 335.869ZM89.5369 359V324.091H95.8608V353.699H111.236V359H89.5369ZM123.048 324.091V359H116.724V324.091H123.048ZM129.896 359V324.091H142.987C145.669 324.091 147.919 324.591 149.737 325.591C151.567 326.591 152.947 327.966 153.879 329.716C154.822 331.455 155.294 333.432 155.294 335.648C155.294 337.886 154.822 339.875 153.879 341.614C152.936 343.352 151.544 344.722 149.703 345.722C147.862 346.71 145.595 347.205 142.902 347.205H134.226V342.006H142.05C143.618 342.006 144.902 341.733 145.902 341.188C146.902 340.642 147.641 339.892 148.118 338.938C148.607 337.983 148.851 336.886 148.851 335.648C148.851 334.409 148.607 333.318 148.118 332.375C147.641 331.432 146.896 330.699 145.885 330.176C144.885 329.642 143.595 329.375 142.016 329.375H136.22V359H129.896ZM175.071 339.006V344.085H159.355V339.006H175.071ZM181.834 359V324.091H194.925C197.607 324.091 199.857 324.557 201.675 325.489C203.504 326.42 204.885 327.727 205.817 329.409C206.76 331.08 207.232 333.028 207.232 335.256C207.232 337.494 206.754 339.437 205.8 341.085C204.857 342.722 203.464 343.989 201.624 344.886C199.783 345.773 197.521 346.216 194.839 346.216H185.516V340.966H193.987C195.555 340.966 196.839 340.75 197.839 340.318C198.839 339.875 199.578 339.233 200.055 338.392C200.544 337.54 200.788 336.494 200.788 335.256C200.788 334.017 200.544 332.96 200.055 332.085C199.567 331.199 198.822 330.528 197.822 330.074C196.822 329.608 195.533 329.375 193.953 329.375H188.158V359H181.834ZM199.868 343.182L208.51 359H201.453L192.964 343.182H199.868ZM241.74 324.091V359H236.115L219.666 335.222H219.376V359H213.053V324.091H218.712L235.143 347.886H235.45V324.091H241.74ZM260.426 359.477C258.153 359.477 256.119 359.051 254.324 358.199C252.528 357.335 251.102 356.153 250.045 354.653C249 353.153 248.443 351.437 248.375 349.506H254.511C254.625 350.937 255.244 352.108 256.369 353.017C257.494 353.915 258.847 354.364 260.426 354.364C261.665 354.364 262.767 354.08 263.733 353.511C264.699 352.943 265.46 352.153 266.017 351.142C266.574 350.131 266.847 348.977 266.835 347.682C266.847 346.364 266.568 345.193 266 344.17C265.432 343.148 264.653 342.347 263.665 341.767C262.676 341.176 261.54 340.881 260.256 340.881C259.21 340.869 258.182 341.062 257.17 341.46C256.159 341.858 255.358 342.381 254.767 343.028L249.057 342.091L250.881 324.091H271.131V329.375H256.114L255.108 338.631H255.312C255.96 337.869 256.875 337.239 258.057 336.739C259.239 336.227 260.534 335.972 261.943 335.972C264.057 335.972 265.943 336.472 267.602 337.472C269.261 338.46 270.568 339.824 271.523 341.562C272.477 343.301 272.955 345.29 272.955 347.528C272.955 349.835 272.42 351.892 271.352 353.699C270.295 355.494 268.824 356.909 266.938 357.943C265.062 358.966 262.892 359.477 260.426 359.477ZM291.568 359.665C288.761 359.665 286.352 358.955 284.341 357.534C282.341 356.102 280.801 354.04 279.722 351.347C278.653 348.642 278.119 345.386 278.119 341.58C278.131 337.773 278.67 334.534 279.739 331.864C280.818 329.182 282.358 327.136 284.358 325.727C286.369 324.318 288.773 323.614 291.568 323.614C294.364 323.614 296.767 324.318 298.778 325.727C300.79 327.136 302.33 329.182 303.398 331.864C304.477 334.545 305.017 337.784 305.017 341.58C305.017 345.398 304.477 348.659 303.398 351.364C302.33 354.057 300.79 356.114 298.778 357.534C296.778 358.955 294.375 359.665 291.568 359.665ZM291.568 354.33C293.75 354.33 295.472 353.256 296.733 351.108C298.006 348.949 298.642 345.773 298.642 341.58C298.642 338.807 298.352 336.477 297.773 334.591C297.193 332.705 296.375 331.284 295.318 330.33C294.261 329.364 293.011 328.881 291.568 328.881C289.398 328.881 287.682 329.96 286.42 332.119C285.159 334.267 284.523 337.42 284.511 341.58C284.5 344.364 284.778 346.705 285.347 348.602C285.926 350.5 286.744 351.932 287.801 352.898C288.858 353.852 290.114 354.33 291.568 354.33ZM82.983 386.364C82.983 388.788 82.5511 390.898 81.6875 392.693C80.8239 394.481 79.6345 395.867 78.1193 396.852C76.6117 397.83 74.8769 398.318 72.9148 398.318C70.9527 398.318 69.214 397.83 67.6989 396.852C66.1913 395.867 65.0057 394.481 64.142 392.693C63.286 390.898 62.858 388.788 62.858 386.364C62.858 383.939 63.286 381.833 64.142 380.045C65.0057 378.25 66.1951 376.864 67.7102 375.886C69.2254 374.902 70.9602 374.409 72.9148 374.409C74.8769 374.409 76.6117 374.902 78.1193 375.886C79.6345 376.864 80.8239 378.25 81.6875 380.045C82.5511 381.833 82.983 383.939 82.983 386.364ZM80.9148 386.364C80.9148 384.28 80.5663 382.496 79.8693 381.011C79.1723 379.519 78.2216 378.379 77.017 377.591C75.8125 376.803 74.4451 376.409 72.9148 376.409C71.392 376.409 70.0284 376.803 68.8239 377.591C67.6193 378.379 66.6648 379.515 65.9602 381C65.2633 382.485 64.9148 384.273 64.9148 386.364C64.9148 388.447 65.2633 390.231 65.9602 391.716C66.6572 393.201 67.608 394.341 68.8125 395.136C70.017 395.924 71.3845 396.318 72.9148 396.318C74.4451 396.318 75.8125 395.924 77.017 395.136C78.2292 394.348 79.1837 393.212 79.8807 391.727C80.5777 390.235 80.9223 388.447 80.9148 386.364ZM87.7017 404.545V380.545H89.6676V383.875H89.9062C90.1487 383.352 90.482 382.818 90.9062 382.273C91.3305 381.72 91.8911 381.254 92.5881 380.875C93.2926 380.496 94.179 380.307 95.2472 380.307C96.6866 380.307 97.9441 380.686 99.0199 381.443C100.103 382.193 100.944 383.246 101.543 384.602C102.149 385.951 102.452 387.523 102.452 389.318C102.452 391.121 102.149 392.701 101.543 394.057C100.944 395.413 100.103 396.47 99.0199 397.227C97.9441 397.985 96.6941 398.364 95.2699 398.364C94.2169 398.364 93.3343 398.174 92.6222 397.795C91.9176 397.417 91.3456 396.951 90.9062 396.398C90.4744 395.837 90.1411 395.292 89.9062 394.761H89.7244V404.545H87.7017ZM89.7017 389.284C89.7017 390.693 89.91 391.943 90.3267 393.034C90.7509 394.117 91.357 394.97 92.1449 395.591C92.9403 396.205 93.9025 396.511 95.0312 396.511C96.1903 396.511 97.1676 396.193 97.9631 395.557C98.7661 394.913 99.3759 394.045 99.7926 392.955C100.217 391.864 100.429 390.64 100.429 389.284C100.429 387.943 100.221 386.735 99.804 385.659C99.3949 384.583 98.7888 383.731 97.9858 383.102C97.1828 382.466 96.1979 382.148 95.0312 382.148C93.8949 382.148 92.929 382.455 92.1335 383.068C91.3381 383.674 90.732 384.515 90.3153 385.591C89.9062 386.659 89.7017 387.89 89.7017 389.284ZM113.946 398.364C112.317 398.364 110.908 397.985 109.719 397.227C108.529 396.462 107.609 395.405 106.957 394.057C106.313 392.701 105.991 391.14 105.991 389.375C105.991 387.617 106.313 386.057 106.957 384.693C107.609 383.322 108.507 382.25 109.651 381.477C110.802 380.697 112.132 380.307 113.639 380.307C114.586 380.307 115.499 380.481 116.378 380.83C117.257 381.17 118.045 381.697 118.741 382.409C119.446 383.114 120.003 384.004 120.412 385.08C120.821 386.148 121.026 387.413 121.026 388.875V389.875H107.389V388.091H118.957C118.957 386.97 118.73 385.962 118.276 385.068C117.829 384.167 117.204 383.455 116.401 382.932C115.605 382.409 114.685 382.148 113.639 382.148C112.533 382.148 111.56 382.443 110.719 383.034C109.878 383.625 109.219 384.405 108.741 385.375C108.272 386.345 108.033 387.405 108.026 388.557V389.625C108.026 391.011 108.264 392.223 108.741 393.261C109.226 394.292 109.912 395.091 110.798 395.659C111.685 396.227 112.734 396.511 113.946 396.511C114.772 396.511 115.495 396.383 116.116 396.125C116.745 395.867 117.272 395.523 117.696 395.091C118.128 394.652 118.454 394.17 118.673 393.648L120.594 394.273C120.329 395.008 119.893 395.686 119.287 396.307C118.688 396.928 117.938 397.428 117.037 397.807C116.143 398.178 115.113 398.364 113.946 398.364ZM127.506 387.091V398H125.483V380.545H127.449V383.284H127.631C128.04 382.39 128.676 381.674 129.54 381.136C130.411 380.591 131.487 380.318 132.767 380.318C133.941 380.318 134.972 380.564 135.858 381.057C136.752 381.542 137.445 382.258 137.938 383.205C138.438 384.152 138.688 385.314 138.688 386.693V398H136.665V386.818C136.665 385.386 136.263 384.254 135.46 383.42C134.665 382.587 133.597 382.17 132.256 382.17C131.339 382.17 130.525 382.367 129.812 382.761C129.1 383.155 128.536 383.723 128.119 384.466C127.71 385.201 127.506 386.076 127.506 387.091ZM146.56 374.727V398H144.435V374.727H146.56ZM152.327 398V380.545H154.293V383.227H154.474C154.823 382.326 155.402 381.617 156.213 381.102C157.031 380.58 158.012 380.318 159.156 380.318C160.361 380.318 161.349 380.602 162.122 381.17C162.902 381.731 163.486 382.504 163.872 383.489H164.02C164.414 382.519 165.054 381.75 165.94 381.182C166.834 380.606 167.918 380.318 169.19 380.318C170.812 380.318 172.092 380.83 173.031 381.852C173.971 382.867 174.44 384.352 174.44 386.307V398H172.418V386.307C172.418 384.928 172.065 383.894 171.361 383.205C170.656 382.515 169.728 382.17 168.577 382.17C167.243 382.17 166.217 382.58 165.497 383.398C164.777 384.216 164.418 385.254 164.418 386.511V398H162.349V386.125C162.349 384.943 162.02 383.989 161.361 383.261C160.702 382.534 159.774 382.17 158.577 382.17C157.774 382.17 157.05 382.367 156.406 382.761C155.77 383.155 155.266 383.705 154.895 384.409C154.531 385.106 154.349 385.909 154.349 386.818V398H152.327ZM184.67 398.398C183.617 398.398 182.655 398.193 181.784 397.784C180.913 397.367 180.22 396.769 179.705 395.989C179.189 395.201 178.932 394.246 178.932 393.125C178.932 392.261 179.095 391.534 179.42 390.943C179.746 390.352 180.208 389.867 180.807 389.489C181.405 389.11 182.114 388.811 182.932 388.591C183.75 388.371 184.652 388.201 185.636 388.08C186.614 387.958 187.439 387.852 188.114 387.761C188.795 387.67 189.314 387.527 189.67 387.33C190.027 387.133 190.205 386.814 190.205 386.375V385.966C190.205 384.777 189.848 383.841 189.136 383.159C188.432 382.47 187.417 382.125 186.091 382.125C184.833 382.125 183.807 382.402 183.011 382.955C182.223 383.508 181.67 384.159 181.352 384.909L179.432 384.216C179.826 383.261 180.371 382.5 181.068 381.932C181.765 381.356 182.545 380.943 183.409 380.693C184.273 380.436 185.148 380.307 186.034 380.307C186.701 380.307 187.394 380.394 188.114 380.568C188.841 380.742 189.515 381.045 190.136 381.477C190.758 381.902 191.261 382.496 191.648 383.261C192.034 384.019 192.227 384.981 192.227 386.148V398H190.205V395.239H190.08C189.837 395.754 189.477 396.254 189 396.739C188.523 397.223 187.924 397.621 187.205 397.932C186.485 398.242 185.64 398.398 184.67 398.398ZM184.943 396.545C186.019 396.545 186.951 396.307 187.739 395.83C188.527 395.352 189.133 394.72 189.557 393.932C189.989 393.136 190.205 392.261 190.205 391.307V388.784C190.053 388.928 189.799 389.057 189.443 389.17C189.095 389.284 188.689 389.386 188.227 389.477C187.773 389.561 187.318 389.633 186.864 389.693C186.409 389.754 186 389.807 185.636 389.852C184.652 389.973 183.811 390.163 183.114 390.42C182.417 390.678 181.883 391.034 181.511 391.489C181.14 391.936 180.955 392.511 180.955 393.216C180.955 394.277 181.333 395.098 182.091 395.682C182.848 396.258 183.799 396.545 184.943 396.545ZM204.267 404.909C203.078 404.909 202.036 404.754 201.142 404.443C200.248 404.14 199.494 403.723 198.881 403.193C198.267 402.663 197.79 402.068 197.449 401.409L199.108 400.318C199.358 400.758 199.691 401.189 200.108 401.614C200.532 402.038 201.081 402.39 201.756 402.67C202.438 402.951 203.275 403.091 204.267 403.091C205.813 403.091 207.059 402.705 208.006 401.932C208.96 401.159 209.438 399.958 209.438 398.33V394.398H209.256C209.021 394.928 208.684 395.458 208.244 395.989C207.805 396.511 207.229 396.947 206.517 397.295C205.813 397.644 204.938 397.818 203.892 397.818C202.498 397.818 201.259 397.473 200.176 396.784C199.1 396.095 198.252 395.11 197.631 393.83C197.017 392.542 196.71 391.008 196.71 389.227C196.71 387.462 197.009 385.909 197.608 384.568C198.214 383.227 199.059 382.182 200.142 381.432C201.225 380.682 202.487 380.307 203.926 380.307C204.994 380.307 205.881 380.496 206.585 380.875C207.29 381.246 207.854 381.708 208.278 382.261C208.71 382.814 209.047 383.352 209.29 383.875H209.494V380.545H211.472V398.455C211.472 399.932 211.157 401.148 210.528 402.102C209.9 403.057 209.044 403.761 207.96 404.216C206.877 404.678 205.646 404.909 204.267 404.909ZM204.131 395.966C205.252 395.966 206.21 395.697 207.006 395.159C207.801 394.614 208.411 393.833 208.835 392.818C209.259 391.803 209.472 390.595 209.472 389.193C209.472 387.83 209.263 386.621 208.847 385.568C208.43 384.508 207.824 383.674 207.028 383.068C206.241 382.455 205.275 382.148 204.131 382.148C202.964 382.148 201.979 382.462 201.176 383.091C200.373 383.72 199.767 384.568 199.358 385.636C198.949 386.697 198.744 387.883 198.744 389.193C198.744 390.527 198.953 391.705 199.369 392.727C199.786 393.742 200.396 394.538 201.199 395.114C202.002 395.682 202.979 395.966 204.131 395.966ZM223.884 398.364C222.255 398.364 220.846 397.985 219.656 397.227C218.467 396.462 217.546 395.405 216.895 394.057C216.251 392.701 215.929 391.14 215.929 389.375C215.929 387.617 216.251 386.057 216.895 384.693C217.546 383.322 218.444 382.25 219.588 381.477C220.74 380.697 222.069 380.307 223.577 380.307C224.524 380.307 225.437 380.481 226.315 380.83C227.194 381.17 227.982 381.697 228.679 382.409C229.384 383.114 229.94 384.004 230.349 385.08C230.759 386.148 230.963 387.413 230.963 388.875V389.875H217.327V388.091H228.895C228.895 386.97 228.668 385.962 228.213 385.068C227.766 384.167 227.141 383.455 226.338 382.932C225.543 382.409 224.622 382.148 223.577 382.148C222.471 382.148 221.497 382.443 220.656 383.034C219.815 383.625 219.156 384.405 218.679 385.375C218.209 386.345 217.971 387.405 217.963 388.557V389.625C217.963 391.011 218.202 392.223 218.679 393.261C219.164 394.292 219.849 395.091 220.736 395.659C221.622 396.227 222.671 396.511 223.884 396.511C224.709 396.511 225.433 396.383 226.054 396.125C226.683 395.867 227.209 395.523 227.634 395.091C228.065 394.652 228.391 394.17 228.611 393.648L230.531 394.273C230.266 395.008 229.83 395.686 229.224 396.307C228.626 396.928 227.876 397.428 226.974 397.807C226.08 398.178 225.05 398.364 223.884 398.364ZM247.148 384.375L245.295 384.898C245.114 384.375 244.856 383.902 244.523 383.477C244.189 383.053 243.754 382.716 243.216 382.466C242.686 382.216 242.027 382.091 241.239 382.091C240.057 382.091 239.087 382.371 238.33 382.932C237.572 383.492 237.193 384.216 237.193 385.102C237.193 385.852 237.451 386.462 237.966 386.932C238.489 387.394 239.292 387.761 240.375 388.034L243.011 388.682C244.473 389.038 245.568 389.602 246.295 390.375C247.03 391.148 247.398 392.117 247.398 393.284C247.398 394.269 247.125 395.144 246.58 395.909C246.034 396.674 245.273 397.277 244.295 397.716C243.326 398.148 242.201 398.364 240.92 398.364C239.216 398.364 237.811 397.981 236.705 397.216C235.598 396.443 234.89 395.33 234.58 393.875L236.523 393.398C236.773 394.436 237.261 395.22 237.989 395.75C238.723 396.28 239.689 396.545 240.886 396.545C242.227 396.545 243.299 396.246 244.102 395.648C244.905 395.042 245.307 394.284 245.307 393.375C245.307 392.67 245.072 392.08 244.602 391.602C244.133 391.117 243.42 390.761 242.466 390.534L239.614 389.852C238.098 389.489 236.977 388.913 236.25 388.125C235.523 387.337 235.159 386.36 235.159 385.193C235.159 384.231 235.42 383.386 235.943 382.659C236.466 381.924 237.186 381.348 238.102 380.932C239.019 380.515 240.064 380.307 241.239 380.307C242.837 380.307 244.114 380.67 245.068 381.398C246.03 382.117 246.723 383.11 247.148 384.375ZM261.281 374.727L268.554 395.239H268.759L276.031 374.727H278.259L269.793 398H267.52L259.054 374.727H261.281ZM282.418 398L293.02 376.784V376.636H280.804V374.727H295.247V376.727L284.656 398H282.418Z" fill="#3D3D3A"/>
<path d="M78.7861 179.438C80.5751 177.349 83.7993 175.54 87.6523 176.514L87.7139 176.529L87.7754 176.546L122.683 186.063L122.682 186.066C128.043 187.494 129.75 192.801 129.75 196.079V234.921C129.75 238.199 128.043 243.505 122.682 244.933L122.683 244.936L87.7754 254.454L87.7139 254.472L87.6523 254.487C83.7991 255.46 80.5748 253.65 78.7861 251.561C77.0447 249.526 76.2501 246.93 76.25 244.439V186.561C76.25 184.07 77.0443 181.473 78.7861 179.438Z" stroke="#3D3D3A" stroke-width="13.5" stroke-linecap="round"/>
<path d="M78.7861 54.4385C80.5751 52.3492 83.7993 50.5404 87.6523 51.5137L87.7139 51.5293L87.7754 51.5459L122.683 61.0635L122.682 61.0664C128.043 62.4942 129.75 67.8008 129.75 71.0791V109.921C129.75 113.199 128.043 118.505 122.682 119.933L122.683 119.936L87.7754 129.454L87.7139 129.472L87.6523 129.487C83.7991 130.46 80.5748 128.65 78.7861 126.561C77.0447 124.526 76.2501 121.93 76.25 119.439V61.5605C76.25 59.0702 77.0443 56.4728 78.7861 54.4385Z" stroke="#3D3D3A" stroke-width="13.5" stroke-linecap="round"/>
<rect x="207.25" y="175.25" width="75.5" height="78.5" rx="11.75" stroke="#3D3D3A" stroke-width="13.5"/>
<rect x="167.25" y="176.25" width="23.5" height="78.5" rx="11.75" stroke="#3D3D3A" stroke-width="13.5"/>
<rect x="207.25" y="158.75" width="23.5" height="78.5" rx="11.75" transform="rotate(-90 207.25 158.75)" stroke="#3D3D3A" stroke-width="13.5"/>
<path d="M143 215H153" stroke="#3D3D3A" stroke-width="8" stroke-linecap="round"/>
<path d="M143 90C143 90 237 90.0003 243 90V115.5" stroke="#3D3D3A" stroke-width="8" stroke-linecap="round" stroke-linejoin="round"/>
</svg>
