<svg width="358" height="448" viewBox="0 0 358 448" fill="none" xmlns="http://www.w3.org/2000/svg">
<rect x="2.25" y="2.25" width="353.5" height="443.5" rx="69.75" fill="white"/>
<rect x="2.25" y="2.25" width="353.5" height="443.5" rx="69.75" stroke="#DDDDDD" stroke-width="4.5"/>
<path d="M83.7457 329.932H77.3707C77.1889 328.886 76.8537 327.96 76.3651 327.153C75.8764 326.335 75.2685 325.642 74.5412 325.074C73.8139 324.506 72.9844 324.08 72.0526 323.795C71.1321 323.5 70.1378 323.352 69.0696 323.352C67.1719 323.352 65.4901 323.83 64.0241 324.784C62.5582 325.727 61.4105 327.114 60.581 328.943C59.7514 330.761 59.3366 332.983 59.3366 335.608C59.3366 338.278 59.7514 340.528 60.581 342.358C61.4219 344.176 62.5696 345.551 64.0241 346.483C65.4901 347.403 67.1662 347.864 69.0526 347.864C70.098 347.864 71.0753 347.727 71.9844 347.455C72.9048 347.17 73.7287 346.756 74.456 346.21C75.1946 345.665 75.8139 344.994 76.3139 344.199C76.8253 343.403 77.1776 342.494 77.3707 341.472L83.7457 341.506C83.5071 343.165 82.9901 344.722 82.1946 346.176C81.4105 347.631 80.3821 348.915 79.1094 350.028C77.8366 351.131 76.348 351.994 74.6435 352.619C72.9389 353.233 71.0469 353.54 68.9673 353.54C65.8991 353.54 63.1605 352.83 60.7514 351.409C58.3423 349.989 56.4446 347.938 55.0582 345.256C53.6719 342.574 52.9787 339.358 52.9787 335.608C52.9787 331.847 53.6776 328.631 55.0753 325.96C56.473 323.278 58.3764 321.227 60.7855 319.807C63.1946 318.386 65.9219 317.676 68.9673 317.676C70.9105 317.676 72.7173 317.949 74.3878 318.494C76.0582 319.04 77.5469 319.841 78.8537 320.898C80.1605 321.943 81.2344 323.227 82.0753 324.75C82.9276 326.261 83.4844 327.989 83.7457 329.932ZM89.5369 353.062V318.153H95.8608V347.761H111.236V353.062H89.5369ZM123.048 318.153V353.062H116.724V318.153H123.048ZM129.896 353.062V318.153H142.987C145.669 318.153 147.919 318.653 149.737 319.653C151.567 320.653 152.947 322.028 153.879 323.778C154.822 325.517 155.294 327.494 155.294 329.71C155.294 331.949 154.822 333.937 153.879 335.676C152.936 337.415 151.544 338.784 149.703 339.784C147.862 340.773 145.595 341.267 142.902 341.267H134.226V336.068H142.05C143.618 336.068 144.902 335.795 145.902 335.25C146.902 334.705 147.641 333.955 148.118 333C148.607 332.045 148.851 330.949 148.851 329.71C148.851 328.472 148.607 327.381 148.118 326.438C147.641 325.494 146.896 324.761 145.885 324.239C144.885 323.705 143.595 323.438 142.016 323.438H136.22V353.062H129.896ZM175.071 333.068V338.148H159.355V333.068H175.071ZM181.834 353.062V318.153H194.925C197.607 318.153 199.857 318.619 201.675 319.551C203.504 320.483 204.885 321.79 205.817 323.472C206.76 325.142 207.232 327.091 207.232 329.318C207.232 331.557 206.754 333.5 205.8 335.148C204.857 336.784 203.464 338.051 201.624 338.949C199.783 339.835 197.521 340.278 194.839 340.278H185.516V335.028H193.987C195.555 335.028 196.839 334.812 197.839 334.381C198.839 333.937 199.578 333.295 200.055 332.455C200.544 331.602 200.788 330.557 200.788 329.318C200.788 328.08 200.544 327.023 200.055 326.148C199.567 325.261 198.822 324.591 197.822 324.136C196.822 323.67 195.533 323.438 193.953 323.438H188.158V353.062H181.834ZM199.868 337.244L208.51 353.062H201.453L192.964 337.244H199.868ZM241.74 318.153V353.062H236.115L219.666 329.284H219.376V353.062H213.053V318.153H218.712L235.143 341.949H235.45V318.153H241.74ZM260.426 353.54C258.153 353.54 256.119 353.114 254.324 352.261C252.528 351.398 251.102 350.216 250.045 348.716C249 347.216 248.443 345.5 248.375 343.568H254.511C254.625 345 255.244 346.17 256.369 347.08C257.494 347.977 258.847 348.426 260.426 348.426C261.665 348.426 262.767 348.142 263.733 347.574C264.699 347.006 265.46 346.216 266.017 345.205C266.574 344.193 266.847 343.04 266.835 341.744C266.847 340.426 266.568 339.256 266 338.233C265.432 337.21 264.653 336.409 263.665 335.83C262.676 335.239 261.54 334.943 260.256 334.943C259.21 334.932 258.182 335.125 257.17 335.523C256.159 335.92 255.358 336.443 254.767 337.091L249.057 336.153L250.881 318.153H271.131V323.438H256.114L255.108 332.693H255.312C255.96 331.932 256.875 331.301 258.057 330.801C259.239 330.29 260.534 330.034 261.943 330.034C264.057 330.034 265.943 330.534 267.602 331.534C269.261 332.523 270.568 333.886 271.523 335.625C272.477 337.364 272.955 339.352 272.955 341.591C272.955 343.898 272.42 345.955 271.352 347.761C270.295 349.557 268.824 350.972 266.938 352.006C265.062 353.028 262.892 353.54 260.426 353.54ZM291.568 353.727C288.761 353.727 286.352 353.017 284.341 351.597C282.341 350.165 280.801 348.102 279.722 345.409C278.653 342.705 278.119 339.449 278.119 335.642C278.131 331.835 278.67 328.597 279.739 325.926C280.818 323.244 282.358 321.199 284.358 319.79C286.369 318.381 288.773 317.676 291.568 317.676C294.364 317.676 296.767 318.381 298.778 319.79C300.79 321.199 302.33 323.244 303.398 325.926C304.477 328.608 305.017 331.847 305.017 335.642C305.017 339.46 304.477 342.722 303.398 345.426C302.33 348.119 300.79 350.176 298.778 351.597C296.778 353.017 294.375 353.727 291.568 353.727ZM291.568 348.392C293.75 348.392 295.472 347.318 296.733 345.17C298.006 343.011 298.642 339.835 298.642 335.642C298.642 332.869 298.352 330.54 297.773 328.653C297.193 326.767 296.375 325.347 295.318 324.392C294.261 323.426 293.011 322.943 291.568 322.943C289.398 322.943 287.682 324.023 286.42 326.182C285.159 328.33 284.523 331.483 284.511 335.642C284.5 338.426 284.778 340.767 285.347 342.665C285.926 344.562 286.744 345.994 287.801 346.96C288.858 347.915 290.114 348.392 291.568 348.392ZM82.983 380.426C82.983 382.85 82.5511 384.96 81.6875 386.756C80.8239 388.544 79.6345 389.93 78.1193 390.915C76.6117 391.892 74.8769 392.381 72.9148 392.381C70.9527 392.381 69.214 391.892 67.6989 390.915C66.1913 389.93 65.0057 388.544 64.142 386.756C63.286 384.96 62.858 382.85 62.858 380.426C62.858 378.002 63.286 375.896 64.142 374.108C65.0057 372.312 66.1951 370.926 67.7102 369.949C69.2254 368.964 70.9602 368.472 72.9148 368.472C74.8769 368.472 76.6117 368.964 78.1193 369.949C79.6345 370.926 80.8239 372.312 81.6875 374.108C82.5511 375.896 82.983 378.002 82.983 380.426ZM80.9148 380.426C80.9148 378.343 80.5663 376.559 79.8693 375.074C79.1723 373.581 78.2216 372.441 77.017 371.653C75.8125 370.866 74.4451 370.472 72.9148 370.472C71.392 370.472 70.0284 370.866 68.8239 371.653C67.6193 372.441 66.6648 373.578 65.9602 375.062C65.2633 376.547 64.9148 378.335 64.9148 380.426C64.9148 382.509 65.2633 384.294 65.9602 385.778C66.6572 387.263 67.608 388.403 68.8125 389.199C70.017 389.987 71.3845 390.381 72.9148 390.381C74.4451 390.381 75.8125 389.987 77.017 389.199C78.2292 388.411 79.1837 387.275 79.8807 385.79C80.5777 384.297 80.9223 382.509 80.9148 380.426ZM87.7017 398.608V374.608H89.6676V377.938H89.9062C90.1487 377.415 90.482 376.881 90.9062 376.335C91.3305 375.782 91.8911 375.316 92.5881 374.938C93.2926 374.559 94.179 374.369 95.2472 374.369C96.6866 374.369 97.9441 374.748 99.0199 375.506C100.103 376.256 100.944 377.309 101.543 378.665C102.149 380.013 102.452 381.585 102.452 383.381C102.452 385.184 102.149 386.763 101.543 388.119C100.944 389.475 100.103 390.532 99.0199 391.29C97.9441 392.047 96.6941 392.426 95.2699 392.426C94.2169 392.426 93.3343 392.237 92.6222 391.858C91.9176 391.479 91.3456 391.013 90.9062 390.46C90.4744 389.9 90.1411 389.354 89.9062 388.824H89.7244V398.608H87.7017ZM89.7017 383.347C89.7017 384.756 89.91 386.006 90.3267 387.097C90.7509 388.18 91.357 389.032 92.1449 389.653C92.9403 390.267 93.9025 390.574 95.0312 390.574C96.1903 390.574 97.1676 390.256 97.9631 389.619C98.7661 388.975 99.3759 388.108 99.7926 387.017C100.217 385.926 100.429 384.703 100.429 383.347C100.429 382.006 100.221 380.797 99.804 379.722C99.3949 378.646 98.7888 377.794 97.9858 377.165C97.1828 376.528 96.1979 376.21 95.0312 376.21C93.8949 376.21 92.929 376.517 92.1335 377.131C91.3381 377.737 90.732 378.578 90.3153 379.653C89.9062 380.722 89.7017 381.953 89.7017 383.347ZM113.946 392.426C112.317 392.426 110.908 392.047 109.719 391.29C108.529 390.525 107.609 389.468 106.957 388.119C106.313 386.763 105.991 385.203 105.991 383.438C105.991 381.68 106.313 380.119 106.957 378.756C107.609 377.384 108.507 376.312 109.651 375.54C110.802 374.759 112.132 374.369 113.639 374.369C114.586 374.369 115.499 374.544 116.378 374.892C117.257 375.233 118.045 375.759 118.741 376.472C119.446 377.176 120.003 378.066 120.412 379.142C120.821 380.21 121.026 381.475 121.026 382.938V383.938H107.389V382.153H118.957C118.957 381.032 118.73 380.025 118.276 379.131C117.829 378.229 117.204 377.517 116.401 376.994C115.605 376.472 114.685 376.21 113.639 376.21C112.533 376.21 111.56 376.506 110.719 377.097C109.878 377.687 109.219 378.468 108.741 379.438C108.272 380.407 108.033 381.468 108.026 382.619V383.688C108.026 385.074 108.264 386.286 108.741 387.324C109.226 388.354 109.912 389.153 110.798 389.722C111.685 390.29 112.734 390.574 113.946 390.574C114.772 390.574 115.495 390.445 116.116 390.188C116.745 389.93 117.272 389.585 117.696 389.153C118.128 388.714 118.454 388.233 118.673 387.71L120.594 388.335C120.329 389.07 119.893 389.748 119.287 390.369C118.688 390.991 117.938 391.491 117.037 391.869C116.143 392.241 115.113 392.426 113.946 392.426ZM127.506 381.153V392.062H125.483V374.608H127.449V377.347H127.631C128.04 376.453 128.676 375.737 129.54 375.199C130.411 374.653 131.487 374.381 132.767 374.381C133.941 374.381 134.972 374.627 135.858 375.119C136.752 375.604 137.445 376.32 137.938 377.267C138.438 378.214 138.688 379.377 138.688 380.756V392.062H136.665V380.881C136.665 379.449 136.263 378.316 135.46 377.483C134.665 376.65 133.597 376.233 132.256 376.233C131.339 376.233 130.525 376.43 129.812 376.824C129.1 377.218 128.536 377.786 128.119 378.528C127.71 379.263 127.506 380.138 127.506 381.153ZM146.56 368.79V392.062H144.435V368.79H146.56ZM152.327 392.062V374.608H154.293V377.29H154.474C154.823 376.388 155.402 375.68 156.213 375.165C157.031 374.642 158.012 374.381 159.156 374.381C160.361 374.381 161.349 374.665 162.122 375.233C162.902 375.794 163.486 376.566 163.872 377.551H164.02C164.414 376.581 165.054 375.812 165.94 375.244C166.834 374.669 167.918 374.381 169.19 374.381C170.812 374.381 172.092 374.892 173.031 375.915C173.971 376.93 174.44 378.415 174.44 380.369V392.062H172.418V380.369C172.418 378.991 172.065 377.956 171.361 377.267C170.656 376.578 169.728 376.233 168.577 376.233C167.243 376.233 166.217 376.642 165.497 377.46C164.777 378.278 164.418 379.316 164.418 380.574V392.062H162.349V380.188C162.349 379.006 162.02 378.051 161.361 377.324C160.702 376.597 159.774 376.233 158.577 376.233C157.774 376.233 157.05 376.43 156.406 376.824C155.77 377.218 155.266 377.767 154.895 378.472C154.531 379.169 154.349 379.972 154.349 380.881V392.062H152.327ZM184.67 392.46C183.617 392.46 182.655 392.256 181.784 391.847C180.913 391.43 180.22 390.831 179.705 390.051C179.189 389.263 178.932 388.309 178.932 387.188C178.932 386.324 179.095 385.597 179.42 385.006C179.746 384.415 180.208 383.93 180.807 383.551C181.405 383.172 182.114 382.873 182.932 382.653C183.75 382.434 184.652 382.263 185.636 382.142C186.614 382.021 187.439 381.915 188.114 381.824C188.795 381.733 189.314 381.589 189.67 381.392C190.027 381.195 190.205 380.877 190.205 380.438V380.028C190.205 378.839 189.848 377.903 189.136 377.222C188.432 376.532 187.417 376.188 186.091 376.188C184.833 376.188 183.807 376.464 183.011 377.017C182.223 377.57 181.67 378.222 181.352 378.972L179.432 378.278C179.826 377.324 180.371 376.562 181.068 375.994C181.765 375.419 182.545 375.006 183.409 374.756C184.273 374.498 185.148 374.369 186.034 374.369C186.701 374.369 187.394 374.456 188.114 374.631C188.841 374.805 189.515 375.108 190.136 375.54C190.758 375.964 191.261 376.559 191.648 377.324C192.034 378.081 192.227 379.044 192.227 380.21V392.062H190.205V389.301H190.08C189.837 389.816 189.477 390.316 189 390.801C188.523 391.286 187.924 391.684 187.205 391.994C186.485 392.305 185.64 392.46 184.67 392.46ZM184.943 390.608C186.019 390.608 186.951 390.369 187.739 389.892C188.527 389.415 189.133 388.782 189.557 387.994C189.989 387.199 190.205 386.324 190.205 385.369V382.847C190.053 382.991 189.799 383.119 189.443 383.233C189.095 383.347 188.689 383.449 188.227 383.54C187.773 383.623 187.318 383.695 186.864 383.756C186.409 383.816 186 383.869 185.636 383.915C184.652 384.036 183.811 384.225 183.114 384.483C182.417 384.741 181.883 385.097 181.511 385.551C181.14 385.998 180.955 386.574 180.955 387.278C180.955 388.339 181.333 389.161 182.091 389.744C182.848 390.32 183.799 390.608 184.943 390.608ZM204.267 398.972C203.078 398.972 202.036 398.816 201.142 398.506C200.248 398.203 199.494 397.786 198.881 397.256C198.267 396.725 197.79 396.131 197.449 395.472L199.108 394.381C199.358 394.82 199.691 395.252 200.108 395.676C200.532 396.1 201.081 396.453 201.756 396.733C202.438 397.013 203.275 397.153 204.267 397.153C205.813 397.153 207.059 396.767 208.006 395.994C208.96 395.222 209.438 394.021 209.438 392.392V388.46H209.256C209.021 388.991 208.684 389.521 208.244 390.051C207.805 390.574 207.229 391.009 206.517 391.358C205.813 391.706 204.938 391.881 203.892 391.881C202.498 391.881 201.259 391.536 200.176 390.847C199.1 390.157 198.252 389.172 197.631 387.892C197.017 386.604 196.71 385.07 196.71 383.29C196.71 381.525 197.009 379.972 197.608 378.631C198.214 377.29 199.059 376.244 200.142 375.494C201.225 374.744 202.487 374.369 203.926 374.369C204.994 374.369 205.881 374.559 206.585 374.938C207.29 375.309 207.854 375.771 208.278 376.324C208.71 376.877 209.047 377.415 209.29 377.938H209.494V374.608H211.472V392.517C211.472 393.994 211.157 395.21 210.528 396.165C209.9 397.119 209.044 397.824 207.96 398.278C206.877 398.741 205.646 398.972 204.267 398.972ZM204.131 390.028C205.252 390.028 206.21 389.759 207.006 389.222C207.801 388.676 208.411 387.896 208.835 386.881C209.259 385.866 209.472 384.657 209.472 383.256C209.472 381.892 209.263 380.684 208.847 379.631C208.43 378.57 207.824 377.737 207.028 377.131C206.241 376.517 205.275 376.21 204.131 376.21C202.964 376.21 201.979 376.525 201.176 377.153C200.373 377.782 199.767 378.631 199.358 379.699C198.949 380.759 198.744 381.945 198.744 383.256C198.744 384.589 198.953 385.767 199.369 386.79C199.786 387.805 200.396 388.6 201.199 389.176C202.002 389.744 202.979 390.028 204.131 390.028ZM223.884 392.426C222.255 392.426 220.846 392.047 219.656 391.29C218.467 390.525 217.546 389.468 216.895 388.119C216.251 386.763 215.929 385.203 215.929 383.438C215.929 381.68 216.251 380.119 216.895 378.756C217.546 377.384 218.444 376.312 219.588 375.54C220.74 374.759 222.069 374.369 223.577 374.369C224.524 374.369 225.437 374.544 226.315 374.892C227.194 375.233 227.982 375.759 228.679 376.472C229.384 377.176 229.94 378.066 230.349 379.142C230.759 380.21 230.963 381.475 230.963 382.938V383.938H217.327V382.153H228.895C228.895 381.032 228.668 380.025 228.213 379.131C227.766 378.229 227.141 377.517 226.338 376.994C225.543 376.472 224.622 376.21 223.577 376.21C222.471 376.21 221.497 376.506 220.656 377.097C219.815 377.687 219.156 378.468 218.679 379.438C218.209 380.407 217.971 381.468 217.963 382.619V383.688C217.963 385.074 218.202 386.286 218.679 387.324C219.164 388.354 219.849 389.153 220.736 389.722C221.622 390.29 222.671 390.574 223.884 390.574C224.709 390.574 225.433 390.445 226.054 390.188C226.683 389.93 227.209 389.585 227.634 389.153C228.065 388.714 228.391 388.233 228.611 387.71L230.531 388.335C230.266 389.07 229.83 389.748 229.224 390.369C228.626 390.991 227.876 391.491 226.974 391.869C226.08 392.241 225.05 392.426 223.884 392.426ZM247.148 378.438L245.295 378.96C245.114 378.437 244.856 377.964 244.523 377.54C244.189 377.116 243.754 376.778 243.216 376.528C242.686 376.278 242.027 376.153 241.239 376.153C240.057 376.153 239.087 376.434 238.33 376.994C237.572 377.555 237.193 378.278 237.193 379.165C237.193 379.915 237.451 380.525 237.966 380.994C238.489 381.456 239.292 381.824 240.375 382.097L243.011 382.744C244.473 383.1 245.568 383.665 246.295 384.438C247.03 385.21 247.398 386.18 247.398 387.347C247.398 388.331 247.125 389.206 246.58 389.972C246.034 390.737 245.273 391.339 244.295 391.778C243.326 392.21 242.201 392.426 240.92 392.426C239.216 392.426 237.811 392.044 236.705 391.278C235.598 390.506 234.89 389.392 234.58 387.938L236.523 387.46C236.773 388.498 237.261 389.282 237.989 389.812C238.723 390.343 239.689 390.608 240.886 390.608C242.227 390.608 243.299 390.309 244.102 389.71C244.905 389.104 245.307 388.347 245.307 387.438C245.307 386.733 245.072 386.142 244.602 385.665C244.133 385.18 243.42 384.824 242.466 384.597L239.614 383.915C238.098 383.551 236.977 382.975 236.25 382.188C235.523 381.4 235.159 380.422 235.159 379.256C235.159 378.294 235.42 377.449 235.943 376.722C236.466 375.987 237.186 375.411 238.102 374.994C239.019 374.578 240.064 374.369 241.239 374.369C242.837 374.369 244.114 374.733 245.068 375.46C246.03 376.18 246.723 377.172 247.148 378.438ZM261.281 368.79L268.554 389.301H268.759L276.031 368.79H278.259L269.793 392.062H267.52L259.054 368.79H261.281ZM282.418 392.062L293.02 370.847V370.699H280.804V368.79H295.247V370.79L284.656 392.062H282.418Z" fill="#3D3D3A"/>
<path d="M78.7861 185.376C80.5751 183.287 83.7993 181.478 87.6523 182.451L87.7139 182.467L87.7754 182.483L122.683 192.001L122.682 192.004C128.043 193.432 129.75 198.738 129.75 202.017V240.858C129.75 244.137 128.043 249.442 122.682 250.87L122.683 250.873L87.7754 260.392L87.7139 260.409L87.6523 260.425C83.7991 261.398 80.5748 259.587 78.7861 257.498C77.0447 255.464 76.2501 252.867 76.25 250.377V192.498C76.25 190.008 77.0443 187.41 78.7861 185.376Z" stroke="#3D3D3A" stroke-width="13.5" stroke-linecap="round"/>
<path d="M78.7861 60.376C80.5751 58.2867 83.7993 56.4779 87.6523 57.4512L87.7139 57.4668L87.7754 57.4834L122.683 67.001L122.682 67.0039C128.043 68.4317 129.75 73.7383 129.75 77.0166V115.858C129.75 119.137 128.043 124.442 122.682 125.87L122.683 125.873L87.7754 135.392L87.7139 135.409L87.6523 135.425C83.7991 136.398 80.5748 134.587 78.7861 132.498C77.0447 130.464 76.2501 127.867 76.25 125.377V67.498C76.25 65.0077 77.0443 62.4103 78.7861 60.376Z" stroke="#3D3D3A" stroke-width="13.5" stroke-linecap="round"/>
<rect x="207.25" y="181.188" width="75.5" height="78.5" rx="11.75" stroke="#3D3D3A" stroke-width="13.5"/>
<rect x="167.25" y="182.188" width="23.5" height="78.5" rx="11.75" stroke="#3D3D3A" stroke-width="13.5"/>
<rect x="207.25" y="164.688" width="23.5" height="78.5" rx="11.75" transform="rotate(-90 207.25 164.688)" stroke="#3D3D3A" stroke-width="13.5"/>
<path d="M143 220.938H153" stroke="#3D3D3A" stroke-width="8" stroke-linecap="round"/>
<path d="M143 95.9375C143 95.9375 237 95.9378 243 95.9375V121.438" stroke="#3D3D3A" stroke-width="8" stroke-linecap="round" stroke-linejoin="round"/>
</svg>
