<svg width="358" height="448" viewBox="0 0 358 448" fill="none" xmlns="http://www.w3.org/2000/svg">
<rect x="2.25" y="2.25" width="353.5" height="443.5" rx="69.75" fill="white"/>
<rect x="2.25" y="2.25" width="353.5" height="443.5" rx="69.75" stroke="#DDDDDD" stroke-width="4.5"/>
<path d="M83.7457 357.19H77.3707C77.1889 356.144 76.8537 355.218 76.3651 354.411C75.8764 353.593 75.2685 352.9 74.5412 352.332C73.8139 351.763 72.9844 351.337 72.0526 351.053C71.1321 350.758 70.1378 350.61 69.0696 350.61C67.1719 350.61 65.4901 351.087 64.0241 352.042C62.5582 352.985 61.4105 354.371 60.581 356.201C59.7514 358.019 59.3366 360.241 59.3366 362.866C59.3366 365.536 59.7514 367.786 60.581 369.616C61.4219 371.434 62.5696 372.809 64.0241 373.741C65.4901 374.661 67.1662 375.121 69.0526 375.121C70.098 375.121 71.0753 374.985 71.9844 374.712C72.9048 374.428 73.7287 374.013 74.456 373.468C75.1946 372.923 75.8139 372.252 76.3139 371.457C76.8253 370.661 77.1776 369.752 77.3707 368.729L83.7457 368.763C83.5071 370.423 82.9901 371.979 82.1946 373.434C81.4105 374.888 80.3821 376.173 79.1094 377.286C77.8366 378.388 76.348 379.252 74.6435 379.877C72.9389 380.491 71.0469 380.798 68.9673 380.798C65.8991 380.798 63.1605 380.087 60.7514 378.667C58.3423 377.246 56.4446 375.195 55.0582 372.513C53.6719 369.832 52.9787 366.616 52.9787 362.866C52.9787 359.104 53.6776 355.888 55.0753 353.218C56.473 350.536 58.3764 348.485 60.7855 347.065C63.1946 345.644 65.9219 344.934 68.9673 344.934C70.9105 344.934 72.7173 345.207 74.3878 345.752C76.0582 346.298 77.5469 347.099 78.8537 348.156C80.1605 349.201 81.2344 350.485 82.0753 352.008C82.9276 353.519 83.4844 355.246 83.7457 357.19ZM89.5369 380.32V345.411H95.8608V375.019H111.236V380.32H89.5369ZM123.048 345.411V380.32H116.724V345.411H123.048ZM129.896 380.32V345.411H142.987C145.669 345.411 147.919 345.911 149.737 346.911C151.567 347.911 152.947 349.286 153.879 351.036C154.822 352.775 155.294 354.752 155.294 356.968C155.294 359.207 154.822 361.195 153.879 362.934C152.936 364.673 151.544 366.042 149.703 367.042C147.862 368.031 145.595 368.525 142.902 368.525H134.226V363.326H142.05C143.618 363.326 144.902 363.053 145.902 362.508C146.902 361.962 147.641 361.212 148.118 360.258C148.607 359.303 148.851 358.207 148.851 356.968C148.851 355.729 148.607 354.638 148.118 353.695C147.641 352.752 146.896 352.019 145.885 351.496C144.885 350.962 143.595 350.695 142.016 350.695H136.22V380.32H129.896ZM175.071 360.326V365.406H159.355V360.326H175.071ZM181.834 380.32V345.411H194.925C197.607 345.411 199.857 345.877 201.675 346.809C203.504 347.741 204.885 349.048 205.817 350.729C206.76 352.4 207.232 354.349 207.232 356.576C207.232 358.815 206.754 360.758 205.8 362.406C204.857 364.042 203.464 365.309 201.624 366.207C199.783 367.093 197.521 367.536 194.839 367.536H185.516V362.286H193.987C195.555 362.286 196.839 362.07 197.839 361.638C198.839 361.195 199.578 360.553 200.055 359.712C200.544 358.86 200.788 357.815 200.788 356.576C200.788 355.337 200.544 354.281 200.055 353.406C199.567 352.519 198.822 351.849 197.822 351.394C196.822 350.928 195.533 350.695 193.953 350.695H188.158V380.32H181.834ZM199.868 364.502L208.51 380.32H201.453L192.964 364.502H199.868ZM241.74 345.411V380.32H236.115L219.666 356.542H219.376V380.32H213.053V345.411H218.712L235.143 369.207H235.45V345.411H241.74ZM260.426 380.798C258.153 380.798 256.119 380.371 254.324 379.519C252.528 378.656 251.102 377.474 250.045 375.974C249 374.474 248.443 372.758 248.375 370.826H254.511C254.625 372.258 255.244 373.428 256.369 374.337C257.494 375.235 258.847 375.684 260.426 375.684C261.665 375.684 262.767 375.4 263.733 374.832C264.699 374.263 265.46 373.474 266.017 372.462C266.574 371.451 266.847 370.298 266.835 369.002C266.847 367.684 266.568 366.513 266 365.491C265.432 364.468 264.653 363.667 263.665 363.087C262.676 362.496 261.54 362.201 260.256 362.201C259.21 362.19 258.182 362.383 257.17 362.781C256.159 363.178 255.358 363.701 254.767 364.349L249.057 363.411L250.881 345.411H271.131V350.695H256.114L255.108 359.951H255.312C255.96 359.19 256.875 358.559 258.057 358.059C259.239 357.548 260.534 357.292 261.943 357.292C264.057 357.292 265.943 357.792 267.602 358.792C269.261 359.781 270.568 361.144 271.523 362.883C272.477 364.621 272.955 366.61 272.955 368.849C272.955 371.156 272.42 373.212 271.352 375.019C270.295 376.815 268.824 378.229 266.938 379.263C265.062 380.286 262.892 380.798 260.426 380.798ZM291.568 380.985C288.761 380.985 286.352 380.275 284.341 378.854C282.341 377.423 280.801 375.36 279.722 372.667C278.653 369.962 278.119 366.707 278.119 362.9C278.131 359.093 278.67 355.854 279.739 353.184C280.818 350.502 282.358 348.457 284.358 347.048C286.369 345.638 288.773 344.934 291.568 344.934C294.364 344.934 296.767 345.638 298.778 347.048C300.79 348.457 302.33 350.502 303.398 353.184C304.477 355.866 305.017 359.104 305.017 362.9C305.017 366.718 304.477 369.979 303.398 372.684C302.33 375.377 300.79 377.434 298.778 378.854C296.778 380.275 294.375 380.985 291.568 380.985ZM291.568 375.65C293.75 375.65 295.472 374.576 296.733 372.428C298.006 370.269 298.642 367.093 298.642 362.9C298.642 360.127 298.352 357.798 297.773 355.911C297.193 354.025 296.375 352.604 295.318 351.65C294.261 350.684 293.011 350.201 291.568 350.201C289.398 350.201 287.682 351.281 286.42 353.44C285.159 355.587 284.523 358.741 284.511 362.9C284.5 365.684 284.778 368.025 285.347 369.923C285.926 371.82 286.744 373.252 287.801 374.218C288.858 375.173 290.114 375.65 291.568 375.65ZM70.8594 396.048L78.1321 416.559H78.3366L85.6094 396.048H87.8366L79.3707 419.32H77.098L68.6321 396.048H70.8594ZM91.4276 419.32V401.866H93.4616V419.32H91.4276ZM92.4616 398.866C92.045 398.866 91.6889 398.726 91.3935 398.445C91.098 398.157 90.9503 397.813 90.9503 397.411C90.9503 397.01 91.098 396.669 91.3935 396.388C91.6889 396.101 92.045 395.957 92.4616 395.957C92.8783 395.957 93.2344 396.101 93.5298 396.388C93.8253 396.669 93.973 397.01 93.973 397.411C93.973 397.813 93.8253 398.157 93.5298 398.445C93.2344 398.726 92.8783 398.866 92.4616 398.866ZM110.538 405.695L108.686 406.218C108.504 405.695 108.247 405.222 107.913 404.798C107.58 404.373 107.144 404.036 106.607 403.786C106.076 403.536 105.417 403.411 104.629 403.411C103.447 403.411 102.478 403.692 101.72 404.252C100.963 404.813 100.584 405.536 100.584 406.423C100.584 407.173 100.841 407.782 101.357 408.252C101.879 408.714 102.682 409.082 103.766 409.354L106.402 410.002C107.864 410.358 108.959 410.923 109.686 411.695C110.421 412.468 110.788 413.438 110.788 414.604C110.788 415.589 110.516 416.464 109.97 417.229C109.425 417.995 108.663 418.597 107.686 419.036C106.716 419.468 105.591 419.684 104.311 419.684C102.607 419.684 101.201 419.301 100.095 418.536C98.9891 417.763 98.2808 416.65 97.9702 415.195L99.9134 414.718C100.163 415.756 100.652 416.54 101.379 417.07C102.114 417.601 103.08 417.866 104.277 417.866C105.618 417.866 106.69 417.567 107.493 416.968C108.296 416.362 108.697 415.604 108.697 414.695C108.697 413.991 108.463 413.4 107.993 412.923C107.523 412.438 106.811 412.082 105.857 411.854L103.004 411.173C101.489 410.809 100.368 410.233 99.6406 409.445C98.9134 408.657 98.5497 407.68 98.5497 406.513C98.5497 405.551 98.8111 404.707 99.3338 403.979C99.8565 403.245 100.576 402.669 101.493 402.252C102.41 401.835 103.455 401.627 104.629 401.627C106.228 401.627 107.504 401.991 108.459 402.718C109.421 403.438 110.114 404.43 110.538 405.695ZM115.24 419.32V401.866H117.274V419.32H115.24ZM116.274 398.866C115.857 398.866 115.501 398.726 115.206 398.445C114.911 398.157 114.763 397.813 114.763 397.411C114.763 397.01 114.911 396.669 115.206 396.388C115.501 396.101 115.857 395.957 116.274 395.957C116.691 395.957 117.047 396.101 117.342 396.388C117.638 396.669 117.786 397.01 117.786 397.411C117.786 397.813 117.638 398.157 117.342 398.445C117.047 398.726 116.691 398.866 116.274 398.866ZM129.408 419.684C127.9 419.684 126.567 419.301 125.408 418.536C124.256 417.771 123.355 416.714 122.703 415.366C122.052 414.01 121.726 412.445 121.726 410.673C121.726 408.885 122.052 407.313 122.703 405.957C123.355 404.593 124.256 403.532 125.408 402.775C126.567 402.01 127.9 401.627 129.408 401.627C130.915 401.627 132.245 402.01 133.396 402.775C134.548 403.54 135.449 404.601 136.101 405.957C136.76 407.313 137.089 408.885 137.089 410.673C137.089 412.445 136.764 414.01 136.112 415.366C135.461 416.714 134.555 417.771 133.396 418.536C132.245 419.301 130.915 419.684 129.408 419.684ZM129.408 417.832C130.62 417.832 131.646 417.506 132.487 416.854C133.328 416.203 133.964 415.335 134.396 414.252C134.836 413.169 135.055 411.976 135.055 410.673C135.055 409.37 134.836 408.173 134.396 407.082C133.964 405.991 133.328 405.116 132.487 404.457C131.646 403.798 130.62 403.468 129.408 403.468C128.203 403.468 127.177 403.798 126.328 404.457C125.487 405.116 124.847 405.991 124.408 407.082C123.976 408.173 123.76 409.37 123.76 410.673C123.76 411.976 123.976 413.169 124.408 414.252C124.847 415.335 125.487 416.203 126.328 416.854C127.169 417.506 128.196 417.832 129.408 417.832ZM143.553 408.411V419.32H141.53V401.866H143.496V404.604H143.678C144.087 403.71 144.723 402.995 145.587 402.457C146.458 401.911 147.534 401.638 148.814 401.638C149.988 401.638 151.018 401.885 151.905 402.377C152.799 402.862 153.492 403.578 153.984 404.525C154.484 405.472 154.734 406.635 154.734 408.013V419.32H152.712V408.138C152.712 406.707 152.31 405.574 151.507 404.741C150.712 403.907 149.643 403.491 148.303 403.491C147.386 403.491 146.571 403.688 145.859 404.082C145.147 404.476 144.583 405.044 144.166 405.786C143.757 406.521 143.553 407.396 143.553 408.411ZM169.482 419.32V396.048H182.982V397.957H171.607V406.718H182.266V408.627H171.607V417.411H183.209V419.32H169.482ZM190.084 408.411V419.32H188.061V401.866H190.027V404.604H190.209C190.618 403.71 191.254 402.995 192.118 402.457C192.989 401.911 194.065 401.638 195.345 401.638C196.519 401.638 197.55 401.885 198.436 402.377C199.33 402.862 200.023 403.578 200.516 404.525C201.016 405.472 201.266 406.635 201.266 408.013V419.32H199.243V408.138C199.243 406.707 198.841 405.574 198.038 404.741C197.243 403.907 196.175 403.491 194.834 403.491C193.917 403.491 193.103 403.688 192.391 404.082C191.679 404.476 191.114 405.044 190.697 405.786C190.288 406.521 190.084 407.396 190.084 408.411ZM213.411 419.684C211.85 419.684 210.49 419.294 209.331 418.513C208.179 417.733 207.286 416.665 206.649 415.309C206.013 413.953 205.695 412.407 205.695 410.673C205.695 408.923 206.017 407.366 206.661 406.002C207.312 404.638 208.214 403.57 209.365 402.798C210.517 402.017 211.854 401.627 213.376 401.627C214.543 401.627 215.6 401.854 216.547 402.309C217.494 402.756 218.274 403.388 218.888 404.207C219.509 405.017 219.899 405.964 220.058 407.048H218.013C217.801 406.063 217.289 405.222 216.479 404.525C215.676 403.82 214.653 403.468 213.411 403.468C212.297 403.468 211.312 403.771 210.456 404.377C209.6 404.976 208.929 405.813 208.445 406.888C207.967 407.957 207.729 409.195 207.729 410.604C207.729 412.021 207.964 413.275 208.433 414.366C208.903 415.449 209.562 416.298 210.411 416.911C211.267 417.525 212.267 417.832 213.411 417.832C214.183 417.832 214.888 417.688 215.524 417.4C216.168 417.104 216.706 416.688 217.138 416.15C217.577 415.612 217.873 414.972 218.024 414.229H220.07C219.918 415.282 219.543 416.222 218.945 417.048C218.354 417.866 217.585 418.51 216.638 418.979C215.698 419.449 214.623 419.684 213.411 419.684ZM231.189 419.684C229.681 419.684 228.348 419.301 227.189 418.536C226.037 417.771 225.136 416.714 224.484 415.366C223.833 414.01 223.507 412.445 223.507 410.673C223.507 408.885 223.833 407.313 224.484 405.957C225.136 404.593 226.037 403.532 227.189 402.775C228.348 402.01 229.681 401.627 231.189 401.627C232.696 401.627 234.026 402.01 235.178 402.775C236.329 403.54 237.231 404.601 237.882 405.957C238.541 407.313 238.871 408.885 238.871 410.673C238.871 412.445 238.545 414.01 237.893 415.366C237.242 416.714 236.337 417.771 235.178 418.536C234.026 419.301 232.696 419.684 231.189 419.684ZM231.189 417.832C232.401 417.832 233.428 417.506 234.268 416.854C235.109 416.203 235.746 415.335 236.178 414.252C236.617 413.169 236.837 411.976 236.837 410.673C236.837 409.37 236.617 408.173 236.178 407.082C235.746 405.991 235.109 405.116 234.268 404.457C233.428 403.798 232.401 403.468 231.189 403.468C229.984 403.468 228.958 403.798 228.109 404.457C227.268 405.116 226.628 405.991 226.189 407.082C225.757 408.173 225.541 409.37 225.541 410.673C225.541 411.976 225.757 413.169 226.189 414.252C226.628 415.335 227.268 416.203 228.109 416.854C228.95 417.506 229.977 417.832 231.189 417.832ZM249.595 419.684C248.163 419.684 246.91 419.305 245.834 418.548C244.758 417.79 243.917 416.733 243.311 415.377C242.713 414.021 242.413 412.442 242.413 410.638C242.413 408.843 242.713 407.271 243.311 405.923C243.917 404.567 244.762 403.513 245.845 402.763C246.929 402.006 248.19 401.627 249.629 401.627C250.69 401.627 251.572 401.817 252.277 402.195C252.982 402.567 253.546 403.029 253.97 403.582C254.394 404.135 254.724 404.673 254.959 405.195H255.141V396.048H257.175V419.32H255.197V416.082H254.959C254.724 416.612 254.391 417.157 253.959 417.718C253.527 418.271 252.955 418.737 252.243 419.116C251.538 419.495 250.656 419.684 249.595 419.684ZM249.834 417.832C250.963 417.832 251.925 417.525 252.72 416.911C253.516 416.29 254.122 415.438 254.538 414.354C254.963 413.263 255.175 412.013 255.175 410.604C255.175 409.21 254.966 407.979 254.55 406.911C254.133 405.835 253.527 404.995 252.732 404.388C251.936 403.775 250.97 403.468 249.834 403.468C248.667 403.468 247.682 403.786 246.879 404.423C246.084 405.051 245.478 405.904 245.061 406.979C244.652 408.055 244.447 409.263 244.447 410.604C244.447 411.96 244.656 413.184 245.072 414.275C245.489 415.366 246.095 416.233 246.891 416.877C247.694 417.513 248.675 417.832 249.834 417.832ZM269.993 419.684C268.364 419.684 266.955 419.305 265.766 418.548C264.576 417.782 263.656 416.726 263.004 415.377C262.36 414.021 262.038 412.46 262.038 410.695C262.038 408.938 262.36 407.377 263.004 406.013C263.656 404.642 264.554 403.57 265.697 402.798C266.849 402.017 268.179 401.627 269.686 401.627C270.633 401.627 271.546 401.801 272.425 402.15C273.304 402.491 274.091 403.017 274.788 403.729C275.493 404.434 276.05 405.324 276.459 406.4C276.868 407.468 277.072 408.733 277.072 410.195V411.195H263.436V409.411H275.004C275.004 408.29 274.777 407.282 274.322 406.388C273.875 405.487 273.25 404.775 272.447 404.252C271.652 403.729 270.732 403.468 269.686 403.468C268.58 403.468 267.607 403.763 266.766 404.354C265.925 404.945 265.266 405.726 264.788 406.695C264.319 407.665 264.08 408.726 264.072 409.877V410.945C264.072 412.332 264.311 413.544 264.788 414.582C265.273 415.612 265.959 416.411 266.845 416.979C267.732 417.548 268.781 417.832 269.993 417.832C270.819 417.832 271.542 417.703 272.163 417.445C272.792 417.188 273.319 416.843 273.743 416.411C274.175 415.972 274.5 415.491 274.72 414.968L276.641 415.593C276.375 416.328 275.94 417.006 275.334 417.627C274.735 418.248 273.985 418.748 273.084 419.127C272.19 419.498 271.16 419.684 269.993 419.684ZM281.53 419.32V401.866H283.496V404.548H283.643C283.992 403.669 284.598 402.96 285.462 402.423C286.333 401.877 287.318 401.604 288.416 401.604C288.583 401.604 288.768 401.608 288.973 401.616C289.178 401.623 289.348 401.631 289.484 401.638V403.695C289.393 403.68 289.234 403.657 289.007 403.627C288.78 403.597 288.534 403.582 288.268 403.582C287.359 403.582 286.549 403.775 285.837 404.161C285.132 404.54 284.575 405.067 284.166 405.741C283.757 406.415 283.553 407.184 283.553 408.048V419.32H281.53Z" fill="#3D3D3A"/>
<path d="M84.2031 37.3636C84.2031 39.7652 83.7865 41.8636 82.9531 43.6591C82.1198 45.447 80.9607 46.8371 79.4759 47.8295C77.9986 48.822 76.294 49.3182 74.3622 49.3182C72.4228 49.3182 70.7107 48.822 69.2259 47.8295C67.7486 46.8295 66.5933 45.4356 65.7599 43.6477C64.9266 41.8523 64.5099 39.7576 64.5099 37.3636C64.5099 34.9621 64.9266 32.8674 65.7599 31.0795C66.6009 29.2917 67.7599 27.9015 69.2372 26.9091C70.7145 25.9091 72.4228 25.4091 74.3622 25.4091C76.294 25.4091 77.9986 25.9053 79.4759 26.8977C80.9607 27.8902 82.1198 29.2841 82.9531 31.0795C83.7865 32.8674 84.2031 34.9621 84.2031 37.3636ZM82.8168 37.3636C82.8168 35.2045 82.4531 33.3333 81.7259 31.75C81.0062 30.1667 80.0099 28.9432 78.7372 28.0795C77.4645 27.2083 76.0062 26.7727 74.3622 26.7727C72.7183 26.7727 71.2599 27.2045 69.9872 28.0682C68.7145 28.9242 67.7145 30.1477 66.9872 31.7386C66.2675 33.322 65.9077 35.197 65.9077 37.3636C65.9077 39.5076 66.2637 41.375 66.9759 42.9659C67.6955 44.5492 68.6918 45.7765 69.9645 46.6477C71.2372 47.5189 72.7031 47.9545 74.3622 47.9545C76.0062 47.9545 77.4645 47.5227 78.7372 46.6591C80.0099 45.7879 81.0062 44.5606 81.7259 42.9773C82.4531 41.3939 82.8168 39.5227 82.8168 37.3636ZM89.2656 55.5455V31.5455H90.6179V35.4432H90.7884C91.0611 34.6932 91.4437 34.0038 91.9361 33.375C92.4361 32.7462 93.0535 32.2424 93.7884 31.8636C94.5308 31.4773 95.402 31.2841 96.402 31.2841C97.8111 31.2841 99.0384 31.6705 100.084 32.4432C101.129 33.2159 101.94 34.2841 102.516 35.6477C103.091 37.0038 103.379 38.5606 103.379 40.3182C103.379 42.0758 103.088 43.6364 102.504 45C101.929 46.3561 101.118 47.4242 100.072 48.2045C99.0346 48.9773 97.8187 49.3636 96.4247 49.3636C95.4323 49.3636 94.5611 49.1742 93.8111 48.7955C93.0687 48.4167 92.4437 47.9129 91.9361 47.2841C91.4361 46.6477 91.0535 45.9508 90.7884 45.1932H90.652V55.5455H89.2656ZM90.6293 40.3068C90.6293 41.7917 90.8565 43.1212 91.3111 44.2955C91.7656 45.4621 92.4171 46.3864 93.2656 47.0682C94.1141 47.7424 95.1255 48.0795 96.2997 48.0795C97.4891 48.0795 98.508 47.7386 99.3565 47.0568C100.213 46.3674 100.864 45.4356 101.311 44.2614C101.766 43.0871 101.993 41.7689 101.993 40.3068C101.993 38.8447 101.769 37.5303 101.322 36.3636C100.875 35.197 100.228 34.2765 99.3793 33.6023C98.5308 32.9205 97.5043 32.5795 96.2997 32.5795C95.1103 32.5795 94.0914 32.9167 93.2429 33.5909C92.402 34.2576 91.7543 35.1742 91.2997 36.3409C90.8527 37.5 90.6293 38.822 90.6293 40.3068ZM114.979 49.3636C113.403 49.3636 112.032 48.9735 110.865 48.1932C109.698 47.4129 108.797 46.3447 108.161 44.9886C107.524 43.6326 107.206 42.0871 107.206 40.3523C107.206 38.6098 107.524 37.0568 108.161 35.6932C108.804 34.3295 109.687 33.2538 110.808 32.4659C111.929 31.678 113.21 31.2841 114.649 31.2841C115.626 31.2841 116.551 31.4811 117.422 31.875C118.301 32.2614 119.073 32.822 119.74 33.5568C120.414 34.2917 120.941 35.178 121.32 36.2159C121.706 37.2538 121.899 38.4205 121.899 39.7159V40.5795H108.081V39.3182H120.513C120.513 38.053 120.255 36.9129 119.74 35.8977C119.225 34.8826 118.524 34.0758 117.638 33.4773C116.751 32.8788 115.755 32.5795 114.649 32.5795C113.49 32.5795 112.456 32.9053 111.547 33.5568C110.645 34.2008 109.929 35.072 109.399 36.1705C108.876 37.2689 108.604 38.4962 108.581 39.8523V40.4205C108.581 41.875 108.835 43.1818 109.342 44.3409C109.857 45.4924 110.592 46.4053 111.547 47.0795C112.501 47.7462 113.645 48.0795 114.979 48.0795C115.933 48.0795 116.748 47.9205 117.422 47.6023C118.104 47.2765 118.661 46.8826 119.092 46.4205C119.524 45.9583 119.85 45.5114 120.07 45.0795L121.331 45.5909C121.066 46.1742 120.653 46.7576 120.092 47.3409C119.539 47.9167 118.835 48.3977 117.979 48.7841C117.13 49.1705 116.13 49.3636 114.979 49.3636ZM128.058 37.6818V49H126.672V31.5455H128.024V34.3068H128.161C128.57 33.4053 129.225 32.6818 130.126 32.1364C131.028 31.5909 132.1 31.3182 133.342 31.3182C134.517 31.3182 135.547 31.5682 136.433 32.0682C137.327 32.5682 138.024 33.2803 138.524 34.2045C139.032 35.1212 139.286 36.2159 139.286 37.4886V49H137.899V37.5455C137.899 36.0606 137.456 34.8674 136.57 33.9659C135.691 33.0568 134.528 32.6023 133.081 32.6023C132.111 32.6023 131.248 32.8144 130.49 33.2386C129.732 33.6629 129.138 34.2576 128.706 35.0227C128.274 35.7803 128.058 36.6667 128.058 37.6818ZM146.956 25.7273V49H145.536V25.7273H146.956ZM153.203 49V31.5455H154.555V34.1818H154.692C155.025 33.303 155.601 32.6061 156.419 32.0909C157.237 31.5758 158.222 31.3182 159.374 31.3182C160.639 31.3182 161.658 31.6212 162.43 32.2273C163.211 32.8333 163.771 33.6553 164.112 34.6932H164.237C164.578 33.6705 165.188 32.8523 166.067 32.2386C166.953 31.625 168.044 31.3182 169.339 31.3182C171.029 31.3182 172.317 31.8523 173.203 32.9205C174.097 33.9811 174.544 35.4356 174.544 37.2841V49H173.158V37.2841C173.158 35.8295 172.809 34.6856 172.112 33.8523C171.415 33.0189 170.393 32.6023 169.044 32.6023C167.605 32.6023 166.499 33.053 165.726 33.9545C164.953 34.8561 164.567 36.0038 164.567 37.3977V49H163.18V37.1932C163.18 35.8371 162.839 34.7348 162.158 33.8864C161.476 33.0303 160.453 32.6023 159.089 32.6023C158.165 32.6023 157.366 32.8144 156.692 33.2386C156.025 33.6629 155.506 34.2462 155.135 34.9886C154.771 35.7311 154.589 36.5833 154.589 37.5455V49H153.203ZM184.922 49.375C183.914 49.375 182.99 49.1742 182.149 48.7727C181.316 48.3712 180.645 47.7841 180.138 47.0114C179.638 46.2386 179.388 45.2992 179.388 44.1932C179.388 43.4659 179.517 42.8258 179.774 42.2727C180.032 41.7197 180.429 41.2424 180.967 40.8409C181.505 40.4394 182.195 40.1098 183.036 39.8523C183.876 39.5871 184.88 39.3826 186.047 39.2386C186.933 39.1326 187.725 39.0303 188.422 38.9318C189.119 38.8258 189.664 38.6629 190.058 38.4432C190.46 38.2235 190.661 37.8902 190.661 37.4432V36.7159C190.661 35.4432 190.259 34.4318 189.456 33.6818C188.653 32.9318 187.547 32.5568 186.138 32.5568C184.888 32.5568 183.835 32.8333 182.979 33.3864C182.13 33.9318 181.536 34.6364 181.195 35.5L179.888 35.0114C180.221 34.178 180.702 33.4848 181.331 32.9318C181.967 32.3788 182.695 31.9659 183.513 31.6932C184.339 31.4205 185.202 31.2841 186.104 31.2841C186.884 31.2841 187.626 31.3939 188.331 31.6136C189.043 31.8333 189.676 32.1667 190.229 32.6136C190.789 33.0606 191.232 33.6326 191.558 34.3295C191.884 35.0189 192.047 35.8447 192.047 36.8068V49H190.661V45.8523H190.558C190.255 46.5038 189.839 47.0985 189.308 47.6364C188.786 48.1667 188.153 48.5909 187.411 48.9091C186.676 49.2197 185.846 49.375 184.922 49.375ZM185.058 48.0909C186.149 48.0909 187.115 47.8258 187.956 47.2955C188.804 46.7576 189.467 46.0227 189.945 45.0909C190.422 44.1591 190.661 43.1023 190.661 41.9205V39.3523C190.486 39.5038 190.232 39.6402 189.899 39.7614C189.573 39.875 189.202 39.9773 188.786 40.0682C188.376 40.1515 187.945 40.2273 187.49 40.2955C187.043 40.3561 186.607 40.4129 186.183 40.4659C184.911 40.6174 183.873 40.8523 183.07 41.1705C182.274 41.4811 181.691 41.8902 181.32 42.3977C180.956 42.9053 180.774 43.5189 180.774 44.2386C180.774 45.428 181.183 46.3674 182.001 47.0568C182.82 47.7462 183.839 48.0909 185.058 48.0909ZM204.155 55.9091C203.071 55.9091 202.098 55.7652 201.234 55.4773C200.371 55.197 199.636 54.7955 199.03 54.2727C198.431 53.75 197.973 53.1288 197.655 52.4091L198.814 51.7273C199.071 52.2879 199.439 52.7879 199.916 53.2273C200.393 53.6667 200.984 54.0114 201.689 54.2614C202.401 54.5114 203.223 54.6364 204.155 54.6364C205.837 54.6364 207.166 54.2008 208.143 53.3295C209.128 52.4659 209.621 51.1402 209.621 49.3523V45.0114H209.484C209.219 45.7689 208.825 46.4432 208.303 47.0341C207.787 47.6174 207.155 48.0758 206.405 48.4091C205.655 48.7424 204.803 48.9091 203.848 48.9091C202.469 48.9091 201.257 48.553 200.212 47.8409C199.166 47.1288 198.352 46.1288 197.768 44.8409C197.185 43.5455 196.893 42.0227 196.893 40.2727C196.893 38.5227 197.178 36.9735 197.746 35.625C198.321 34.2689 199.132 33.2083 200.178 32.4432C201.223 31.6705 202.45 31.2841 203.859 31.2841C204.867 31.2841 205.738 31.4773 206.473 31.8636C207.215 32.2424 207.837 32.7462 208.337 33.375C208.837 34.0038 209.223 34.6932 209.496 35.4432H209.655V31.5455H210.996V49.4091C210.996 50.8636 210.708 52.072 210.132 53.0341C209.564 53.9962 208.765 54.7159 207.734 55.1932C206.712 55.6705 205.518 55.9091 204.155 55.9091ZM203.973 47.625C205.14 47.625 206.143 47.3295 206.984 46.7386C207.833 46.1402 208.484 45.2917 208.939 44.1932C209.401 43.0871 209.632 41.7765 209.632 40.2614C209.632 38.7917 209.409 37.4773 208.962 36.3182C208.515 35.1591 207.867 34.2462 207.018 33.5795C206.17 32.9129 205.155 32.5795 203.973 32.5795C202.768 32.5795 201.742 32.9205 200.893 33.6023C200.045 34.2765 199.393 35.1932 198.939 36.3523C198.492 37.5114 198.268 38.8144 198.268 40.2614C198.268 41.7159 198.496 42.9962 198.95 44.1023C199.405 45.2008 200.056 46.0644 200.905 46.6932C201.753 47.3144 202.776 47.625 203.973 47.625ZM223.635 49.3636C222.059 49.3636 220.688 48.9735 219.521 48.1932C218.355 47.4129 217.453 46.3447 216.817 44.9886C216.18 43.6326 215.862 42.0871 215.862 40.3523C215.862 38.6098 216.18 37.0568 216.817 35.6932C217.461 34.3295 218.343 33.2538 219.464 32.4659C220.586 31.678 221.866 31.2841 223.305 31.2841C224.283 31.2841 225.207 31.4811 226.078 31.875C226.957 32.2614 227.73 32.822 228.396 33.5568C229.071 34.2917 229.597 35.178 229.976 36.2159C230.362 37.2538 230.555 38.4205 230.555 39.7159V40.5795H216.737V39.3182H229.169C229.169 38.053 228.911 36.9129 228.396 35.8977C227.881 34.8826 227.18 34.0758 226.294 33.4773C225.408 32.8788 224.411 32.5795 223.305 32.5795C222.146 32.5795 221.112 32.9053 220.203 33.5568C219.302 34.2008 218.586 35.072 218.055 36.1705C217.533 37.2689 217.26 38.4962 217.237 39.8523V40.4205C217.237 41.875 217.491 43.1818 217.999 44.3409C218.514 45.4924 219.249 46.4053 220.203 47.0795C221.158 47.7462 222.302 48.0795 223.635 48.0795C224.589 48.0795 225.404 47.9205 226.078 47.6023C226.76 47.2765 227.317 46.8826 227.749 46.4205C228.18 45.9583 228.506 45.5114 228.726 45.0795L229.987 45.5909C229.722 46.1742 229.309 46.7576 228.749 47.3409C228.196 47.9167 227.491 48.3977 226.635 48.7841C225.786 49.1705 224.786 49.3636 223.635 49.3636ZM246.419 35.3068L245.135 35.6477C244.93 35.0114 244.639 34.4621 244.26 34C243.881 33.5379 243.404 33.1818 242.828 32.9318C242.26 32.6742 241.578 32.5455 240.783 32.5455C239.502 32.5455 238.453 32.8636 237.635 33.5C236.824 34.1364 236.419 34.9659 236.419 35.9886C236.419 36.822 236.696 37.5114 237.249 38.0568C237.802 38.5947 238.646 39.0038 239.783 39.2841L242.464 39.9545C243.843 40.2955 244.881 40.8485 245.578 41.6136C246.275 42.3712 246.624 43.3144 246.624 44.4432C246.624 45.4053 246.362 46.2576 245.839 47C245.317 47.7424 244.593 48.322 243.669 48.7386C242.752 49.1553 241.684 49.3636 240.464 49.3636C238.836 49.3636 237.499 48.9848 236.453 48.2273C235.408 47.4621 234.737 46.3674 234.442 44.9432L235.771 44.6023C236.021 45.7386 236.54 46.6061 237.328 47.2045C238.124 47.7955 239.165 48.0909 240.453 48.0909C241.877 48.0909 243.025 47.7538 243.896 47.0795C244.775 46.4053 245.214 45.5417 245.214 44.4886C245.214 43.6856 244.957 43.0076 244.442 42.4545C243.927 41.9015 243.146 41.4962 242.101 41.2386L239.317 40.5568C237.893 40.2083 236.824 39.6515 236.112 38.8864C235.4 38.1136 235.044 37.1629 235.044 36.0341C235.044 35.0947 235.29 34.2689 235.783 33.5568C236.275 32.8447 236.953 32.2879 237.817 31.8864C238.68 31.4848 239.669 31.2841 240.783 31.2841C242.26 31.2841 243.464 31.6326 244.396 32.3295C245.328 33.0265 246.002 34.0189 246.419 35.3068ZM260.013 25.7273L267.649 47.1705H267.808L275.445 25.7273H276.945L268.547 49H266.911L258.513 25.7273H260.013ZM281.297 49L292.104 27.1705V27.0455H279.683V25.7273H293.649V27.0909L282.831 49H281.297Z" fill="#3D3D3A"/>
<path d="M76.5645 218.83C78.3888 216.7 81.6312 214.845 85.5195 215.663L85.8975 215.751L85.9619 215.768L86.0264 215.785L122.771 225.805L122.77 225.807C128.414 227.309 130.211 232.896 130.211 236.347V277.232C130.211 280.683 128.414 286.269 122.77 287.771L122.771 287.774L86.0264 297.794L85.9619 297.812L85.8965 297.828C81.8406 298.852 78.4473 296.947 76.5645 294.748C74.7313 292.607 73.8946 289.873 73.8945 287.252V226.327C73.8945 223.706 74.7309 220.971 76.5645 218.83Z" stroke="#3D3D3A" stroke-width="14.2105" stroke-linecap="round"/>
<path d="M76.5645 87.251C78.3888 85.1204 81.6312 83.2661 85.5195 84.084L85.8975 84.1719L85.9619 84.1885L86.0264 84.2061L122.771 94.2256L122.77 94.2275C128.414 95.7302 130.211 101.317 130.211 104.768V145.653C130.211 149.104 128.414 154.69 122.77 156.192L122.771 156.195L86.0264 166.215L85.9619 166.232L85.8965 166.249C81.8406 167.273 78.4473 165.368 76.5645 163.169C74.7313 161.028 73.8946 158.294 73.8945 155.673V94.748C73.8945 92.1266 74.7309 89.3923 76.5645 87.251Z" stroke="#3D3D3A" stroke-width="14.2105" stroke-linecap="round"/>
<rect x="211.789" y="214.421" width="79.4737" height="82.6316" rx="12.3684" stroke="#3D3D3A" stroke-width="14.2105"/>
<rect x="169.684" y="215.474" width="24.7368" height="82.6316" rx="12.3684" stroke="#3D3D3A" stroke-width="14.2105"/>
<rect x="211.789" y="197.053" width="24.7368" height="82.6316" rx="12.3684" transform="rotate(-90 211.789 197.053)" stroke="#3D3D3A" stroke-width="14.2105"/>
<path d="M144.158 256.263H154.684" stroke="#3D3D3A" stroke-width="8.42105" stroke-linecap="round"/>
<path d="M144.158 124.684C144.158 124.684 243.105 124.684 249.421 124.684V151.526" stroke="#3D3D3A" stroke-width="8.42105" stroke-linecap="round" stroke-linejoin="round"/>
</svg>
