<svg width="358" height="448" viewBox="0 0 358 448" fill="none" xmlns="http://www.w3.org/2000/svg">
<rect x="2.25" y="2.25" width="353.5" height="443.5" rx="69.75" fill="white"/>
<rect x="2.25" y="2.25" width="353.5" height="443.5" rx="69.75" stroke="#DDDDDD" stroke-width="4.5"/>
<path d="M40.8743 380H29.0447V345.091H41.1129C44.5788 345.091 47.5561 345.79 50.0447 347.188C52.5447 348.574 54.4652 350.568 55.8061 353.17C57.147 355.773 57.8175 358.886 57.8175 362.511C57.8175 366.148 57.1413 369.273 55.7891 371.886C54.4482 374.5 52.5107 376.506 49.9766 377.903C47.4538 379.301 44.4197 380 40.8743 380ZM35.3686 374.528H40.5675C42.9993 374.528 45.0277 374.085 46.6527 373.199C48.2777 372.301 49.4993 370.966 50.3175 369.193C51.1357 367.409 51.5447 365.182 51.5447 362.511C51.5447 359.841 51.1357 357.625 50.3175 355.864C49.4993 354.091 48.2891 352.767 46.6868 351.892C45.0959 351.006 43.1186 350.562 40.755 350.562H35.3686V374.528ZM75.1442 380.511C72.5192 380.511 70.2521 379.966 68.343 378.875C66.4453 377.773 64.9851 376.216 63.9624 374.205C62.9396 372.182 62.4283 369.801 62.4283 367.062C62.4283 364.369 62.9396 362.006 63.9624 359.972C64.9964 357.926 66.4396 356.335 68.2919 355.199C70.1442 354.051 72.3203 353.477 74.8203 353.477C76.4339 353.477 77.9567 353.739 79.3885 354.261C80.8317 354.773 82.1044 355.568 83.2067 356.648C84.3203 357.727 85.1953 359.102 85.8317 360.773C86.468 362.432 86.7862 364.409 86.7862 366.705V368.597H65.326V364.438H80.8714C80.8601 363.256 80.6044 362.205 80.1044 361.284C79.6044 360.352 78.9055 359.619 78.0078 359.085C77.1214 358.551 76.0874 358.284 74.9055 358.284C73.6442 358.284 72.5362 358.591 71.5817 359.205C70.6271 359.807 69.8828 360.602 69.3487 361.591C68.826 362.568 68.5589 363.642 68.5476 364.812V368.443C68.5476 369.966 68.826 371.273 69.3828 372.364C69.9396 373.443 70.718 374.273 71.718 374.852C72.718 375.42 73.8885 375.705 75.2294 375.705C76.1271 375.705 76.9396 375.58 77.6669 375.33C78.3942 375.068 79.0249 374.688 79.5589 374.188C80.093 373.688 80.4964 373.068 80.7692 372.33L86.5305 372.977C86.1669 374.5 85.4737 375.83 84.451 376.966C83.4396 378.091 82.1442 378.966 80.5646 379.591C78.9851 380.205 77.1783 380.511 75.1442 380.511ZM98.1768 364.659V380H92.0064V353.818H97.9041V358.267H98.2109C98.8132 356.801 99.7734 355.636 101.092 354.773C102.421 353.909 104.063 353.477 106.018 353.477C107.825 353.477 109.398 353.864 110.739 354.636C112.092 355.409 113.137 356.528 113.876 357.994C114.626 359.46 114.995 361.239 114.984 363.33V380H108.813V364.284C108.813 362.534 108.359 361.165 107.45 360.176C106.552 359.187 105.308 358.693 103.717 358.693C102.637 358.693 101.677 358.932 100.836 359.409C100.006 359.875 99.353 360.551 98.8757 361.438C98.4098 362.324 98.1768 363.398 98.1768 364.659ZM141.95 360.739L136.325 361.352C136.165 360.784 135.887 360.25 135.489 359.75C135.103 359.25 134.58 358.847 133.921 358.54C133.262 358.233 132.455 358.08 131.501 358.08C130.217 358.08 129.137 358.358 128.262 358.915C127.398 359.472 126.972 360.193 126.984 361.08C126.972 361.841 127.251 362.46 127.819 362.938C128.398 363.415 129.353 363.807 130.683 364.114L135.148 365.068C137.626 365.602 139.467 366.449 140.671 367.608C141.887 368.767 142.501 370.284 142.512 372.159C142.501 373.807 142.018 375.261 141.063 376.523C140.12 377.773 138.808 378.75 137.126 379.455C135.444 380.159 133.512 380.511 131.33 380.511C128.126 380.511 125.546 379.841 123.592 378.5C121.637 377.148 120.472 375.267 120.097 372.858L126.114 372.278C126.387 373.46 126.967 374.352 127.853 374.955C128.739 375.557 129.893 375.858 131.313 375.858C132.779 375.858 133.955 375.557 134.842 374.955C135.739 374.352 136.188 373.608 136.188 372.722C136.188 371.972 135.898 371.352 135.319 370.864C134.751 370.375 133.864 370 132.66 369.739L128.194 368.801C125.683 368.278 123.825 367.398 122.62 366.159C121.415 364.909 120.819 363.33 120.83 361.42C120.819 359.807 121.256 358.409 122.143 357.227C123.04 356.034 124.285 355.114 125.876 354.466C127.478 353.807 129.325 353.477 131.415 353.477C134.484 353.477 136.898 354.131 138.66 355.438C140.433 356.744 141.529 358.511 141.95 360.739ZM159.191 380.511C156.566 380.511 154.299 379.966 152.39 378.875C150.492 377.773 149.032 376.216 148.009 374.205C146.987 372.182 146.475 369.801 146.475 367.062C146.475 364.369 146.987 362.006 148.009 359.972C149.043 357.926 150.487 356.335 152.339 355.199C154.191 354.051 156.367 353.477 158.867 353.477C160.481 353.477 162.004 353.739 163.435 354.261C164.879 354.773 166.151 355.568 167.254 356.648C168.367 357.727 169.242 359.102 169.879 360.773C170.515 362.432 170.833 364.409 170.833 366.705V368.597H149.373V364.438H164.918C164.907 363.256 164.651 362.205 164.151 361.284C163.651 360.352 162.952 359.619 162.055 359.085C161.168 358.551 160.134 358.284 158.952 358.284C157.691 358.284 156.583 358.591 155.629 359.205C154.674 359.807 153.93 360.602 153.396 361.591C152.873 362.568 152.606 363.642 152.594 364.812V368.443C152.594 369.966 152.873 371.273 153.43 372.364C153.987 373.443 154.765 374.273 155.765 374.852C156.765 375.42 157.935 375.705 159.276 375.705C160.174 375.705 160.987 375.58 161.714 375.33C162.441 375.068 163.072 374.688 163.606 374.188C164.14 373.688 164.543 373.068 164.816 372.33L170.577 372.977C170.214 374.5 169.521 375.83 168.498 376.966C167.487 378.091 166.191 378.966 164.612 379.591C163.032 380.205 161.225 380.511 159.191 380.511ZM205.013 345.091V380H199.388L182.94 356.222H182.65V380H176.326V345.091H181.985L198.417 368.886H198.724V345.091H205.013ZM223.222 380.511C220.597 380.511 218.33 379.966 216.421 378.875C214.523 377.773 213.063 376.216 212.04 374.205C211.018 372.182 210.506 369.801 210.506 367.062C210.506 364.369 211.018 362.006 212.04 359.972C213.075 357.926 214.518 356.335 216.37 355.199C218.222 354.051 220.398 353.477 222.898 353.477C224.512 353.477 226.035 353.739 227.467 354.261C228.91 354.773 230.183 355.568 231.285 356.648C232.398 357.727 233.273 359.102 233.91 360.773C234.546 362.432 234.864 364.409 234.864 366.705V368.597H213.404V364.438H228.95C228.938 363.256 228.683 362.205 228.183 361.284C227.683 360.352 226.984 359.619 226.086 359.085C225.2 358.551 224.165 358.284 222.984 358.284C221.722 358.284 220.614 358.591 219.66 359.205C218.705 359.807 217.961 360.602 217.427 361.591C216.904 362.568 216.637 363.642 216.626 364.812V368.443C216.626 369.966 216.904 371.273 217.461 372.364C218.018 373.443 218.796 374.273 219.796 374.852C220.796 375.42 221.967 375.705 223.308 375.705C224.205 375.705 225.018 375.58 225.745 375.33C226.472 375.068 227.103 374.688 227.637 374.188C228.171 373.688 228.575 373.068 228.847 372.33L234.609 372.977C234.245 374.5 233.552 375.83 232.529 376.966C231.518 378.091 230.222 378.966 228.643 379.591C227.063 380.205 225.256 380.511 223.222 380.511ZM253.158 353.818V358.591H238.107V353.818H253.158ZM241.823 347.545H247.994V372.125C247.994 372.955 248.119 373.591 248.369 374.034C248.63 374.466 248.971 374.761 249.391 374.92C249.812 375.08 250.278 375.159 250.789 375.159C251.175 375.159 251.528 375.131 251.846 375.074C252.175 375.017 252.425 374.966 252.596 374.92L253.636 379.744C253.306 379.858 252.835 379.983 252.221 380.119C251.619 380.256 250.88 380.335 250.005 380.358C248.46 380.403 247.067 380.17 245.829 379.659C244.59 379.136 243.607 378.33 242.88 377.239C242.164 376.148 241.812 374.784 241.823 373.148V347.545ZM272.45 345.091V380H266.126V351.244H265.921L257.756 356.46V350.665L266.433 345.091H272.45ZM294.097 380.477C292.427 380.466 290.796 380.176 289.205 379.608C287.614 379.028 286.183 378.091 284.91 376.795C283.637 375.489 282.626 373.756 281.876 371.597C281.126 369.426 280.756 366.739 280.768 363.534C280.768 360.545 281.086 357.881 281.722 355.54C282.359 353.199 283.273 351.222 284.467 349.608C285.66 347.983 287.097 346.744 288.779 345.892C290.472 345.04 292.364 344.614 294.455 344.614C296.648 344.614 298.592 345.045 300.285 345.909C301.989 346.773 303.364 347.955 304.41 349.455C305.455 350.943 306.103 352.625 306.353 354.5H300.131C299.813 353.159 299.16 352.091 298.171 351.295C297.194 350.489 295.955 350.085 294.455 350.085C292.035 350.085 290.171 351.136 288.864 353.239C287.569 355.341 286.915 358.227 286.904 361.898H287.143C287.7 360.898 288.421 360.04 289.308 359.324C290.194 358.608 291.194 358.057 292.308 357.67C293.433 357.273 294.62 357.074 295.87 357.074C297.915 357.074 299.751 357.562 301.376 358.54C303.012 359.517 304.308 360.864 305.262 362.58C306.217 364.284 306.688 366.239 306.677 368.443C306.688 370.739 306.165 372.801 305.109 374.631C304.052 376.449 302.58 377.881 300.694 378.926C298.808 379.972 296.609 380.489 294.097 380.477ZM294.063 375.364C295.302 375.364 296.41 375.062 297.387 374.46C298.364 373.858 299.137 373.045 299.705 372.023C300.273 371 300.552 369.852 300.54 368.58C300.552 367.33 300.279 366.199 299.722 365.188C299.177 364.176 298.421 363.375 297.455 362.784C296.489 362.193 295.387 361.898 294.148 361.898C293.228 361.898 292.37 362.074 291.575 362.426C290.779 362.778 290.086 363.267 289.495 363.892C288.904 364.506 288.438 365.222 288.097 366.04C287.768 366.847 287.597 367.71 287.586 368.631C287.597 369.847 287.881 370.966 288.438 371.989C288.995 373.011 289.762 373.83 290.739 374.443C291.717 375.057 292.825 375.364 294.063 375.364ZM326.637 345.091V380H320.313V351.244H320.109L311.944 356.46V350.665L320.62 345.091H326.637ZM71.7315 419V395.727H85.1974V397.636H73.8565V406.398H84.1406V408.307H73.8565V419H71.7315ZM95.8366 419.364C94.2079 419.364 92.7988 418.985 91.6094 418.227C90.42 417.462 89.4995 416.405 88.848 415.057C88.2041 413.701 87.8821 412.14 87.8821 410.375C87.8821 408.617 88.2041 407.057 88.848 405.693C89.4995 404.322 90.3973 403.25 91.5412 402.477C92.6927 401.697 94.0223 401.307 95.5298 401.307C96.4768 401.307 97.3897 401.481 98.2685 401.83C99.1473 402.17 99.9351 402.697 100.632 403.409C101.337 404.114 101.893 405.004 102.303 406.08C102.712 407.148 102.916 408.413 102.916 409.875V410.875H89.2798V409.091H100.848C100.848 407.97 100.621 406.962 100.166 406.068C99.7192 405.167 99.0942 404.455 98.2912 403.932C97.4957 403.409 96.5753 403.148 95.5298 403.148C94.4238 403.148 93.4503 403.443 92.6094 404.034C91.7685 404.625 91.1094 405.405 90.6321 406.375C90.1624 407.345 89.9238 408.405 89.9162 409.557V410.625C89.9162 412.011 90.1548 413.223 90.6321 414.261C91.117 415.292 91.8026 416.091 92.6889 416.659C93.5753 417.227 94.6245 417.511 95.8366 417.511C96.6624 417.511 97.3859 417.383 98.0071 417.125C98.6359 416.867 99.1624 416.523 99.5866 416.091C100.018 415.652 100.344 415.17 100.564 414.648L102.484 415.273C102.219 416.008 101.784 416.686 101.178 417.307C100.579 417.928 99.8291 418.428 98.9276 418.807C98.0336 419.178 97.0033 419.364 95.8366 419.364ZM112.249 419.398C111.196 419.398 110.233 419.193 109.362 418.784C108.491 418.367 107.798 417.769 107.283 416.989C106.768 416.201 106.51 415.246 106.51 414.125C106.51 413.261 106.673 412.534 106.999 411.943C107.324 411.352 107.786 410.867 108.385 410.489C108.983 410.11 109.692 409.811 110.51 409.591C111.328 409.371 112.23 409.201 113.214 409.08C114.192 408.958 115.018 408.852 115.692 408.761C116.374 408.67 116.893 408.527 117.249 408.33C117.605 408.133 117.783 407.814 117.783 407.375V406.966C117.783 405.777 117.427 404.841 116.714 404.159C116.01 403.47 114.995 403.125 113.669 403.125C112.411 403.125 111.385 403.402 110.589 403.955C109.802 404.508 109.249 405.159 108.93 405.909L107.01 405.216C107.404 404.261 107.949 403.5 108.646 402.932C109.343 402.356 110.124 401.943 110.987 401.693C111.851 401.436 112.726 401.307 113.612 401.307C114.279 401.307 114.972 401.394 115.692 401.568C116.419 401.742 117.093 402.045 117.714 402.477C118.336 402.902 118.839 403.496 119.226 404.261C119.612 405.019 119.805 405.981 119.805 407.148V419H117.783V416.239H117.658C117.415 416.754 117.055 417.254 116.578 417.739C116.101 418.223 115.502 418.621 114.783 418.932C114.063 419.242 113.218 419.398 112.249 419.398ZM112.521 417.545C113.597 417.545 114.529 417.307 115.317 416.83C116.105 416.352 116.711 415.72 117.135 414.932C117.567 414.136 117.783 413.261 117.783 412.307V409.784C117.631 409.928 117.377 410.057 117.021 410.17C116.673 410.284 116.268 410.386 115.805 410.477C115.351 410.561 114.896 410.633 114.442 410.693C113.987 410.754 113.578 410.807 113.214 410.852C112.23 410.973 111.389 411.163 110.692 411.42C109.995 411.678 109.461 412.034 109.089 412.489C108.718 412.936 108.533 413.511 108.533 414.216C108.533 415.277 108.911 416.098 109.669 416.682C110.427 417.258 111.377 417.545 112.521 417.545ZM132.061 401.545V403.307H123.732V401.545H132.061ZM126.334 397.364H128.368V414.443C128.368 415.17 128.493 415.742 128.743 416.159C128.993 416.568 129.319 416.86 129.72 417.034C130.122 417.201 130.55 417.284 131.004 417.284C131.269 417.284 131.497 417.269 131.686 417.239C131.875 417.201 132.042 417.163 132.186 417.125L132.618 418.955C132.421 419.03 132.179 419.098 131.891 419.159C131.603 419.227 131.247 419.261 130.822 419.261C130.08 419.261 129.364 419.098 128.675 418.773C127.993 418.447 127.432 417.962 126.993 417.318C126.554 416.674 126.334 415.875 126.334 414.92V397.364ZM147.746 412.33V401.545H149.768V419H147.746V416.102H147.587C147.178 416.996 146.53 417.742 145.643 418.341C144.757 418.932 143.674 419.227 142.393 419.227C141.28 419.227 140.291 418.985 139.428 418.5C138.564 418.008 137.886 417.288 137.393 416.341C136.901 415.394 136.655 414.231 136.655 412.852V401.545H138.678V412.727C138.678 414.091 139.079 415.189 139.882 416.023C140.685 416.848 141.715 417.261 142.973 417.261C143.761 417.261 144.518 417.072 145.246 416.693C145.973 416.314 146.571 415.761 147.041 415.034C147.511 414.299 147.746 413.398 147.746 412.33ZM155.124 419V401.545H157.089V404.227H157.237C157.586 403.348 158.192 402.64 159.055 402.102C159.927 401.557 160.911 401.284 162.01 401.284C162.177 401.284 162.362 401.288 162.567 401.295C162.771 401.303 162.942 401.311 163.078 401.318V403.375C162.987 403.36 162.828 403.337 162.601 403.307C162.374 403.277 162.127 403.261 161.862 403.261C160.953 403.261 160.143 403.455 159.43 403.841C158.726 404.22 158.169 404.746 157.76 405.42C157.351 406.095 157.146 406.864 157.146 407.727V419H155.124ZM173.055 419.364C171.427 419.364 170.018 418.985 168.828 418.227C167.639 417.462 166.718 416.405 166.067 415.057C165.423 413.701 165.101 412.14 165.101 410.375C165.101 408.617 165.423 407.057 166.067 405.693C166.718 404.322 167.616 403.25 168.76 402.477C169.911 401.697 171.241 401.307 172.749 401.307C173.696 401.307 174.608 401.481 175.487 401.83C176.366 402.17 177.154 402.697 177.851 403.409C178.555 404.114 179.112 405.004 179.521 406.08C179.93 407.148 180.135 408.413 180.135 409.875V410.875H166.499V409.091H178.067C178.067 407.97 177.839 406.962 177.385 406.068C176.938 405.167 176.313 404.455 175.51 403.932C174.714 403.409 173.794 403.148 172.749 403.148C171.643 403.148 170.669 403.443 169.828 404.034C168.987 404.625 168.328 405.405 167.851 406.375C167.381 407.345 167.143 408.405 167.135 409.557V410.625C167.135 412.011 167.374 413.223 167.851 414.261C168.336 415.292 169.021 416.091 169.908 416.659C170.794 417.227 171.843 417.511 173.055 417.511C173.881 417.511 174.605 417.383 175.226 417.125C175.855 416.867 176.381 416.523 176.805 416.091C177.237 415.652 177.563 415.17 177.783 414.648L179.703 415.273C179.438 416.008 179.002 416.686 178.396 417.307C177.798 417.928 177.048 418.428 176.146 418.807C175.252 419.178 174.222 419.364 173.055 419.364ZM196.32 405.375L194.467 405.898C194.286 405.375 194.028 404.902 193.695 404.477C193.361 404.053 192.926 403.716 192.388 403.466C191.857 403.216 191.198 403.091 190.411 403.091C189.229 403.091 188.259 403.371 187.501 403.932C186.744 404.492 186.365 405.216 186.365 406.102C186.365 406.852 186.623 407.462 187.138 407.932C187.661 408.394 188.464 408.761 189.547 409.034L192.183 409.682C193.645 410.038 194.74 410.602 195.467 411.375C196.202 412.148 196.57 413.117 196.57 414.284C196.57 415.269 196.297 416.144 195.751 416.909C195.206 417.674 194.445 418.277 193.467 418.716C192.498 419.148 191.373 419.364 190.092 419.364C188.388 419.364 186.982 418.981 185.876 418.216C184.77 417.443 184.062 416.33 183.751 414.875L185.695 414.398C185.945 415.436 186.433 416.22 187.161 416.75C187.895 417.28 188.861 417.545 190.058 417.545C191.399 417.545 192.471 417.246 193.274 416.648C194.077 416.042 194.479 415.284 194.479 414.375C194.479 413.67 194.244 413.08 193.774 412.602C193.304 412.117 192.592 411.761 191.638 411.534L188.786 410.852C187.27 410.489 186.149 409.913 185.422 409.125C184.695 408.337 184.331 407.36 184.331 406.193C184.331 405.231 184.592 404.386 185.115 403.659C185.638 402.924 186.357 402.348 187.274 401.932C188.191 401.515 189.236 401.307 190.411 401.307C192.009 401.307 193.286 401.67 194.24 402.398C195.202 403.117 195.895 404.11 196.32 405.375ZM210.419 419V395.727H212.544V417.091H223.635V419H210.419ZM232.874 419.398C231.821 419.398 230.858 419.193 229.987 418.784C229.116 418.367 228.423 417.769 227.908 416.989C227.393 416.201 227.135 415.246 227.135 414.125C227.135 413.261 227.298 412.534 227.624 411.943C227.949 411.352 228.411 410.867 229.01 410.489C229.608 410.11 230.317 409.811 231.135 409.591C231.953 409.371 232.855 409.201 233.839 409.08C234.817 408.958 235.643 408.852 236.317 408.761C236.999 408.67 237.518 408.527 237.874 408.33C238.23 408.133 238.408 407.814 238.408 407.375V406.966C238.408 405.777 238.052 404.841 237.339 404.159C236.635 403.47 235.62 403.125 234.294 403.125C233.036 403.125 232.01 403.402 231.214 403.955C230.427 404.508 229.874 405.159 229.555 405.909L227.635 405.216C228.029 404.261 228.574 403.5 229.271 402.932C229.968 402.356 230.749 401.943 231.612 401.693C232.476 401.436 233.351 401.307 234.237 401.307C234.904 401.307 235.597 401.394 236.317 401.568C237.044 401.742 237.718 402.045 238.339 402.477C238.961 402.902 239.464 403.496 239.851 404.261C240.237 405.019 240.43 405.981 240.43 407.148V419H238.408V416.239H238.283C238.04 416.754 237.68 417.254 237.203 417.739C236.726 418.223 236.127 418.621 235.408 418.932C234.688 419.242 233.843 419.398 232.874 419.398ZM233.146 417.545C234.222 417.545 235.154 417.307 235.942 416.83C236.73 416.352 237.336 415.72 237.76 414.932C238.192 414.136 238.408 413.261 238.408 412.307V409.784C238.256 409.928 238.002 410.057 237.646 410.17C237.298 410.284 236.893 410.386 236.43 410.477C235.976 410.561 235.521 410.633 235.067 410.693C234.612 410.754 234.203 410.807 233.839 410.852C232.855 410.973 232.014 411.163 231.317 411.42C230.62 411.678 230.086 412.034 229.714 412.489C229.343 412.936 229.158 413.511 229.158 414.216C229.158 415.277 229.536 416.098 230.294 416.682C231.052 417.258 232.002 417.545 233.146 417.545ZM246.595 425.545C246.194 425.545 245.819 425.508 245.47 425.432C245.122 425.356 244.845 425.273 244.641 425.182L245.186 423.398C245.875 423.61 246.489 423.686 247.027 423.625C247.565 423.572 248.042 423.33 248.459 422.898C248.875 422.473 249.247 421.822 249.572 420.943L250.209 419.17L243.788 401.545H245.982L251.163 416.33H251.322L256.504 401.545H258.697L251.311 421.761C251 422.602 250.618 423.303 250.163 423.864C249.709 424.432 249.182 424.852 248.584 425.125C247.993 425.405 247.33 425.545 246.595 425.545ZM269.087 419.364C267.458 419.364 266.049 418.985 264.859 418.227C263.67 417.462 262.75 416.405 262.098 415.057C261.454 413.701 261.132 412.14 261.132 410.375C261.132 408.617 261.454 407.057 262.098 405.693C262.75 404.322 263.647 403.25 264.791 402.477C265.943 401.697 267.272 401.307 268.78 401.307C269.727 401.307 270.64 401.481 271.518 401.83C272.397 402.17 273.185 402.697 273.882 403.409C274.587 404.114 275.143 405.004 275.553 406.08C275.962 407.148 276.166 408.413 276.166 409.875V410.875H262.53V409.091H274.098C274.098 407.97 273.871 406.962 273.416 406.068C272.969 405.167 272.344 404.455 271.541 403.932C270.746 403.409 269.825 403.148 268.78 403.148C267.674 403.148 266.7 403.443 265.859 404.034C265.018 404.625 264.359 405.405 263.882 406.375C263.412 407.345 263.174 408.405 263.166 409.557V410.625C263.166 412.011 263.405 413.223 263.882 414.261C264.367 415.292 265.053 416.091 265.939 416.659C266.825 417.227 267.875 417.511 269.087 417.511C269.912 417.511 270.636 417.383 271.257 417.125C271.886 416.867 272.412 416.523 272.837 416.091C273.268 415.652 273.594 415.17 273.814 414.648L275.734 415.273C275.469 416.008 275.034 416.686 274.428 417.307C273.829 417.928 273.079 418.428 272.178 418.807C271.284 419.178 270.253 419.364 269.087 419.364ZM280.624 419V401.545H282.589V404.227H282.737C283.086 403.348 283.692 402.64 284.555 402.102C285.427 401.557 286.411 401.284 287.51 401.284C287.677 401.284 287.862 401.288 288.067 401.295C288.271 401.303 288.442 401.311 288.578 401.318V403.375C288.487 403.36 288.328 403.337 288.101 403.307C287.874 403.277 287.627 403.261 287.362 403.261C286.453 403.261 285.643 403.455 284.93 403.841C284.226 404.22 283.669 404.746 283.26 405.42C282.851 406.095 282.646 406.864 282.646 407.727V419H280.624Z" fill="#3D3D3A"/>
<path d="M105.176 49V25.7273H112.347C113.824 25.7273 115.089 26.0303 116.142 26.6364C117.203 27.2424 118.017 28.072 118.585 29.125C119.153 30.178 119.438 31.3788 119.438 32.7273C119.438 34.0606 119.153 35.2538 118.585 36.3068C118.017 37.3598 117.203 38.1932 116.142 38.8068C115.089 39.4129 113.828 39.7159 112.358 39.7159H106.176V38.3977H112.324C113.521 38.3977 114.544 38.1553 115.392 37.6705C116.241 37.178 116.892 36.5076 117.347 35.6591C117.801 34.803 118.028 33.8258 118.028 32.7273C118.028 31.6212 117.801 30.6402 117.347 29.7841C116.892 28.928 116.237 28.2576 115.381 27.7727C114.532 27.2879 113.509 27.0455 112.312 27.0455H106.597V49H105.176ZM125.793 25.7273V49H124.406V25.7273H125.793ZM136.156 49.375C135.149 49.375 134.224 49.1742 133.384 48.7727C132.55 48.3712 131.88 47.7841 131.372 47.0114C130.872 46.2386 130.622 45.2992 130.622 44.1932C130.622 43.4659 130.751 42.8258 131.009 42.2727C131.266 41.7197 131.664 41.2424 132.202 40.8409C132.74 40.4394 133.429 40.1098 134.27 39.8523C135.111 39.5871 136.115 39.3826 137.281 39.2386C138.168 39.1326 138.959 39.0303 139.656 38.9318C140.353 38.8258 140.899 38.6629 141.293 38.4432C141.694 38.2235 141.895 37.8902 141.895 37.4432V36.7159C141.895 35.4432 141.493 34.4318 140.69 33.6818C139.887 32.9318 138.781 32.5568 137.372 32.5568C136.122 32.5568 135.069 32.8333 134.213 33.3864C133.365 33.9318 132.77 34.6364 132.429 35.5L131.122 35.0114C131.455 34.178 131.937 33.4848 132.565 32.9318C133.202 32.3788 133.929 31.9659 134.747 31.6932C135.573 31.4205 136.437 31.2841 137.338 31.2841C138.118 31.2841 138.861 31.3939 139.565 31.6136C140.277 31.8333 140.91 32.1667 141.463 32.6136C142.024 33.0606 142.467 33.6326 142.793 34.3295C143.118 35.0189 143.281 35.8447 143.281 36.8068V49H141.895V45.8523H141.793C141.49 46.5038 141.073 47.0985 140.543 47.6364C140.02 48.1667 139.387 48.5909 138.645 48.9091C137.91 49.2197 137.08 49.375 136.156 49.375ZM136.293 48.0909C137.384 48.0909 138.349 47.8258 139.19 47.2955C140.039 46.7576 140.702 46.0227 141.179 45.0909C141.656 44.1591 141.895 43.1023 141.895 41.9205V39.3523C141.721 39.5038 141.467 39.6402 141.134 39.7614C140.808 39.875 140.437 39.9773 140.02 40.0682C139.611 40.1515 139.179 40.2273 138.724 40.2955C138.277 40.3561 137.842 40.4129 137.418 40.4659C136.145 40.6174 135.107 40.8523 134.304 41.1705C133.509 41.4811 132.925 41.8902 132.554 42.3977C132.19 42.9053 132.009 43.5189 132.009 44.2386C132.009 45.428 132.418 46.3674 133.236 47.0568C134.054 47.7462 135.073 48.0909 136.293 48.0909ZM155.639 49.3636C154.154 49.3636 152.848 48.9735 151.719 48.1932C150.59 47.4053 149.707 46.3295 149.071 44.9659C148.442 43.6023 148.128 42.0568 148.128 40.3295C148.128 38.6023 148.446 37.0568 149.082 35.6932C149.719 34.3295 150.601 33.2538 151.73 32.4659C152.859 31.678 154.158 31.2841 155.628 31.2841C156.734 31.2841 157.741 31.5114 158.651 31.9659C159.567 32.4205 160.325 33.053 160.923 33.8636C161.529 34.6742 161.916 35.6136 162.082 36.6818H160.673C160.446 35.5 159.878 34.5227 158.969 33.75C158.067 32.9697 156.957 32.5795 155.639 32.5795C154.457 32.5795 153.404 32.9129 152.48 33.5795C151.556 34.2386 150.829 35.1515 150.298 36.3182C149.768 37.4773 149.503 38.8068 149.503 40.3068C149.503 41.7841 149.76 43.1098 150.276 44.2841C150.791 45.4508 151.51 46.375 152.435 47.0568C153.359 47.7386 154.427 48.0795 155.639 48.0795C156.495 48.0795 157.276 47.9091 157.98 47.5682C158.692 47.2273 159.287 46.7424 159.764 46.1136C160.241 45.4848 160.556 44.75 160.707 43.9091H162.116C161.95 44.9848 161.571 45.9318 160.98 46.75C160.389 47.5682 159.635 48.2083 158.719 48.6705C157.802 49.1326 156.776 49.3636 155.639 49.3636ZM173.651 49.3636C172.075 49.3636 170.704 48.9735 169.537 48.1932C168.37 47.4129 167.469 46.3447 166.832 44.9886C166.196 43.6326 165.878 42.0871 165.878 40.3523C165.878 38.6098 166.196 37.0568 166.832 35.6932C167.476 34.3295 168.359 33.2538 169.48 32.4659C170.601 31.678 171.882 31.2841 173.321 31.2841C174.298 31.2841 175.223 31.4811 176.094 31.875C176.973 32.2614 177.745 32.822 178.412 33.5568C179.086 34.2917 179.613 35.178 179.991 36.2159C180.378 37.2538 180.571 38.4205 180.571 39.7159V40.5795H166.753V39.3182H179.185C179.185 38.053 178.927 36.9129 178.412 35.8977C177.897 34.8826 177.196 34.0758 176.31 33.4773C175.423 32.8788 174.427 32.5795 173.321 32.5795C172.162 32.5795 171.128 32.9053 170.219 33.5568C169.317 34.2008 168.601 35.072 168.071 36.1705C167.548 37.2689 167.276 38.4962 167.253 39.8523V40.4205C167.253 41.875 167.507 43.1818 168.014 44.3409C168.529 45.4924 169.264 46.4053 170.219 47.0795C171.173 47.7462 172.317 48.0795 173.651 48.0795C174.605 48.0795 175.42 47.9205 176.094 47.6023C176.776 47.2765 177.332 46.8826 177.764 46.4205C178.196 45.9583 178.522 45.5114 178.741 45.0795L180.003 45.5909C179.738 46.1742 179.325 46.7576 178.764 47.3409C178.211 47.9167 177.507 48.3977 176.651 48.7841C175.802 49.1705 174.802 49.3636 173.651 49.3636ZM196.435 35.3068L195.151 35.6477C194.946 35.0114 194.654 34.4621 194.276 34C193.897 33.5379 193.42 33.1818 192.844 32.9318C192.276 32.6742 191.594 32.5455 190.798 32.5455C189.518 32.5455 188.469 32.8636 187.651 33.5C186.84 34.1364 186.435 34.9659 186.435 35.9886C186.435 36.822 186.711 37.5114 187.264 38.0568C187.817 38.5947 188.662 39.0038 189.798 39.2841L192.48 39.9545C193.859 40.2955 194.897 40.8485 195.594 41.6136C196.291 42.3712 196.639 43.3144 196.639 44.4432C196.639 45.4053 196.378 46.2576 195.855 47C195.332 47.7424 194.609 48.322 193.685 48.7386C192.768 49.1553 191.7 49.3636 190.48 49.3636C188.851 49.3636 187.514 48.9848 186.469 48.2273C185.423 47.4621 184.753 46.3674 184.457 44.9432L185.787 44.6023C186.037 45.7386 186.556 46.6061 187.344 47.2045C188.139 47.7955 189.181 48.0909 190.469 48.0909C191.893 48.0909 193.041 47.7538 193.912 47.0795C194.791 46.4053 195.23 45.5417 195.23 44.4886C195.23 43.6856 194.973 43.0076 194.457 42.4545C193.942 41.9015 193.162 41.4962 192.116 41.2386L189.332 40.5568C187.908 40.2083 186.84 39.6515 186.128 38.8864C185.416 38.1136 185.06 37.1629 185.06 36.0341C185.06 35.0947 185.306 34.2689 185.798 33.5568C186.291 32.8447 186.969 32.2879 187.832 31.8864C188.696 31.4848 189.685 31.2841 190.798 31.2841C192.276 31.2841 193.48 31.6326 194.412 32.3295C195.344 33.0265 196.018 34.0189 196.435 35.3068ZM208.597 49.3182C207.218 49.3182 205.987 49.0568 204.903 48.5341C203.82 48.0038 202.96 47.2803 202.324 46.3636C201.695 45.4394 201.369 44.3788 201.347 43.1818H202.79C202.813 44.1288 203.081 44.9659 203.597 45.6932C204.112 46.4129 204.801 46.9773 205.665 47.3864C206.536 47.7955 207.506 48 208.574 48C209.733 48 210.748 47.7727 211.619 47.3182C212.498 46.8636 213.184 46.25 213.676 45.4773C214.169 44.697 214.415 43.8258 214.415 42.8636C214.415 41.8333 214.146 40.9318 213.608 40.1591C213.07 39.3788 212.32 38.7727 211.358 38.3409C210.396 37.9015 209.278 37.6818 208.006 37.6818H207.142V36.3636H208.006C209.089 36.3636 210.059 36.1667 210.915 35.7727C211.771 35.3712 212.445 34.8068 212.938 34.0795C213.438 33.3523 213.688 32.4924 213.688 31.5C213.688 30.5682 213.472 29.7424 213.04 29.0227C212.608 28.303 212.009 27.7386 211.244 27.3295C210.487 26.9205 209.597 26.7159 208.574 26.7159C207.589 26.7159 206.695 26.9167 205.892 27.3182C205.097 27.7197 204.464 28.2841 203.994 29.0114C203.525 29.7386 203.286 30.5833 203.278 31.5455H201.881C201.896 30.3409 202.199 29.2765 202.79 28.3523C203.388 27.428 204.188 26.7083 205.188 26.1932C206.195 25.6705 207.331 25.4091 208.597 25.4091C209.884 25.4091 211.013 25.678 211.983 26.2159C212.96 26.7538 213.718 27.4811 214.256 28.3977C214.801 29.3144 215.074 30.3333 215.074 31.4545C215.074 32.803 214.699 33.9583 213.949 34.9205C213.206 35.875 212.199 36.5379 210.926 36.9091V37.0341C212.434 37.3674 213.627 38.053 214.506 39.0909C215.384 40.1288 215.824 41.3864 215.824 42.8636C215.824 44.0758 215.513 45.1705 214.892 46.1477C214.271 47.125 213.415 47.8977 212.324 48.4659C211.241 49.0341 209.998 49.3182 208.597 49.3182ZM228.153 49.3182C227.176 49.3106 226.248 49.1023 225.369 48.6932C224.491 48.2765 223.71 47.6326 223.028 46.7614C222.354 45.8826 221.82 44.7538 221.426 43.375C221.04 41.9886 220.847 40.3295 220.847 38.3977C220.847 36.6629 220.983 35.0152 221.256 33.4545C221.536 31.8939 221.975 30.5114 222.574 29.3068C223.172 28.0947 223.953 27.1439 224.915 26.4545C225.884 25.7576 227.055 25.4091 228.426 25.4091C229.623 25.4091 230.676 25.6705 231.585 26.1932C232.502 26.7083 233.233 27.428 233.778 28.3523C234.324 29.2689 234.653 30.3333 234.767 31.5455H233.358C233.199 30.1288 232.691 28.9735 231.835 28.0795C230.987 27.178 229.85 26.7273 228.426 26.7273C226.411 26.7273 224.869 27.7121 223.801 29.6818C222.741 31.6515 222.21 34.4697 222.21 38.1364H222.335C222.638 37.4091 223.085 36.7689 223.676 36.2159C224.275 35.6553 224.964 35.2197 225.744 34.9091C226.525 34.5985 227.347 34.4432 228.21 34.4432C229.468 34.4432 230.616 34.7652 231.653 35.4091C232.699 36.053 233.536 36.9356 234.165 38.0568C234.794 39.178 235.108 40.447 235.108 41.8636C235.108 43.2045 234.816 44.4432 234.233 45.5795C233.65 46.7083 232.835 47.6174 231.79 48.3068C230.752 48.9886 229.54 49.3258 228.153 49.3182ZM228.153 48C229.214 48 230.161 47.7235 230.994 47.1705C231.835 46.6174 232.498 45.8788 232.983 44.9545C233.468 44.0227 233.71 42.9924 233.71 41.8636C233.71 40.7273 233.46 39.697 232.96 38.7727C232.46 37.8485 231.782 37.1174 230.926 36.5795C230.078 36.0341 229.123 35.7614 228.062 35.7614C227.229 35.7614 226.456 35.9318 225.744 36.2727C225.032 36.6061 224.419 37.0682 223.903 37.6591C223.396 38.25 223.021 38.928 222.778 39.6932C222.544 40.4508 222.479 41.25 222.585 42.0909C222.759 43.3106 223.1 44.3636 223.608 45.25C224.123 46.1288 224.767 46.8068 225.54 47.2841C226.32 47.7614 227.191 48 228.153 48ZM246.634 49.3182C245.391 49.3182 244.281 49.0568 243.304 48.5341C242.334 48.0038 241.565 47.2765 240.997 46.3523C240.437 45.428 240.149 44.3712 240.134 43.1818H241.531C241.562 44.5909 242.05 45.7462 242.997 46.6477C243.944 47.5492 245.156 48 246.634 48C247.77 48 248.77 47.7273 249.634 47.1818C250.505 46.6288 251.187 45.8788 251.679 44.9318C252.171 43.9848 252.414 42.9167 252.406 41.7273C252.406 40.4697 252.141 39.3712 251.611 38.4318C251.08 37.4924 250.372 36.7652 249.486 36.25C248.599 35.7348 247.618 35.4735 246.543 35.4659C245.694 35.4659 244.899 35.6212 244.156 35.9318C243.414 36.2348 242.781 36.625 242.259 37.1023L240.656 36.875L242.031 25.7273H252.94V27.0455H243.247L242.179 35.7614H242.293C242.838 35.2765 243.486 34.8864 244.236 34.5909C244.993 34.2879 245.815 34.1364 246.702 34.1364C248.005 34.1364 249.194 34.4545 250.27 35.0909C251.353 35.7273 252.213 36.6136 252.849 37.75C253.493 38.8864 253.812 40.2083 253.804 41.7159C253.796 43.1705 253.486 44.4697 252.872 45.6136C252.259 46.7576 251.41 47.6629 250.327 48.3295C249.251 48.9886 248.02 49.3182 246.634 49.3182Z" fill="#3D3D3A"/>
<path d="M65 186C65 67.0965 298.5 39.9168 298.5 226" stroke="#3D3D3A" stroke-width="13" stroke-linecap="round"/>
<path d="M80.5 185.999C80.5 110.152 200.5 105.799 200.5 224.5" stroke="#3D3D3A" stroke-width="13" stroke-linecap="round"/>
<path d="M160 185C160 109.152 281.5 107.299 281.5 226" stroke="#3D3D3A" stroke-width="13" stroke-linecap="round"/>
<line x1="115.219" y1="241.334" x2="122.968" y2="241.334" stroke="#3D3D3A" stroke-width="13" stroke-linecap="round"/>
<line x1="196.274" y1="241.334" x2="204.023" y2="241.334" stroke="#3D3D3A" stroke-width="13" stroke-linecap="round"/>
<rect x="58.0693" y="201.496" width="40.6427" height="85.3589" rx="10.1905" fill="white" stroke="#3D3D3A" stroke-width="13"/>
<rect x="139.372" y="201.496" width="40.6427" height="85.3589" rx="10.1905" fill="white" stroke="#3D3D3A" stroke-width="13"/>
<rect x="220.673" y="201.496" width="40.6427" height="85.3589" rx="10.1905" fill="white" stroke="#3D3D3A" stroke-width="13"/>
<line x1="277.502" y1="241.507" x2="301.498" y2="241.5" stroke="#3D3D3A" stroke-width="13" stroke-linecap="round"/>
</svg>
