<svg width="358" height="448" viewBox="0 0 358 448" fill="none" xmlns="http://www.w3.org/2000/svg">
<rect x="2.25" y="2.25" width="353.5" height="443.5" rx="69.75" fill="white"/>
<rect x="2.25" y="2.25" width="353.5" height="443.5" rx="69.75" stroke="#DDDDDD" stroke-width="4.5"/>
<path d="M40.8743 354.312H29.0447V319.403H41.1129C44.5788 319.403 47.5561 320.102 50.0447 321.5C52.5447 322.886 54.4652 324.881 55.8061 327.483C57.147 330.085 57.8175 333.199 57.8175 336.824C57.8175 340.46 57.1413 343.585 55.7891 346.199C54.4482 348.812 52.5107 350.818 49.9766 352.216C47.4538 353.614 44.4197 354.312 40.8743 354.312ZM35.3686 348.841H40.5675C42.9993 348.841 45.0277 348.398 46.6527 347.511C48.2777 346.614 49.4993 345.278 50.3175 343.506C51.1357 341.722 51.5447 339.494 51.5447 336.824C51.5447 334.153 51.1357 331.937 50.3175 330.176C49.4993 328.403 48.2891 327.08 46.6868 326.205C45.0959 325.318 43.1186 324.875 40.755 324.875H35.3686V348.841ZM75.1442 354.824C72.5192 354.824 70.2521 354.278 68.343 353.188C66.4453 352.085 64.9851 350.528 63.9624 348.517C62.9396 346.494 62.4283 344.114 62.4283 341.375C62.4283 338.682 62.9396 336.318 63.9624 334.284C64.9964 332.239 66.4396 330.648 68.2919 329.511C70.1442 328.364 72.3203 327.79 74.8203 327.79C76.4339 327.79 77.9567 328.051 79.3885 328.574C80.8317 329.085 82.1044 329.881 83.2067 330.96C84.3203 332.04 85.1953 333.415 85.8317 335.085C86.468 336.744 86.7862 338.722 86.7862 341.017V342.909H65.326V338.75H80.8714C80.8601 337.568 80.6044 336.517 80.1044 335.597C79.6044 334.665 78.9055 333.932 78.0078 333.398C77.1214 332.864 76.0874 332.597 74.9055 332.597C73.6442 332.597 72.5362 332.903 71.5817 333.517C70.6271 334.119 69.8828 334.915 69.3487 335.903C68.826 336.881 68.5589 337.955 68.5476 339.125V342.756C68.5476 344.278 68.826 345.585 69.3828 346.676C69.9396 347.756 70.718 348.585 71.718 349.165C72.718 349.733 73.8885 350.017 75.2294 350.017C76.1271 350.017 76.9396 349.892 77.6669 349.642C78.3942 349.381 79.0249 349 79.5589 348.5C80.093 348 80.4964 347.381 80.7692 346.642L86.5305 347.29C86.1669 348.812 85.4737 350.142 84.451 351.278C83.4396 352.403 82.1442 353.278 80.5646 353.903C78.9851 354.517 77.1783 354.824 75.1442 354.824ZM98.1768 338.972V354.312H92.0064V328.131H97.9041V332.58H98.2109C98.8132 331.114 99.7734 329.949 101.092 329.085C102.421 328.222 104.063 327.79 106.018 327.79C107.825 327.79 109.398 328.176 110.739 328.949C112.092 329.722 113.137 330.841 113.876 332.307C114.626 333.773 114.995 335.551 114.984 337.642V354.312H108.813V338.597C108.813 336.847 108.359 335.477 107.45 334.489C106.552 333.5 105.308 333.006 103.717 333.006C102.637 333.006 101.677 333.244 100.836 333.722C100.006 334.187 99.353 334.864 98.8757 335.75C98.4098 336.636 98.1768 337.71 98.1768 338.972ZM141.95 335.051L136.325 335.665C136.165 335.097 135.887 334.562 135.489 334.062C135.103 333.562 134.58 333.159 133.921 332.852C133.262 332.545 132.455 332.392 131.501 332.392C130.217 332.392 129.137 332.67 128.262 333.227C127.398 333.784 126.972 334.506 126.984 335.392C126.972 336.153 127.251 336.773 127.819 337.25C128.398 337.727 129.353 338.119 130.683 338.426L135.148 339.381C137.626 339.915 139.467 340.761 140.671 341.92C141.887 343.08 142.501 344.597 142.512 346.472C142.501 348.119 142.018 349.574 141.063 350.835C140.12 352.085 138.808 353.062 137.126 353.767C135.444 354.472 133.512 354.824 131.33 354.824C128.126 354.824 125.546 354.153 123.592 352.812C121.637 351.46 120.472 349.58 120.097 347.17L126.114 346.591C126.387 347.773 126.967 348.665 127.853 349.267C128.739 349.869 129.893 350.17 131.313 350.17C132.779 350.17 133.955 349.869 134.842 349.267C135.739 348.665 136.188 347.92 136.188 347.034C136.188 346.284 135.898 345.665 135.319 345.176C134.751 344.687 133.864 344.312 132.66 344.051L128.194 343.114C125.683 342.591 123.825 341.71 122.62 340.472C121.415 339.222 120.819 337.642 120.83 335.733C120.819 334.119 121.256 332.722 122.143 331.54C123.04 330.347 124.285 329.426 125.876 328.778C127.478 328.119 129.325 327.79 131.415 327.79C134.484 327.79 136.898 328.443 138.66 329.75C140.433 331.057 141.529 332.824 141.95 335.051ZM159.191 354.824C156.566 354.824 154.299 354.278 152.39 353.188C150.492 352.085 149.032 350.528 148.009 348.517C146.987 346.494 146.475 344.114 146.475 341.375C146.475 338.682 146.987 336.318 148.009 334.284C149.043 332.239 150.487 330.648 152.339 329.511C154.191 328.364 156.367 327.79 158.867 327.79C160.481 327.79 162.004 328.051 163.435 328.574C164.879 329.085 166.151 329.881 167.254 330.96C168.367 332.04 169.242 333.415 169.879 335.085C170.515 336.744 170.833 338.722 170.833 341.017V342.909H149.373V338.75H164.918C164.907 337.568 164.651 336.517 164.151 335.597C163.651 334.665 162.952 333.932 162.055 333.398C161.168 332.864 160.134 332.597 158.952 332.597C157.691 332.597 156.583 332.903 155.629 333.517C154.674 334.119 153.93 334.915 153.396 335.903C152.873 336.881 152.606 337.955 152.594 339.125V342.756C152.594 344.278 152.873 345.585 153.43 346.676C153.987 347.756 154.765 348.585 155.765 349.165C156.765 349.733 157.935 350.017 159.276 350.017C160.174 350.017 160.987 349.892 161.714 349.642C162.441 349.381 163.072 349 163.606 348.5C164.14 348 164.543 347.381 164.816 346.642L170.577 347.29C170.214 348.812 169.521 350.142 168.498 351.278C167.487 352.403 166.191 353.278 164.612 353.903C163.032 354.517 161.225 354.824 159.191 354.824ZM205.013 319.403V354.312H199.388L182.94 330.534H182.65V354.312H176.326V319.403H181.985L198.417 343.199H198.724V319.403H205.013ZM223.222 354.824C220.597 354.824 218.33 354.278 216.421 353.188C214.523 352.085 213.063 350.528 212.04 348.517C211.018 346.494 210.506 344.114 210.506 341.375C210.506 338.682 211.018 336.318 212.04 334.284C213.075 332.239 214.518 330.648 216.37 329.511C218.222 328.364 220.398 327.79 222.898 327.79C224.512 327.79 226.035 328.051 227.467 328.574C228.91 329.085 230.183 329.881 231.285 330.96C232.398 332.04 233.273 333.415 233.91 335.085C234.546 336.744 234.864 338.722 234.864 341.017V342.909H213.404V338.75H228.95C228.938 337.568 228.683 336.517 228.183 335.597C227.683 334.665 226.984 333.932 226.086 333.398C225.2 332.864 224.165 332.597 222.984 332.597C221.722 332.597 220.614 332.903 219.66 333.517C218.705 334.119 217.961 334.915 217.427 335.903C216.904 336.881 216.637 337.955 216.626 339.125V342.756C216.626 344.278 216.904 345.585 217.461 346.676C218.018 347.756 218.796 348.585 219.796 349.165C220.796 349.733 221.967 350.017 223.308 350.017C224.205 350.017 225.018 349.892 225.745 349.642C226.472 349.381 227.103 349 227.637 348.5C228.171 348 228.575 347.381 228.847 346.642L234.609 347.29C234.245 348.812 233.552 350.142 232.529 351.278C231.518 352.403 230.222 353.278 228.643 353.903C227.063 354.517 225.256 354.824 223.222 354.824ZM253.158 328.131V332.903H238.107V328.131H253.158ZM241.823 321.858H247.994V346.438C247.994 347.267 248.119 347.903 248.369 348.347C248.63 348.778 248.971 349.074 249.391 349.233C249.812 349.392 250.278 349.472 250.789 349.472C251.175 349.472 251.528 349.443 251.846 349.386C252.175 349.33 252.425 349.278 252.596 349.233L253.636 354.057C253.306 354.17 252.835 354.295 252.221 354.432C251.619 354.568 250.88 354.648 250.005 354.67C248.46 354.716 247.067 354.483 245.829 353.972C244.59 353.449 243.607 352.642 242.88 351.551C242.164 350.46 241.812 349.097 241.823 347.46V321.858ZM272.45 319.403V354.312H266.126V325.557H265.921L257.756 330.773V324.977L266.433 319.403H272.45ZM294.097 354.79C292.427 354.778 290.796 354.489 289.205 353.92C287.614 353.341 286.183 352.403 284.91 351.108C283.637 349.801 282.626 348.068 281.876 345.909C281.126 343.739 280.756 341.051 280.768 337.847C280.768 334.858 281.086 332.193 281.722 329.852C282.359 327.511 283.273 325.534 284.467 323.92C285.66 322.295 287.097 321.057 288.779 320.205C290.472 319.352 292.364 318.926 294.455 318.926C296.648 318.926 298.592 319.358 300.285 320.222C301.989 321.085 303.364 322.267 304.41 323.767C305.455 325.256 306.103 326.938 306.353 328.812H300.131C299.813 327.472 299.16 326.403 298.171 325.608C297.194 324.801 295.955 324.398 294.455 324.398C292.035 324.398 290.171 325.449 288.864 327.551C287.569 329.653 286.915 332.54 286.904 336.21H287.143C287.7 335.21 288.421 334.352 289.308 333.636C290.194 332.92 291.194 332.369 292.308 331.983C293.433 331.585 294.62 331.386 295.87 331.386C297.915 331.386 299.751 331.875 301.376 332.852C303.012 333.83 304.308 335.176 305.262 336.892C306.217 338.597 306.688 340.551 306.677 342.756C306.688 345.051 306.165 347.114 305.109 348.943C304.052 350.761 302.58 352.193 300.694 353.239C298.808 354.284 296.609 354.801 294.097 354.79ZM294.063 349.676C295.302 349.676 296.41 349.375 297.387 348.773C298.364 348.17 299.137 347.358 299.705 346.335C300.273 345.312 300.552 344.165 300.54 342.892C300.552 341.642 300.279 340.511 299.722 339.5C299.177 338.489 298.421 337.687 297.455 337.097C296.489 336.506 295.387 336.21 294.148 336.21C293.228 336.21 292.37 336.386 291.575 336.739C290.779 337.091 290.086 337.58 289.495 338.205C288.904 338.818 288.438 339.534 288.097 340.352C287.768 341.159 287.597 342.023 287.586 342.943C287.597 344.159 287.881 345.278 288.438 346.301C288.995 347.324 289.762 348.142 290.739 348.756C291.717 349.369 292.825 349.676 294.063 349.676ZM326.637 319.403V354.312H320.313V325.557H320.109L311.944 330.773V324.977L320.62 319.403H326.637ZM103.747 393.312V370.04H111.259C112.91 370.04 114.289 370.358 115.395 370.994C116.509 371.623 117.346 372.479 117.906 373.562C118.474 374.646 118.759 375.866 118.759 377.222C118.759 378.578 118.478 379.801 117.918 380.892C117.357 381.975 116.524 382.835 115.418 383.472C114.312 384.1 112.937 384.415 111.293 384.415H105.384V382.506H111.236C112.455 382.506 113.467 382.278 114.27 381.824C115.073 381.362 115.671 380.733 116.065 379.938C116.467 379.142 116.668 378.237 116.668 377.222C116.668 376.206 116.467 375.301 116.065 374.506C115.671 373.71 115.069 373.085 114.259 372.631C113.455 372.176 112.437 371.949 111.202 371.949H105.872V393.312H103.747ZM125.349 370.04V393.312H123.327V370.04H125.349ZM135.577 393.71C134.524 393.71 133.562 393.506 132.69 393.097C131.819 392.68 131.126 392.081 130.611 391.301C130.096 390.513 129.838 389.559 129.838 388.438C129.838 387.574 130.001 386.847 130.327 386.256C130.652 385.665 131.115 385.18 131.713 384.801C132.312 384.422 133.02 384.123 133.838 383.903C134.656 383.684 135.558 383.513 136.543 383.392C137.52 383.271 138.346 383.165 139.02 383.074C139.702 382.983 140.221 382.839 140.577 382.642C140.933 382.445 141.111 382.127 141.111 381.688V381.278C141.111 380.089 140.755 379.153 140.043 378.472C139.338 377.782 138.323 377.438 136.997 377.438C135.74 377.438 134.713 377.714 133.918 378.267C133.13 378.82 132.577 379.472 132.259 380.222L130.338 379.528C130.732 378.574 131.277 377.812 131.974 377.244C132.671 376.669 133.452 376.256 134.315 376.006C135.179 375.748 136.054 375.619 136.94 375.619C137.607 375.619 138.3 375.706 139.02 375.881C139.747 376.055 140.421 376.358 141.043 376.79C141.664 377.214 142.168 377.809 142.554 378.574C142.94 379.331 143.134 380.294 143.134 381.46V393.312H141.111V390.551H140.986C140.743 391.066 140.384 391.566 139.906 392.051C139.429 392.536 138.83 392.934 138.111 393.244C137.391 393.555 136.546 393.71 135.577 393.71ZM135.849 391.858C136.925 391.858 137.857 391.619 138.645 391.142C139.433 390.665 140.039 390.032 140.463 389.244C140.895 388.449 141.111 387.574 141.111 386.619V384.097C140.959 384.241 140.705 384.369 140.349 384.483C140.001 384.597 139.596 384.699 139.134 384.79C138.679 384.873 138.224 384.945 137.77 385.006C137.315 385.066 136.906 385.119 136.543 385.165C135.558 385.286 134.717 385.475 134.02 385.733C133.323 385.991 132.789 386.347 132.418 386.801C132.046 387.248 131.861 387.824 131.861 388.528C131.861 389.589 132.24 390.411 132.997 390.994C133.755 391.57 134.705 391.858 135.849 391.858ZM155.332 393.676C153.772 393.676 152.412 393.286 151.253 392.506C150.101 391.725 149.207 390.657 148.571 389.301C147.935 387.945 147.616 386.4 147.616 384.665C147.616 382.915 147.938 381.358 148.582 379.994C149.234 378.631 150.135 377.562 151.287 376.79C152.438 376.009 153.776 375.619 155.298 375.619C156.465 375.619 157.522 375.847 158.469 376.301C159.416 376.748 160.196 377.381 160.81 378.199C161.431 379.009 161.821 379.956 161.98 381.04H159.935C159.723 380.055 159.211 379.214 158.401 378.517C157.598 377.812 156.575 377.46 155.332 377.46C154.219 377.46 153.234 377.763 152.378 378.369C151.522 378.968 150.851 379.805 150.366 380.881C149.889 381.949 149.651 383.187 149.651 384.597C149.651 386.013 149.885 387.267 150.355 388.358C150.825 389.441 151.484 390.29 152.332 390.903C153.188 391.517 154.188 391.824 155.332 391.824C156.105 391.824 156.81 391.68 157.446 391.392C158.09 391.097 158.628 390.68 159.06 390.142C159.499 389.604 159.795 388.964 159.946 388.222H161.991C161.84 389.275 161.465 390.214 160.866 391.04C160.276 391.858 159.507 392.502 158.56 392.972C157.62 393.441 156.545 393.676 155.332 393.676ZM173.384 393.676C171.755 393.676 170.346 393.297 169.156 392.54C167.967 391.775 167.046 390.718 166.395 389.369C165.751 388.013 165.429 386.453 165.429 384.688C165.429 382.93 165.751 381.369 166.395 380.006C167.046 378.634 167.944 377.562 169.088 376.79C170.24 376.009 171.569 375.619 173.077 375.619C174.024 375.619 174.937 375.794 175.815 376.142C176.694 376.483 177.482 377.009 178.179 377.722C178.884 378.426 179.44 379.316 179.849 380.392C180.259 381.46 180.463 382.725 180.463 384.188V385.188H166.827V383.403H178.395C178.395 382.282 178.168 381.275 177.713 380.381C177.266 379.479 176.641 378.767 175.838 378.244C175.043 377.722 174.122 377.46 173.077 377.46C171.971 377.46 170.997 377.756 170.156 378.347C169.315 378.937 168.656 379.718 168.179 380.688C167.709 381.657 167.471 382.718 167.463 383.869V384.938C167.463 386.324 167.702 387.536 168.179 388.574C168.664 389.604 169.349 390.403 170.236 390.972C171.122 391.54 172.171 391.824 173.384 391.824C174.209 391.824 174.933 391.695 175.554 391.438C176.183 391.18 176.709 390.835 177.134 390.403C177.565 389.964 177.891 389.483 178.111 388.96L180.031 389.585C179.766 390.32 179.33 390.998 178.724 391.619C178.126 392.241 177.376 392.741 176.474 393.119C175.58 393.491 174.55 393.676 173.384 393.676ZM196.648 379.688L194.795 380.21C194.614 379.687 194.356 379.214 194.023 378.79C193.689 378.366 193.254 378.028 192.716 377.778C192.186 377.528 191.527 377.403 190.739 377.403C189.557 377.403 188.587 377.684 187.83 378.244C187.072 378.805 186.693 379.528 186.693 380.415C186.693 381.165 186.951 381.775 187.466 382.244C187.989 382.706 188.792 383.074 189.875 383.347L192.511 383.994C193.973 384.35 195.068 384.915 195.795 385.688C196.53 386.46 196.898 387.43 196.898 388.597C196.898 389.581 196.625 390.456 196.08 391.222C195.534 391.987 194.773 392.589 193.795 393.028C192.826 393.46 191.701 393.676 190.42 393.676C188.716 393.676 187.311 393.294 186.205 392.528C185.098 391.756 184.39 390.642 184.08 389.188L186.023 388.71C186.273 389.748 186.761 390.532 187.489 391.062C188.223 391.593 189.189 391.858 190.386 391.858C191.727 391.858 192.799 391.559 193.602 390.96C194.405 390.354 194.807 389.597 194.807 388.688C194.807 387.983 194.572 387.392 194.102 386.915C193.633 386.43 192.92 386.074 191.966 385.847L189.114 385.165C187.598 384.801 186.477 384.225 185.75 383.438C185.023 382.65 184.659 381.672 184.659 380.506C184.659 379.544 184.92 378.699 185.443 377.972C185.966 377.237 186.686 376.661 187.602 376.244C188.519 375.828 189.564 375.619 190.739 375.619C192.337 375.619 193.614 375.983 194.568 376.71C195.53 377.43 196.223 378.422 196.648 379.688ZM208.804 393.631C207.372 393.631 206.092 393.373 204.963 392.858C203.834 392.335 202.94 391.612 202.281 390.688C201.622 389.763 201.274 388.699 201.236 387.494H203.384C203.421 388.343 203.683 389.085 204.168 389.722C204.652 390.35 205.296 390.843 206.099 391.199C206.902 391.547 207.796 391.722 208.781 391.722C209.857 391.722 210.804 391.521 211.622 391.119C212.448 390.718 213.092 390.169 213.554 389.472C214.024 388.767 214.259 387.972 214.259 387.085C214.259 386.146 214.02 385.316 213.543 384.597C213.065 383.877 212.38 383.316 211.486 382.915C210.599 382.513 209.539 382.312 208.304 382.312H206.94V380.403H208.304C209.312 380.403 210.202 380.222 210.974 379.858C211.755 379.487 212.368 378.968 212.815 378.301C213.262 377.634 213.486 376.85 213.486 375.949C213.486 375.093 213.293 374.339 212.906 373.688C212.52 373.036 211.974 372.525 211.27 372.153C210.573 371.782 209.759 371.597 208.827 371.597C207.925 371.597 207.099 371.771 206.349 372.119C205.599 372.468 204.993 372.96 204.531 373.597C204.077 374.233 203.834 374.987 203.804 375.858H201.747C201.777 374.646 202.111 373.581 202.747 372.665C203.391 371.741 204.243 371.021 205.304 370.506C206.372 369.983 207.554 369.722 208.849 369.722C210.221 369.722 211.406 370.002 212.406 370.562C213.406 371.123 214.179 371.869 214.724 372.801C215.277 373.725 215.554 374.744 215.554 375.858C215.554 377.184 215.194 378.32 214.474 379.267C213.755 380.206 212.785 380.858 211.565 381.222V381.369C213.05 381.665 214.217 382.324 215.065 383.347C215.921 384.362 216.349 385.608 216.349 387.085C216.349 388.328 216.024 389.445 215.372 390.438C214.721 391.422 213.827 392.203 212.69 392.778C211.562 393.347 210.266 393.631 208.804 393.631ZM228.702 393.631C227.74 393.623 226.8 393.43 225.884 393.051C224.967 392.665 224.141 392.047 223.406 391.199C222.671 390.343 222.088 389.214 221.656 387.812C221.224 386.411 221.009 384.687 221.009 382.642C221.009 380.748 221.175 379.013 221.509 377.438C221.842 375.862 222.342 374.498 223.009 373.347C223.675 372.195 224.509 371.305 225.509 370.676C226.509 370.04 227.679 369.722 229.02 369.722C230.277 369.722 231.387 369.983 232.349 370.506C233.312 371.021 234.092 371.741 234.69 372.665C235.289 373.589 235.664 374.653 235.815 375.858H233.724C233.512 374.631 233.009 373.619 232.213 372.824C231.418 372.028 230.353 371.631 229.02 371.631C227.111 371.631 225.634 372.517 224.588 374.29C223.543 376.055 223.016 378.562 223.009 381.812H223.156C223.527 381.123 224.005 380.528 224.588 380.028C225.179 379.521 225.849 379.127 226.599 378.847C227.349 378.559 228.137 378.415 228.963 378.415C230.259 378.415 231.444 378.744 232.52 379.403C233.596 380.055 234.455 380.953 235.099 382.097C235.743 383.233 236.065 384.532 236.065 385.994C236.065 387.381 235.759 388.657 235.145 389.824C234.539 390.991 233.683 391.919 232.577 392.608C231.478 393.297 230.187 393.638 228.702 393.631ZM228.702 391.722C229.717 391.722 230.622 391.464 231.418 390.949C232.221 390.434 232.853 389.744 233.315 388.881C233.777 388.009 234.009 387.047 234.009 385.994C234.009 384.941 233.777 383.987 233.315 383.131C232.853 382.275 232.221 381.593 231.418 381.085C230.622 380.578 229.717 380.324 228.702 380.324C227.929 380.324 227.209 380.483 226.543 380.801C225.876 381.112 225.296 381.54 224.804 382.085C224.319 382.623 223.948 383.241 223.69 383.938C223.44 384.634 223.346 385.366 223.406 386.131C223.49 387.199 223.766 388.157 224.236 389.006C224.713 389.847 225.334 390.509 226.099 390.994C226.872 391.479 227.74 391.722 228.702 391.722ZM247.679 393.631C246.384 393.631 245.224 393.369 244.202 392.847C243.187 392.316 242.376 391.589 241.77 390.665C241.171 389.741 240.853 388.684 240.815 387.494H242.872C242.94 388.729 243.425 389.744 244.327 390.54C245.228 391.328 246.346 391.722 247.679 391.722C248.717 391.722 249.641 391.475 250.452 390.983C251.262 390.483 251.895 389.801 252.349 388.938C252.812 388.066 253.043 387.085 253.043 385.994C253.035 384.858 252.789 383.858 252.304 382.994C251.819 382.123 251.16 381.441 250.327 380.949C249.501 380.456 248.573 380.21 247.543 380.21C246.762 380.203 245.997 380.331 245.247 380.597C244.497 380.862 243.872 381.203 243.372 381.619L241.247 381.347L242.645 370.04H254.145V371.949H244.429L243.497 379.733H243.611C244.126 379.301 244.751 378.949 245.486 378.676C246.228 378.403 247.012 378.267 247.838 378.267C249.209 378.267 250.44 378.597 251.531 379.256C252.63 379.915 253.497 380.824 254.134 381.983C254.777 383.134 255.099 384.46 255.099 385.96C255.099 387.43 254.777 388.744 254.134 389.903C253.497 391.055 252.618 391.964 251.497 392.631C250.384 393.297 249.111 393.631 247.679 393.631Z" fill="#3D3D3A"/>
<rect x="-5.84567" y="-3.375" width="51.2841" height="53.4432" rx="11.75" transform="matrix(0.866025 -0.5 2.20305e-08 1 68.7168 92.6568)" stroke="#3D3D3A" stroke-width="13.5"/>
<rect x="-5.84567" y="-3.375" width="51.2841" height="53.4432" rx="11.75" transform="matrix(0.866025 -0.5 2.20305e-08 1 84.7168 103.549)" fill="white" stroke="#3D3D3A" stroke-width="13.5"/>
<rect x="-5.84567" y="-3.375" width="51.2841" height="53.4432" rx="11.75" transform="matrix(0.866025 -0.5 2.20305e-08 1 100.717 117.549)" fill="white" stroke="#3D3D3A" stroke-width="13.5"/>
<line x1="121.882" y1="133.928" x2="148.741" y2="152.305" stroke="#3D3D3A" stroke-width="13.5" stroke-linecap="round"/>
<rect x="-5.84567" y="-3.375" width="51.2841" height="53.4432" rx="11.75" transform="matrix(0.866025 -0.5 2.20305e-08 1 146.717 143.657)" fill="#FFFDFD" stroke="#3D3D3A" stroke-width="13.5"/>
<rect x="-5.84567" y="-3.375" width="51.2841" height="53.4432" rx="11.75" transform="matrix(0.866025 -0.5 2.20305e-08 1 162.717 154.549)" fill="white" stroke="#3D3D3A" stroke-width="13.5"/>
<rect x="-5.84567" y="-3.375" width="51.2841" height="53.4432" rx="11.75" transform="matrix(0.866025 -0.5 2.20305e-08 1 178.717 168.549)" fill="white" stroke="#3D3D3A" stroke-width="13.5"/>
<line x1="196.882" y1="184.928" x2="223.741" y2="203.305" stroke="#3D3D3A" stroke-width="13.5" stroke-linecap="round"/>
<path d="M122.5 133.688C236.1 -3.11238 248.833 126.188 233 203.188" stroke="#3D3D3A" stroke-width="13.5" stroke-linecap="round"/>
<rect x="-5.84567" y="-3.375" width="51.2841" height="53.4432" rx="11.75" transform="matrix(0.866025 -0.5 2.20305e-08 1 224.717 195.657)" fill="#FFFDFD" stroke="#3D3D3A" stroke-width="13.5"/>
<rect x="-5.84567" y="-3.375" width="51.2841" height="53.4432" rx="11.75" transform="matrix(0.866025 -0.5 2.20305e-08 1 240.717 206.549)" fill="white" stroke="#3D3D3A" stroke-width="13.5"/>
<rect x="-5.84567" y="-3.375" width="51.2841" height="53.4432" rx="11.75" transform="matrix(0.866025 -0.5 2.20305e-08 1 256.717 220.549)" fill="white" stroke="#3D3D3A" stroke-width="13.5"/>
</svg>
