<svg width="358" height="448" viewBox="0 0 358 448" fill="none" xmlns="http://www.w3.org/2000/svg">
<rect x="2.25" y="2.25" width="353.5" height="443.5" rx="69.75" fill="white"/>
<rect x="2.25" y="2.25" width="353.5" height="443.5" rx="69.75" stroke="#DDDDDD" stroke-width="4.5"/>
<path d="M71.4666 380V345.091H84.5575C87.2393 345.091 89.4893 345.557 91.3075 346.489C93.1371 347.42 94.5178 348.727 95.4496 350.409C96.3928 352.08 96.8643 354.028 96.8643 356.256C96.8643 358.494 96.3871 360.437 95.4325 362.085C94.4893 363.722 93.0973 364.989 91.2564 365.886C89.4155 366.773 87.1541 367.216 84.4723 367.216H75.1484V361.966H83.62C85.1882 361.966 86.4723 361.75 87.4723 361.318C88.4723 360.875 89.2109 360.233 89.6882 359.392C90.1768 358.54 90.4212 357.494 90.4212 356.256C90.4212 355.017 90.1768 353.96 89.6882 353.085C89.1996 352.199 88.4553 351.528 87.4553 351.074C86.4553 350.608 85.1655 350.375 83.5859 350.375H77.7905V380H71.4666ZM89.5007 364.182L98.1428 380H91.0859L82.5973 364.182H89.5007ZM113.629 380.511C111.004 380.511 108.737 379.966 106.827 378.875C104.93 377.773 103.469 376.216 102.447 374.205C101.424 372.182 100.913 369.801 100.913 367.062C100.913 364.369 101.424 362.006 102.447 359.972C103.481 357.926 104.924 356.335 106.776 355.199C108.629 354.051 110.805 353.477 113.305 353.477C114.918 353.477 116.441 353.739 117.873 354.261C119.316 354.773 120.589 355.568 121.691 356.648C122.805 357.727 123.68 359.102 124.316 360.773C124.952 362.432 125.271 364.409 125.271 366.705V368.597H103.81V364.438H119.356C119.344 363.256 119.089 362.205 118.589 361.284C118.089 360.352 117.39 359.619 116.492 359.085C115.606 358.551 114.572 358.284 113.39 358.284C112.129 358.284 111.021 358.591 110.066 359.205C109.112 359.807 108.367 360.602 107.833 361.591C107.31 362.568 107.043 363.642 107.032 364.812V368.443C107.032 369.966 107.31 371.273 107.867 372.364C108.424 373.443 109.202 374.273 110.202 374.852C111.202 375.42 112.373 375.705 113.714 375.705C114.612 375.705 115.424 375.58 116.151 375.33C116.879 375.068 117.509 374.688 118.043 374.188C118.577 373.688 118.981 373.068 119.254 372.33L125.015 372.977C124.651 374.5 123.958 375.83 122.935 376.966C121.924 378.091 120.629 378.966 119.049 379.591C117.469 380.205 115.663 380.511 113.629 380.511ZM151.184 360.739L145.559 361.352C145.4 360.784 145.121 360.25 144.724 359.75C144.337 359.25 143.815 358.847 143.156 358.54C142.496 358.233 141.69 358.08 140.735 358.08C139.451 358.08 138.371 358.358 137.496 358.915C136.633 359.472 136.207 360.193 136.218 361.08C136.207 361.841 136.485 362.46 137.053 362.938C137.633 363.415 138.587 363.807 139.917 364.114L144.383 365.068C146.86 365.602 148.701 366.449 149.906 367.608C151.121 368.767 151.735 370.284 151.746 372.159C151.735 373.807 151.252 375.261 150.298 376.523C149.354 377.773 148.042 378.75 146.36 379.455C144.678 380.159 142.746 380.511 140.565 380.511C137.36 380.511 134.781 379.841 132.826 378.5C130.871 377.148 129.707 375.267 129.332 372.858L135.349 372.278C135.621 373.46 136.201 374.352 137.087 374.955C137.974 375.557 139.127 375.858 140.548 375.858C142.013 375.858 143.19 375.557 144.076 374.955C144.974 374.352 145.423 373.608 145.423 372.722C145.423 371.972 145.133 371.352 144.553 370.864C143.985 370.375 143.099 370 141.894 369.739L137.428 368.801C134.917 368.278 133.059 367.398 131.854 366.159C130.65 364.909 130.053 363.33 130.065 361.42C130.053 359.807 130.491 358.409 131.377 357.227C132.275 356.034 133.519 355.114 135.11 354.466C136.712 353.807 138.559 353.477 140.65 353.477C143.718 353.477 146.133 354.131 147.894 355.438C149.667 356.744 150.763 358.511 151.184 360.739ZM185.795 345.091V380H180.17L163.721 356.222H163.431V380H157.107V345.091H162.766L179.198 368.886H179.505V345.091H185.795ZM204.004 380.511C201.379 380.511 199.112 379.966 197.202 378.875C195.305 377.773 193.844 376.216 192.822 374.205C191.799 372.182 191.288 369.801 191.288 367.062C191.288 364.369 191.799 362.006 192.822 359.972C193.856 357.926 195.299 356.335 197.151 355.199C199.004 354.051 201.18 353.477 203.68 353.477C205.293 353.477 206.816 353.739 208.248 354.261C209.691 354.773 210.964 355.568 212.066 356.648C213.18 357.727 214.055 359.102 214.691 360.773C215.327 362.432 215.646 364.409 215.646 366.705V368.597H194.185V364.438H209.731C209.719 363.256 209.464 362.205 208.964 361.284C208.464 360.352 207.765 359.619 206.867 359.085C205.981 358.551 204.947 358.284 203.765 358.284C202.504 358.284 201.396 358.591 200.441 359.205C199.487 359.807 198.742 360.602 198.208 361.591C197.685 362.568 197.418 363.642 197.407 364.812V368.443C197.407 369.966 197.685 371.273 198.242 372.364C198.799 373.443 199.577 374.273 200.577 374.852C201.577 375.42 202.748 375.705 204.089 375.705C204.987 375.705 205.799 375.58 206.526 375.33C207.254 375.068 207.884 374.688 208.418 374.188C208.952 373.688 209.356 373.068 209.629 372.33L215.39 372.977C215.026 374.5 214.333 375.83 213.31 376.966C212.299 378.091 211.004 378.966 209.424 379.591C207.844 380.205 206.038 380.511 204.004 380.511ZM233.94 353.818V358.591H218.888V353.818H233.94ZM222.604 347.545H228.775V372.125C228.775 372.955 228.9 373.591 229.15 374.034C229.411 374.466 229.752 374.761 230.173 374.92C230.593 375.08 231.059 375.159 231.57 375.159C231.957 375.159 232.309 375.131 232.627 375.074C232.957 375.017 233.207 374.966 233.377 374.92L234.417 379.744C234.087 379.858 233.616 379.983 233.002 380.119C232.4 380.256 231.661 380.335 230.786 380.358C229.241 380.403 227.849 380.17 226.61 379.659C225.371 379.136 224.388 378.33 223.661 377.239C222.945 376.148 222.593 374.784 222.604 373.148V347.545ZM253.231 345.091V380H246.907V351.244H246.702L238.538 356.46V350.665L247.214 345.091H253.231ZM274.504 380.477C271.969 380.477 269.719 380.051 267.754 379.199C265.799 378.347 264.265 377.182 263.151 375.705C262.049 374.216 261.504 372.528 261.515 370.642C261.504 369.176 261.822 367.83 262.469 366.602C263.117 365.375 263.992 364.352 265.094 363.534C266.208 362.705 267.447 362.176 268.81 361.949V361.71C267.015 361.312 265.56 360.398 264.447 358.966C263.344 357.523 262.799 355.858 262.81 353.972C262.799 352.176 263.299 350.574 264.31 349.165C265.322 347.756 266.708 346.648 268.469 345.841C270.231 345.023 272.242 344.614 274.504 344.614C276.742 344.614 278.737 345.023 280.487 345.841C282.248 346.648 283.634 347.756 284.646 349.165C285.668 350.574 286.18 352.176 286.18 353.972C286.18 355.858 285.617 357.523 284.492 358.966C283.379 360.398 281.941 361.312 280.18 361.71V361.949C281.543 362.176 282.771 362.705 283.862 363.534C284.964 364.352 285.839 365.375 286.487 366.602C287.146 367.83 287.475 369.176 287.475 370.642C287.475 372.528 286.918 374.216 285.805 375.705C284.691 377.182 283.157 378.347 281.202 379.199C279.259 380.051 277.026 380.477 274.504 380.477ZM274.504 375.602C275.81 375.602 276.947 375.381 277.913 374.938C278.879 374.483 279.629 373.847 280.163 373.028C280.697 372.21 280.969 371.267 280.981 370.199C280.969 369.085 280.68 368.102 280.112 367.25C279.555 366.386 278.788 365.71 277.81 365.222C276.844 364.733 275.742 364.489 274.504 364.489C273.254 364.489 272.14 364.733 271.163 365.222C270.185 365.71 269.413 366.386 268.844 367.25C268.288 368.102 268.015 369.085 268.026 370.199C268.015 371.267 268.276 372.21 268.81 373.028C269.344 373.835 270.094 374.466 271.06 374.92C272.038 375.375 273.185 375.602 274.504 375.602ZM274.504 359.699C275.572 359.699 276.515 359.483 277.333 359.051C278.163 358.619 278.816 358.017 279.293 357.244C279.771 356.472 280.015 355.58 280.026 354.568C280.015 353.568 279.776 352.693 279.31 351.943C278.844 351.182 278.197 350.597 277.367 350.188C276.538 349.767 275.583 349.557 274.504 349.557C273.401 349.557 272.43 349.767 271.589 350.188C270.759 350.597 270.112 351.182 269.646 351.943C269.191 352.693 268.969 353.568 268.981 354.568C268.969 355.58 269.197 356.472 269.663 357.244C270.14 358.006 270.793 358.608 271.623 359.051C272.464 359.483 273.424 359.699 274.504 359.699ZM76.6719 419H74.4446L82.9105 395.727H85.1832L93.6491 419H91.4219L84.1264 398.489H83.9673L76.6719 419ZM78.2741 410.08H89.8196V411.989H78.2741V410.08ZM108.541 401.545L102.166 419H100.007L93.6321 401.545H95.8253L101.007 416.33H101.166L106.348 401.545H108.541ZM118.533 425.909C117.343 425.909 116.302 425.754 115.408 425.443C114.514 425.14 113.76 424.723 113.146 424.193C112.533 423.663 112.055 423.068 111.714 422.409L113.374 421.318C113.624 421.758 113.957 422.189 114.374 422.614C114.798 423.038 115.347 423.39 116.021 423.67C116.703 423.951 117.54 424.091 118.533 424.091C120.078 424.091 121.324 423.705 122.271 422.932C123.226 422.159 123.703 420.958 123.703 419.33V415.398H123.521C123.286 415.928 122.949 416.458 122.51 416.989C122.071 417.511 121.495 417.947 120.783 418.295C120.078 418.644 119.203 418.818 118.158 418.818C116.764 418.818 115.525 418.473 114.442 417.784C113.366 417.095 112.518 416.11 111.896 414.83C111.283 413.542 110.976 412.008 110.976 410.227C110.976 408.462 111.275 406.909 111.874 405.568C112.48 404.227 113.324 403.182 114.408 402.432C115.491 401.682 116.752 401.307 118.192 401.307C119.26 401.307 120.146 401.496 120.851 401.875C121.555 402.246 122.12 402.708 122.544 403.261C122.976 403.814 123.313 404.352 123.555 404.875H123.76V401.545H125.737V419.455C125.737 420.932 125.423 422.148 124.794 423.102C124.165 424.057 123.309 424.761 122.226 425.216C121.143 425.678 119.911 425.909 118.533 425.909ZM118.396 416.966C119.518 416.966 120.476 416.697 121.271 416.159C122.067 415.614 122.677 414.833 123.101 413.818C123.525 412.803 123.737 411.595 123.737 410.193C123.737 408.83 123.529 407.621 123.112 406.568C122.696 405.508 122.089 404.674 121.294 404.068C120.506 403.455 119.54 403.148 118.396 403.148C117.23 403.148 116.245 403.462 115.442 404.091C114.639 404.72 114.033 405.568 113.624 406.636C113.214 407.697 113.01 408.883 113.01 410.193C113.01 411.527 113.218 412.705 113.635 413.727C114.052 414.742 114.661 415.538 115.464 416.114C116.268 416.682 117.245 416.966 118.396 416.966ZM131.513 419V395.727H139.024C140.676 395.727 142.054 396.045 143.161 396.682C144.274 397.311 145.111 398.167 145.672 399.25C146.24 400.333 146.524 401.553 146.524 402.909C146.524 404.265 146.244 405.489 145.683 406.58C145.123 407.663 144.289 408.523 143.183 409.159C142.077 409.788 140.702 410.102 139.058 410.102H133.149V408.193H139.001C140.221 408.193 141.232 407.966 142.036 407.511C142.839 407.049 143.437 406.42 143.831 405.625C144.232 404.83 144.433 403.924 144.433 402.909C144.433 401.894 144.232 400.989 143.831 400.193C143.437 399.398 142.835 398.773 142.024 398.318C141.221 397.864 140.202 397.636 138.967 397.636H133.638V419H131.513ZM157.689 419.364C156.181 419.364 154.848 418.981 153.689 418.216C152.537 417.451 151.636 416.394 150.984 415.045C150.333 413.689 150.007 412.125 150.007 410.352C150.007 408.564 150.333 406.992 150.984 405.636C151.636 404.273 152.537 403.212 153.689 402.455C154.848 401.689 156.181 401.307 157.689 401.307C159.196 401.307 160.526 401.689 161.678 402.455C162.829 403.22 163.731 404.28 164.382 405.636C165.041 406.992 165.371 408.564 165.371 410.352C165.371 412.125 165.045 413.689 164.393 415.045C163.742 416.394 162.837 417.451 161.678 418.216C160.526 418.981 159.196 419.364 157.689 419.364ZM157.689 417.511C158.901 417.511 159.928 417.186 160.768 416.534C161.609 415.883 162.246 415.015 162.678 413.932C163.117 412.848 163.337 411.655 163.337 410.352C163.337 409.049 163.117 407.852 162.678 406.761C162.246 405.67 161.609 404.795 160.768 404.136C159.928 403.477 158.901 403.148 157.689 403.148C156.484 403.148 155.458 403.477 154.609 404.136C153.768 404.795 153.128 405.67 152.689 406.761C152.257 407.852 152.041 409.049 152.041 410.352C152.041 411.655 152.257 412.848 152.689 413.932C153.128 415.015 153.768 415.883 154.609 416.534C155.45 417.186 156.477 417.511 157.689 417.511ZM176.595 419.364C175.088 419.364 173.754 418.981 172.595 418.216C171.444 417.451 170.542 416.394 169.891 415.045C169.239 413.689 168.913 412.125 168.913 410.352C168.913 408.564 169.239 406.992 169.891 405.636C170.542 404.273 171.444 403.212 172.595 402.455C173.754 401.689 175.088 401.307 176.595 401.307C178.103 401.307 179.432 401.689 180.584 402.455C181.735 403.22 182.637 404.28 183.288 405.636C183.947 406.992 184.277 408.564 184.277 410.352C184.277 412.125 183.951 413.689 183.3 415.045C182.648 416.394 181.743 417.451 180.584 418.216C179.432 418.981 178.103 419.364 176.595 419.364ZM176.595 417.511C177.807 417.511 178.834 417.186 179.675 416.534C180.516 415.883 181.152 415.015 181.584 413.932C182.023 412.848 182.243 411.655 182.243 410.352C182.243 409.049 182.023 407.852 181.584 406.761C181.152 405.67 180.516 404.795 179.675 404.136C178.834 403.477 177.807 403.148 176.595 403.148C175.391 403.148 174.364 403.477 173.516 404.136C172.675 404.795 172.035 405.67 171.595 406.761C171.163 407.852 170.947 409.049 170.947 410.352C170.947 411.655 171.163 412.848 171.595 413.932C172.035 415.015 172.675 415.883 173.516 416.534C174.357 417.186 175.383 417.511 176.595 417.511ZM190.74 395.727V419H188.717V395.727H190.74ZM205.513 419V395.727H207.638V417.091H218.729V419H205.513ZM227.967 419.398C226.914 419.398 225.952 419.193 225.081 418.784C224.21 418.367 223.517 417.769 223.001 416.989C222.486 416.201 222.229 415.246 222.229 414.125C222.229 413.261 222.392 412.534 222.717 411.943C223.043 411.352 223.505 410.867 224.104 410.489C224.702 410.11 225.411 409.811 226.229 409.591C227.047 409.371 227.948 409.201 228.933 409.08C229.911 408.958 230.736 408.852 231.411 408.761C232.092 408.67 232.611 408.527 232.967 408.33C233.323 408.133 233.501 407.814 233.501 407.375V406.966C233.501 405.777 233.145 404.841 232.433 404.159C231.729 403.47 230.714 403.125 229.388 403.125C228.13 403.125 227.104 403.402 226.308 403.955C225.52 404.508 224.967 405.159 224.649 405.909L222.729 405.216C223.123 404.261 223.668 403.5 224.365 402.932C225.062 402.356 225.842 401.943 226.706 401.693C227.57 401.436 228.445 401.307 229.331 401.307C229.998 401.307 230.691 401.394 231.411 401.568C232.138 401.742 232.812 402.045 233.433 402.477C234.054 402.902 234.558 403.496 234.945 404.261C235.331 405.019 235.524 405.981 235.524 407.148V419H233.501V416.239H233.376C233.134 416.754 232.774 417.254 232.297 417.739C231.82 418.223 231.221 418.621 230.501 418.932C229.782 419.242 228.937 419.398 227.967 419.398ZM228.24 417.545C229.316 417.545 230.248 417.307 231.036 416.83C231.823 416.352 232.429 415.72 232.854 414.932C233.286 414.136 233.501 413.261 233.501 412.307V409.784C233.35 409.928 233.096 410.057 232.74 410.17C232.392 410.284 231.986 410.386 231.524 410.477C231.07 410.561 230.615 410.633 230.161 410.693C229.706 410.754 229.297 410.807 228.933 410.852C227.948 410.973 227.107 411.163 226.411 411.42C225.714 411.678 225.179 412.034 224.808 412.489C224.437 412.936 224.251 413.511 224.251 414.216C224.251 415.277 224.63 416.098 225.388 416.682C226.145 417.258 227.096 417.545 228.24 417.545ZM241.689 425.545C241.287 425.545 240.912 425.508 240.564 425.432C240.215 425.356 239.939 425.273 239.734 425.182L240.28 423.398C240.969 423.61 241.583 423.686 242.121 423.625C242.659 423.572 243.136 423.33 243.553 422.898C243.969 422.473 244.34 421.822 244.666 420.943L245.303 419.17L238.882 401.545H241.075L246.257 416.33H246.416L251.598 401.545H253.791L246.405 421.761C246.094 422.602 245.712 423.303 245.257 423.864C244.803 424.432 244.276 424.852 243.678 425.125C243.087 425.405 242.424 425.545 241.689 425.545ZM264.18 419.364C262.552 419.364 261.143 418.985 259.953 418.227C258.764 417.462 257.843 416.405 257.192 415.057C256.548 413.701 256.226 412.14 256.226 410.375C256.226 408.617 256.548 407.057 257.192 405.693C257.843 404.322 258.741 403.25 259.885 402.477C261.036 401.697 262.366 401.307 263.874 401.307C264.821 401.307 265.733 401.481 266.612 401.83C267.491 402.17 268.279 402.697 268.976 403.409C269.68 404.114 270.237 405.004 270.646 406.08C271.055 407.148 271.26 408.413 271.26 409.875V410.875H257.624V409.091H269.192C269.192 407.97 268.964 406.962 268.51 406.068C268.063 405.167 267.438 404.455 266.635 403.932C265.839 403.409 264.919 403.148 263.874 403.148C262.768 403.148 261.794 403.443 260.953 404.034C260.112 404.625 259.453 405.405 258.976 406.375C258.506 407.345 258.268 408.405 258.26 409.557V410.625C258.26 412.011 258.499 413.223 258.976 414.261C259.461 415.292 260.146 416.091 261.033 416.659C261.919 417.227 262.968 417.511 264.18 417.511C265.006 417.511 265.73 417.383 266.351 417.125C266.98 416.867 267.506 416.523 267.93 416.091C268.362 415.652 268.688 415.17 268.908 414.648L270.828 415.273C270.563 416.008 270.127 416.686 269.521 417.307C268.923 417.928 268.173 418.428 267.271 418.807C266.377 419.178 265.347 419.364 264.18 419.364ZM275.717 419V401.545H277.683V404.227H277.831C278.179 403.348 278.786 402.64 279.649 402.102C280.52 401.557 281.505 401.284 282.604 401.284C282.77 401.284 282.956 401.288 283.161 401.295C283.365 401.303 283.536 401.311 283.672 401.318V403.375C283.581 403.36 283.422 403.337 283.195 403.307C282.967 403.277 282.721 403.261 282.456 403.261C281.547 403.261 280.736 403.455 280.024 403.841C279.32 404.22 278.763 404.746 278.354 405.42C277.945 406.095 277.74 406.864 277.74 407.727V419H275.717Z" fill="#3D3D3A"/>
<path d="M111.487 25.7273V49H110.067V25.7273H111.487ZM117.734 49V31.5455H119.087V34.1818H119.223C119.556 33.303 120.132 32.6061 120.95 32.0909C121.768 31.5758 122.753 31.3182 123.905 31.3182C125.17 31.3182 126.189 31.6212 126.962 32.2273C127.742 32.8333 128.303 33.6553 128.643 34.6932H128.768C129.109 33.6705 129.719 32.8523 130.598 32.2386C131.484 31.625 132.575 31.3182 133.871 31.3182C135.56 31.3182 136.848 31.8523 137.734 32.9205C138.628 33.9811 139.075 35.4356 139.075 37.2841V49H137.689V37.2841C137.689 35.8295 137.34 34.6856 136.643 33.8523C135.946 33.0189 134.924 32.6023 133.575 32.6023C132.136 32.6023 131.03 33.053 130.257 33.9545C129.484 34.8561 129.098 36.0038 129.098 37.3977V49H127.712V37.1932C127.712 35.8371 127.371 34.7348 126.689 33.8864C126.007 33.0303 124.984 32.6023 123.621 32.6023C122.696 32.6023 121.897 32.8144 121.223 33.2386C120.556 33.6629 120.037 34.2462 119.666 34.9886C119.303 35.7311 119.121 36.5833 119.121 37.5455V49H117.734ZM149.453 49.375C148.446 49.375 147.521 49.1742 146.68 48.7727C145.847 48.3712 145.177 47.7841 144.669 47.0114C144.169 46.2386 143.919 45.2992 143.919 44.1932C143.919 43.4659 144.048 42.8258 144.305 42.2727C144.563 41.7197 144.961 41.2424 145.499 40.8409C146.036 40.4394 146.726 40.1098 147.567 39.8523C148.408 39.5871 149.411 39.3826 150.578 39.2386C151.464 39.1326 152.256 39.0303 152.953 38.9318C153.65 38.8258 154.196 38.6629 154.589 38.4432C154.991 38.2235 155.192 37.8902 155.192 37.4432V36.7159C155.192 35.4432 154.79 34.4318 153.987 33.6818C153.184 32.9318 152.078 32.5568 150.669 32.5568C149.419 32.5568 148.366 32.8333 147.51 33.3864C146.661 33.9318 146.067 34.6364 145.726 35.5L144.419 35.0114C144.752 34.178 145.233 33.4848 145.862 32.9318C146.499 32.3788 147.226 31.9659 148.044 31.6932C148.87 31.4205 149.733 31.2841 150.635 31.2841C151.415 31.2841 152.158 31.3939 152.862 31.6136C153.574 31.8333 154.207 32.1667 154.76 32.6136C155.321 33.0606 155.764 33.6326 156.089 34.3295C156.415 35.0189 156.578 35.8447 156.578 36.8068V49H155.192V45.8523H155.089C154.786 46.5038 154.37 47.0985 153.839 47.6364C153.317 48.1667 152.684 48.5909 151.942 48.9091C151.207 49.2197 150.377 49.375 149.453 49.375ZM149.589 48.0909C150.68 48.0909 151.646 47.8258 152.487 47.2955C153.336 46.7576 153.999 46.0227 154.476 45.0909C154.953 44.1591 155.192 43.1023 155.192 41.9205V39.3523C155.018 39.5038 154.764 39.6402 154.43 39.7614C154.105 39.875 153.733 39.9773 153.317 40.0682C152.908 40.1515 152.476 40.2273 152.021 40.2955C151.574 40.3561 151.139 40.4129 150.714 40.4659C149.442 40.6174 148.404 40.8523 147.601 41.1705C146.805 41.4811 146.222 41.8902 145.851 42.3977C145.487 42.9053 145.305 43.5189 145.305 44.2386C145.305 45.428 145.714 46.3674 146.533 47.0568C147.351 47.7462 148.37 48.0909 149.589 48.0909ZM168.686 55.9091C167.603 55.9091 166.629 55.7652 165.766 55.4773C164.902 55.197 164.167 54.7955 163.561 54.2727C162.963 53.75 162.504 53.1288 162.186 52.4091L163.345 51.7273C163.603 52.2879 163.97 52.7879 164.447 53.2273C164.925 53.6667 165.516 54.0114 166.22 54.2614C166.932 54.5114 167.754 54.6364 168.686 54.6364C170.368 54.6364 171.697 54.2008 172.675 53.3295C173.66 52.4659 174.152 51.1402 174.152 49.3523V45.0114H174.016C173.75 45.7689 173.357 46.4432 172.834 47.0341C172.319 47.6174 171.686 48.0758 170.936 48.4091C170.186 48.7424 169.334 48.9091 168.379 48.9091C167 48.9091 165.788 48.553 164.743 47.8409C163.697 47.1288 162.883 46.1288 162.3 44.8409C161.716 43.5455 161.425 42.0227 161.425 40.2727C161.425 38.5227 161.709 36.9735 162.277 35.625C162.853 34.2689 163.663 33.2083 164.709 32.4432C165.754 31.6705 166.982 31.2841 168.391 31.2841C169.398 31.2841 170.269 31.4773 171.004 31.8636C171.747 32.2424 172.368 32.7462 172.868 33.375C173.368 34.0038 173.754 34.6932 174.027 35.4432H174.186V31.5455H175.527V49.4091C175.527 50.8636 175.239 52.072 174.663 53.0341C174.095 53.9962 173.296 54.7159 172.266 55.1932C171.243 55.6705 170.05 55.9091 168.686 55.9091ZM168.504 47.625C169.671 47.625 170.675 47.3295 171.516 46.7386C172.364 46.1402 173.016 45.2917 173.47 44.1932C173.932 43.0871 174.163 41.7765 174.163 40.2614C174.163 38.7917 173.94 37.4773 173.493 36.3182C173.046 35.1591 172.398 34.2462 171.55 33.5795C170.701 32.9129 169.686 32.5795 168.504 32.5795C167.3 32.5795 166.273 32.9205 165.425 33.6023C164.576 34.2765 163.925 35.1932 163.47 36.3523C163.023 37.5114 162.8 38.8144 162.8 40.2614C162.8 41.7159 163.027 42.9962 163.482 44.1023C163.936 45.2008 164.588 46.0644 165.436 46.6932C166.285 47.3144 167.307 47.625 168.504 47.625ZM188.166 49.3636C186.59 49.3636 185.219 48.9735 184.053 48.1932C182.886 47.4129 181.984 46.3447 181.348 44.9886C180.712 43.6326 180.393 42.0871 180.393 40.3523C180.393 38.6098 180.712 37.0568 181.348 35.6932C181.992 34.3295 182.875 33.2538 183.996 32.4659C185.117 31.678 186.397 31.2841 187.837 31.2841C188.814 31.2841 189.738 31.4811 190.609 31.875C191.488 32.2614 192.261 32.822 192.928 33.5568C193.602 34.2917 194.128 35.178 194.507 36.2159C194.893 37.2538 195.087 38.4205 195.087 39.7159V40.5795H181.268V39.3182H193.7C193.7 38.053 193.443 36.9129 192.928 35.8977C192.412 34.8826 191.712 34.0758 190.825 33.4773C189.939 32.8788 188.943 32.5795 187.837 32.5795C186.678 32.5795 185.643 32.9053 184.734 33.5568C183.833 34.2008 183.117 35.072 182.587 36.1705C182.064 37.2689 181.791 38.4962 181.768 39.8523V40.4205C181.768 41.875 182.022 43.1818 182.53 44.3409C183.045 45.4924 183.78 46.4053 184.734 47.0795C185.689 47.7462 186.833 48.0795 188.166 48.0795C189.121 48.0795 189.935 47.9205 190.609 47.6023C191.291 47.2765 191.848 46.8826 192.28 46.4205C192.712 45.9583 193.037 45.5114 193.257 45.0795L194.518 45.5909C194.253 46.1742 193.84 46.7576 193.28 47.3409C192.727 47.9167 192.022 48.3977 191.166 48.7841C190.318 49.1705 189.318 49.3636 188.166 49.3636ZM218.132 25.7273V49H216.746L201.905 28.3068H201.768V49H200.348V25.7273H201.746L216.587 46.4432H216.723V25.7273H218.132ZM231.166 49.3636C229.59 49.3636 228.219 48.9735 227.053 48.1932C225.886 47.4129 224.984 46.3447 224.348 44.9886C223.712 43.6326 223.393 42.0871 223.393 40.3523C223.393 38.6098 223.712 37.0568 224.348 35.6932C224.992 34.3295 225.875 33.2538 226.996 32.4659C228.117 31.678 229.397 31.2841 230.837 31.2841C231.814 31.2841 232.738 31.4811 233.609 31.875C234.488 32.2614 235.261 32.822 235.928 33.5568C236.602 34.2917 237.128 35.178 237.507 36.2159C237.893 37.2538 238.087 38.4205 238.087 39.7159V40.5795H224.268V39.3182H236.7C236.7 38.053 236.443 36.9129 235.928 35.8977C235.412 34.8826 234.712 34.0758 233.825 33.4773C232.939 32.8788 231.943 32.5795 230.837 32.5795C229.678 32.5795 228.643 32.9053 227.734 33.5568C226.833 34.2008 226.117 35.072 225.587 36.1705C225.064 37.2689 224.791 38.4962 224.768 39.8523V40.4205C224.768 41.875 225.022 43.1818 225.53 44.3409C226.045 45.4924 226.78 46.4053 227.734 47.0795C228.689 47.7462 229.833 48.0795 231.166 48.0795C232.121 48.0795 232.935 47.9205 233.609 47.6023C234.291 47.2765 234.848 46.8826 235.28 46.4205C235.712 45.9583 236.037 45.5114 236.257 45.0795L237.518 45.5909C237.253 46.1742 236.84 46.7576 236.28 47.3409C235.727 47.9167 235.022 48.3977 234.166 48.7841C233.318 49.1705 232.318 49.3636 231.166 49.3636ZM249.03 31.5455V32.7841H241.405V31.5455H249.03ZM243.984 27.3636H245.359V44.875C245.359 45.5871 245.496 46.1705 245.768 46.625C246.049 47.072 246.412 47.4053 246.859 47.625C247.314 47.8371 247.799 47.9432 248.314 47.9432C248.564 47.9432 248.78 47.9242 248.962 47.8864C249.151 47.8485 249.329 47.7992 249.496 47.7386L249.837 49C249.625 49.0758 249.39 49.1402 249.132 49.1932C248.875 49.2538 248.571 49.2841 248.223 49.2841C247.496 49.2841 246.806 49.1212 246.155 48.7955C245.511 48.4697 244.988 47.9962 244.587 47.375C244.185 46.7538 243.984 46.0038 243.984 45.125V27.3636Z" fill="#3D3D3A"/>
<line x1="85.3355" y1="103.141" x2="107.172" y2="118.081" stroke="#3D3D3A" stroke-width="10.9756" stroke-linecap="round"/>
<rect x="-4.75258" y="-2.7439" width="41.6944" height="43.4497" rx="9.55285" transform="matrix(0.866025 -0.5 2.20305e-08 1 102.274 115.115)" fill="#FFFBFB" stroke="#3D3D3A" stroke-width="10.9756"/>
<rect x="-4.75258" y="-2.7439" width="41.6944" height="43.4497" rx="9.55285" transform="matrix(0.866025 -0.5 2.20305e-08 1 115.282 123.97)" fill="white" stroke="#3D3D3A" stroke-width="10.9756"/>
<rect x="-4.75258" y="-2.7439" width="41.6944" height="43.4497" rx="9.55285" transform="matrix(0.866025 -0.5 2.20305e-08 1 128.291 135.353)" fill="white" stroke="#3D3D3A" stroke-width="10.9756"/>
<line x1="145.498" y1="148.669" x2="167.334" y2="163.61" stroke="#3D3D3A" stroke-width="10.9756" stroke-linecap="round"/>
<rect x="-4.75258" y="-2.7439" width="41.6944" height="43.4497" rx="9.55285" transform="matrix(0.866025 -0.5 2.20305e-08 1 165.688 156.579)" fill="#FFFDFD" stroke="#3D3D3A" stroke-width="10.9756"/>
<rect x="-4.75258" y="-2.7439" width="41.6944" height="43.4497" rx="9.55285" transform="matrix(0.866025 -0.5 2.20305e-08 1 178.697 165.434)" fill="white" stroke="#3D3D3A" stroke-width="10.9756"/>
<rect x="-4.75258" y="-2.7439" width="41.6944" height="43.4497" rx="9.55285" transform="matrix(0.866025 -0.5 2.20305e-08 1 191.705 176.816)" fill="white" stroke="#3D3D3A" stroke-width="10.9756"/>
<line x1="206.474" y1="190.133" x2="228.31" y2="205.073" stroke="#3D3D3A" stroke-width="10.9756" stroke-linecap="round"/>
<path d="M90.3086 107.667C10.6338 177.26 65.9185 218.236 154.943 154.821" stroke="#3D3D3A" stroke-width="10.9756" stroke-linecap="round"/>
<path d="M153.549 160.919C73.8745 230.512 129.159 271.488 218.183 208.073" stroke="#3D3D3A" stroke-width="10.9756" stroke-linecap="round"/>
<path d="M226.72 206.447C147.045 276.041 202.33 317.016 291.354 253.602" stroke="#3D3D3A" stroke-width="10.9756" stroke-linecap="round"/>
<rect x="-4.75258" y="-2.7439" width="41.6944" height="43.4497" rx="9.55285" transform="matrix(0.866025 -0.5 2.20305e-08 1 229.103 198.855)" fill="#FFFDFD" stroke="#3D3D3A" stroke-width="10.9756"/>
<rect x="-4.75258" y="-2.7439" width="41.6944" height="43.4497" rx="9.55285" transform="matrix(0.866025 -0.5 2.20305e-08 1 242.111 207.71)" fill="white" stroke="#3D3D3A" stroke-width="10.9756"/>
<rect x="-4.75258" y="-2.7439" width="41.6944" height="43.4497" rx="9.55285" transform="matrix(0.866025 -0.5 2.20305e-08 1 255.119 219.092)" fill="white" stroke="#3D3D3A" stroke-width="10.9756"/>
<line x1="274.767" y1="236.474" x2="296.603" y2="251.415" stroke="#3D3D3A" stroke-width="10.9756" stroke-linecap="round"/>
</svg>
