<svg width="358" height="448" viewBox="0 0 358 448" fill="none" xmlns="http://www.w3.org/2000/svg">
<rect x="2.25" y="2.25" width="353.5" height="443.5" rx="69.75" fill="white"/>
<rect x="2.25" y="2.25" width="353.5" height="443.5" rx="69.75" stroke="#DDDDDD" stroke-width="4.5"/>
<path d="M127.77 339H121.02L133.31 304.091H141.116L153.423 339H146.673L137.349 311.25H137.077L127.77 339ZM127.991 325.312H146.401V330.392H127.991V325.312ZM169.182 312.818V317.591H154.131V312.818H169.182ZM157.847 306.545H164.017V331.125C164.017 331.955 164.142 332.591 164.392 333.034C164.653 333.466 164.994 333.761 165.415 333.92C165.835 334.08 166.301 334.159 166.812 334.159C167.199 334.159 167.551 334.131 167.869 334.074C168.199 334.017 168.449 333.966 168.619 333.92L169.659 338.744C169.33 338.858 168.858 338.983 168.244 339.119C167.642 339.256 166.903 339.335 166.028 339.358C164.483 339.403 163.091 339.17 161.852 338.659C160.614 338.136 159.631 337.33 158.903 336.239C158.188 335.148 157.835 333.784 157.847 332.148V306.545ZM181.075 304.091V339H174.905V304.091H181.075ZM194.955 339.528C193.295 339.528 191.801 339.233 190.472 338.642C189.153 338.04 188.108 337.153 187.335 335.983C186.574 334.812 186.193 333.369 186.193 331.653C186.193 330.176 186.466 328.955 187.011 327.989C187.557 327.023 188.301 326.25 189.244 325.67C190.188 325.091 191.25 324.653 192.432 324.358C193.625 324.051 194.858 323.83 196.131 323.693C197.665 323.534 198.909 323.392 199.864 323.267C200.818 323.131 201.511 322.926 201.943 322.653C202.386 322.369 202.608 321.932 202.608 321.341V321.239C202.608 319.955 202.227 318.96 201.466 318.256C200.705 317.551 199.608 317.199 198.176 317.199C196.665 317.199 195.466 317.528 194.58 318.188C193.705 318.847 193.114 319.625 192.807 320.523L187.045 319.705C187.5 318.114 188.25 316.784 189.295 315.716C190.341 314.636 191.619 313.83 193.131 313.295C194.642 312.75 196.313 312.477 198.142 312.477C199.403 312.477 200.659 312.625 201.909 312.92C203.159 313.216 204.301 313.705 205.335 314.386C206.369 315.057 207.199 315.972 207.824 317.131C208.46 318.29 208.778 319.739 208.778 321.477V339H202.847V335.403H202.642C202.267 336.131 201.739 336.812 201.057 337.449C200.386 338.074 199.54 338.58 198.517 338.966C197.506 339.341 196.318 339.528 194.955 339.528ZM196.557 334.994C197.795 334.994 198.869 334.75 199.778 334.261C200.688 333.761 201.386 333.102 201.875 332.284C202.375 331.466 202.625 330.574 202.625 329.608V326.523C202.432 326.682 202.102 326.83 201.636 326.966C201.182 327.102 200.67 327.222 200.102 327.324C199.534 327.426 198.972 327.517 198.415 327.597C197.858 327.676 197.375 327.744 196.966 327.801C196.045 327.926 195.222 328.131 194.494 328.415C193.767 328.699 193.193 329.097 192.773 329.608C192.352 330.108 192.142 330.756 192.142 331.551C192.142 332.688 192.557 333.545 193.386 334.125C194.216 334.705 195.273 334.994 196.557 334.994ZM235.676 319.739L230.051 320.352C229.892 319.784 229.614 319.25 229.216 318.75C228.83 318.25 228.307 317.847 227.648 317.54C226.989 317.233 226.182 317.08 225.227 317.08C223.943 317.08 222.864 317.358 221.989 317.915C221.125 318.472 220.699 319.193 220.71 320.08C220.699 320.841 220.977 321.46 221.545 321.938C222.125 322.415 223.08 322.807 224.409 323.114L228.875 324.068C231.352 324.602 233.193 325.449 234.398 326.608C235.614 327.767 236.227 329.284 236.239 331.159C236.227 332.807 235.744 334.261 234.79 335.523C233.847 336.773 232.534 337.75 230.852 338.455C229.17 339.159 227.239 339.511 225.057 339.511C221.852 339.511 219.273 338.841 217.318 337.5C215.364 336.148 214.199 334.267 213.824 331.858L219.841 331.278C220.114 332.46 220.693 333.352 221.58 333.955C222.466 334.557 223.619 334.858 225.04 334.858C226.506 334.858 227.682 334.557 228.568 333.955C229.466 333.352 229.915 332.608 229.915 331.722C229.915 330.972 229.625 330.352 229.045 329.864C228.477 329.375 227.591 329 226.386 328.739L221.92 327.801C219.409 327.278 217.551 326.398 216.347 325.159C215.142 323.909 214.545 322.33 214.557 320.42C214.545 318.807 214.983 317.409 215.869 316.227C216.767 315.034 218.011 314.114 219.602 313.466C221.205 312.807 223.051 312.477 225.142 312.477C228.21 312.477 230.625 313.131 232.386 314.438C234.159 315.744 235.256 317.511 235.676 319.739ZM60.919 378V354.727H74.419V356.636H63.044V365.398H73.7031V367.307H63.044V376.091H74.6463V378H60.919ZM80.7486 360.545L85.2486 367.989L89.7486 360.545H92.1009L86.4872 369.273L92.1009 378H89.7486L85.2486 370.795L80.7486 378H78.4077L83.9531 369.273L78.4077 360.545H80.7486ZM96.3423 384.545V360.545H98.3082V363.875H98.5469C98.7893 363.352 99.1226 362.818 99.5469 362.273C99.9711 361.72 100.532 361.254 101.229 360.875C101.933 360.496 102.82 360.307 103.888 360.307C105.327 360.307 106.585 360.686 107.661 361.443C108.744 362.193 109.585 363.246 110.183 364.602C110.789 365.951 111.092 367.523 111.092 369.318C111.092 371.121 110.789 372.701 110.183 374.057C109.585 375.413 108.744 376.47 107.661 377.227C106.585 377.985 105.335 378.364 103.911 378.364C102.857 378.364 101.975 378.174 101.263 377.795C100.558 377.417 99.9863 376.951 99.5469 376.398C99.1151 375.837 98.7817 375.292 98.5469 374.761H98.3651V384.545H96.3423ZM98.3423 369.284C98.3423 370.693 98.5507 371.943 98.9673 373.034C99.3916 374.117 99.9976 374.97 100.786 375.591C101.581 376.205 102.543 376.511 103.672 376.511C104.831 376.511 105.808 376.193 106.604 375.557C107.407 374.913 108.017 374.045 108.433 372.955C108.857 371.864 109.07 370.64 109.07 369.284C109.07 367.943 108.861 366.735 108.445 365.659C108.036 364.583 107.429 363.731 106.626 363.102C105.823 362.466 104.839 362.148 103.672 362.148C102.536 362.148 101.57 362.455 100.774 363.068C99.9787 363.674 99.3726 364.515 98.956 365.591C98.5469 366.659 98.3423 367.89 98.3423 369.284ZM117.553 354.727V378H115.53V354.727H117.553ZM129.689 378.364C128.181 378.364 126.848 377.981 125.689 377.216C124.537 376.451 123.636 375.394 122.984 374.045C122.333 372.689 122.007 371.125 122.007 369.352C122.007 367.564 122.333 365.992 122.984 364.636C123.636 363.273 124.537 362.212 125.689 361.455C126.848 360.689 128.181 360.307 129.689 360.307C131.196 360.307 132.526 360.689 133.678 361.455C134.829 362.22 135.731 363.28 136.382 364.636C137.041 365.992 137.371 367.564 137.371 369.352C137.371 371.125 137.045 372.689 136.393 374.045C135.742 375.394 134.837 376.451 133.678 377.216C132.526 377.981 131.196 378.364 129.689 378.364ZM129.689 376.511C130.901 376.511 131.928 376.186 132.768 375.534C133.609 374.883 134.246 374.015 134.678 372.932C135.117 371.848 135.337 370.655 135.337 369.352C135.337 368.049 135.117 366.852 134.678 365.761C134.246 364.67 133.609 363.795 132.768 363.136C131.928 362.477 130.901 362.148 129.689 362.148C128.484 362.148 127.458 362.477 126.609 363.136C125.768 363.795 125.128 364.67 124.689 365.761C124.257 366.852 124.041 368.049 124.041 369.352C124.041 370.655 124.257 371.848 124.689 372.932C125.128 374.015 125.768 374.883 126.609 375.534C127.45 376.186 128.477 376.511 129.689 376.511ZM141.811 378V360.545H143.777V363.227H143.925C144.273 362.348 144.879 361.64 145.743 361.102C146.614 360.557 147.599 360.284 148.697 360.284C148.864 360.284 149.05 360.288 149.254 360.295C149.459 360.303 149.629 360.311 149.766 360.318V362.375C149.675 362.36 149.516 362.337 149.288 362.307C149.061 362.277 148.815 362.261 148.55 362.261C147.641 362.261 146.83 362.455 146.118 362.841C145.413 363.22 144.857 363.746 144.447 364.42C144.038 365.095 143.834 365.864 143.834 366.727V378H141.811ZM159.743 378.364C158.114 378.364 156.705 377.985 155.516 377.227C154.326 376.462 153.406 375.405 152.754 374.057C152.11 372.701 151.788 371.14 151.788 369.375C151.788 367.617 152.11 366.057 152.754 364.693C153.406 363.322 154.304 362.25 155.447 361.477C156.599 360.697 157.929 360.307 159.436 360.307C160.383 360.307 161.296 360.481 162.175 360.83C163.054 361.17 163.841 361.697 164.538 362.409C165.243 363.114 165.8 364.004 166.209 365.08C166.618 366.148 166.822 367.413 166.822 368.875V369.875H153.186V368.091H164.754C164.754 366.97 164.527 365.962 164.072 365.068C163.625 364.167 163 363.455 162.197 362.932C161.402 362.409 160.482 362.148 159.436 362.148C158.33 362.148 157.357 362.443 156.516 363.034C155.675 363.625 155.016 364.405 154.538 365.375C154.069 366.345 153.83 367.405 153.822 368.557V369.625C153.822 371.011 154.061 372.223 154.538 373.261C155.023 374.292 155.709 375.091 156.595 375.659C157.482 376.227 158.531 376.511 159.743 376.511C160.569 376.511 161.292 376.383 161.913 376.125C162.542 375.867 163.069 375.523 163.493 375.091C163.925 374.652 164.25 374.17 164.47 373.648L166.391 374.273C166.125 375.008 165.69 375.686 165.084 376.307C164.485 376.928 163.735 377.428 162.834 377.807C161.94 378.178 160.91 378.364 159.743 378.364ZM180.7 378V354.727H182.825V376.091H193.916V378H180.7ZM205.337 378.364C203.708 378.364 202.299 377.985 201.109 377.227C199.92 376.462 199 375.405 198.348 374.057C197.704 372.701 197.382 371.14 197.382 369.375C197.382 367.617 197.704 366.057 198.348 364.693C199 363.322 199.897 362.25 201.041 361.477C202.193 360.697 203.522 360.307 205.03 360.307C205.977 360.307 206.89 360.481 207.768 360.83C208.647 361.17 209.435 361.697 210.132 362.409C210.837 363.114 211.393 364.004 211.803 365.08C212.212 366.148 212.416 367.413 212.416 368.875V369.875H198.78V368.091H210.348C210.348 366.97 210.121 365.962 209.666 365.068C209.219 364.167 208.594 363.455 207.791 362.932C206.996 362.409 206.075 362.148 205.03 362.148C203.924 362.148 202.95 362.443 202.109 363.034C201.268 363.625 200.609 364.405 200.132 365.375C199.662 366.345 199.424 367.405 199.416 368.557V369.625C199.416 371.011 199.655 372.223 200.132 373.261C200.617 374.292 201.303 375.091 202.189 375.659C203.075 376.227 204.125 376.511 205.337 376.511C206.162 376.511 206.886 376.383 207.507 376.125C208.136 375.867 208.662 375.523 209.087 375.091C209.518 374.652 209.844 374.17 210.064 373.648L211.984 374.273C211.719 375.008 211.284 375.686 210.678 376.307C210.079 376.928 209.329 377.428 208.428 377.807C207.534 378.178 206.503 378.364 205.337 378.364ZM221.749 378.398C220.696 378.398 219.733 378.193 218.862 377.784C217.991 377.367 217.298 376.769 216.783 375.989C216.268 375.201 216.01 374.246 216.01 373.125C216.01 372.261 216.173 371.534 216.499 370.943C216.824 370.352 217.286 369.867 217.885 369.489C218.483 369.11 219.192 368.811 220.01 368.591C220.828 368.371 221.73 368.201 222.714 368.08C223.692 367.958 224.518 367.852 225.192 367.761C225.874 367.67 226.393 367.527 226.749 367.33C227.105 367.133 227.283 366.814 227.283 366.375V365.966C227.283 364.777 226.927 363.841 226.214 363.159C225.51 362.47 224.495 362.125 223.169 362.125C221.911 362.125 220.885 362.402 220.089 362.955C219.302 363.508 218.749 364.159 218.43 364.909L216.51 364.216C216.904 363.261 217.449 362.5 218.146 361.932C218.843 361.356 219.624 360.943 220.487 360.693C221.351 360.436 222.226 360.307 223.112 360.307C223.779 360.307 224.472 360.394 225.192 360.568C225.919 360.742 226.593 361.045 227.214 361.477C227.836 361.902 228.339 362.496 228.726 363.261C229.112 364.019 229.305 364.981 229.305 366.148V378H227.283V375.239H227.158C226.915 375.754 226.555 376.254 226.078 376.739C225.601 377.223 225.002 377.621 224.283 377.932C223.563 378.242 222.718 378.398 221.749 378.398ZM222.021 376.545C223.097 376.545 224.029 376.307 224.817 375.83C225.605 375.352 226.211 374.72 226.635 373.932C227.067 373.136 227.283 372.261 227.283 371.307V368.784C227.131 368.928 226.877 369.057 226.521 369.17C226.173 369.284 225.768 369.386 225.305 369.477C224.851 369.561 224.396 369.633 223.942 369.693C223.487 369.754 223.078 369.807 222.714 369.852C221.73 369.973 220.889 370.163 220.192 370.42C219.495 370.678 218.961 371.034 218.589 371.489C218.218 371.936 218.033 372.511 218.033 373.216C218.033 374.277 218.411 375.098 219.169 375.682C219.927 376.258 220.877 376.545 222.021 376.545ZM234.686 378V360.545H236.652V363.227H236.8C237.148 362.348 237.754 361.64 238.618 361.102C239.489 360.557 240.474 360.284 241.572 360.284C241.739 360.284 241.925 360.288 242.129 360.295C242.334 360.303 242.504 360.311 242.641 360.318V362.375C242.55 362.36 242.391 362.337 242.163 362.307C241.936 362.277 241.69 362.261 241.425 362.261C240.516 362.261 239.705 362.455 238.993 362.841C238.288 363.22 237.732 363.746 237.322 364.42C236.913 365.095 236.709 365.864 236.709 366.727V378H234.686ZM248.115 367.091V378H246.092V360.545H248.058V363.284H248.24C248.649 362.39 249.286 361.674 250.149 361.136C251.02 360.591 252.096 360.318 253.376 360.318C254.551 360.318 255.581 360.564 256.467 361.057C257.361 361.542 258.054 362.258 258.547 363.205C259.047 364.152 259.297 365.314 259.297 366.693V378H257.274V366.818C257.274 365.386 256.873 364.254 256.07 363.42C255.274 362.587 254.206 362.17 252.865 362.17C251.948 362.17 251.134 362.367 250.422 362.761C249.71 363.155 249.145 363.723 248.729 364.466C248.32 365.201 248.115 366.076 248.115 367.091ZM271.68 378.364C270.052 378.364 268.643 377.985 267.453 377.227C266.264 376.462 265.343 375.405 264.692 374.057C264.048 372.701 263.726 371.14 263.726 369.375C263.726 367.617 264.048 366.057 264.692 364.693C265.343 363.322 266.241 362.25 267.385 361.477C268.536 360.697 269.866 360.307 271.374 360.307C272.321 360.307 273.233 360.481 274.112 360.83C274.991 361.17 275.779 361.697 276.476 362.409C277.18 363.114 277.737 364.004 278.146 365.08C278.555 366.148 278.76 367.413 278.76 368.875V369.875H265.124V368.091H276.692C276.692 366.97 276.464 365.962 276.01 365.068C275.563 364.167 274.938 363.455 274.135 362.932C273.339 362.409 272.419 362.148 271.374 362.148C270.268 362.148 269.294 362.443 268.453 363.034C267.612 363.625 266.953 364.405 266.476 365.375C266.006 366.345 265.768 367.405 265.76 368.557V369.625C265.76 371.011 265.999 372.223 266.476 373.261C266.961 374.292 267.646 375.091 268.533 375.659C269.419 376.227 270.468 376.511 271.68 376.511C272.506 376.511 273.23 376.383 273.851 376.125C274.48 375.867 275.006 375.523 275.43 375.091C275.862 374.652 276.188 374.17 276.408 373.648L278.328 374.273C278.063 375.008 277.627 375.686 277.021 376.307C276.423 376.928 275.673 377.428 274.771 377.807C273.877 378.178 272.847 378.364 271.68 378.364ZM289.501 378.364C288.07 378.364 286.816 377.985 285.74 377.227C284.664 376.47 283.823 375.413 283.217 374.057C282.619 372.701 282.32 371.121 282.32 369.318C282.32 367.523 282.619 365.951 283.217 364.602C283.823 363.246 284.668 362.193 285.751 361.443C286.835 360.686 288.096 360.307 289.536 360.307C290.596 360.307 291.479 360.496 292.183 360.875C292.888 361.246 293.452 361.708 293.876 362.261C294.301 362.814 294.63 363.352 294.865 363.875H295.047V354.727H297.081V378H295.104V374.761H294.865C294.63 375.292 294.297 375.837 293.865 376.398C293.433 376.951 292.861 377.417 292.149 377.795C291.445 378.174 290.562 378.364 289.501 378.364ZM289.74 376.511C290.869 376.511 291.831 376.205 292.626 375.591C293.422 374.97 294.028 374.117 294.445 373.034C294.869 371.943 295.081 370.693 295.081 369.284C295.081 367.89 294.873 366.659 294.456 365.591C294.039 364.515 293.433 363.674 292.638 363.068C291.842 362.455 290.876 362.148 289.74 362.148C288.573 362.148 287.589 362.466 286.786 363.102C285.99 363.731 285.384 364.583 284.967 365.659C284.558 366.735 284.354 367.943 284.354 369.284C284.354 370.64 284.562 371.864 284.979 372.955C285.395 374.045 286.001 374.913 286.797 375.557C287.6 376.193 288.581 376.511 289.74 376.511ZM128.412 401H126.276C126.116 400.205 125.829 399.47 125.412 398.795C125.003 398.114 124.488 397.519 123.866 397.011C123.245 396.504 122.541 396.11 121.753 395.83C120.965 395.549 120.113 395.409 119.196 395.409C117.726 395.409 116.385 395.792 115.173 396.557C113.969 397.322 113.003 398.447 112.276 399.932C111.556 401.409 111.196 403.22 111.196 405.364C111.196 407.523 111.556 409.341 112.276 410.818C113.003 412.295 113.969 413.417 115.173 414.182C116.385 414.939 117.726 415.318 119.196 415.318C120.113 415.318 120.965 415.178 121.753 414.898C122.541 414.617 123.245 414.227 123.866 413.727C124.488 413.22 125.003 412.625 125.412 411.943C125.829 411.261 126.116 410.523 126.276 409.727H128.412C128.223 410.795 127.866 411.792 127.344 412.716C126.829 413.633 126.17 414.436 125.366 415.125C124.571 415.814 123.654 416.352 122.616 416.739C121.579 417.125 120.438 417.318 119.196 417.318C117.241 417.318 115.507 416.83 113.991 415.852C112.476 414.867 111.287 413.481 110.423 411.693C109.567 409.905 109.139 407.795 109.139 405.364C109.139 402.932 109.567 400.822 110.423 399.034C111.287 397.246 112.476 395.864 113.991 394.886C115.507 393.902 117.241 393.409 119.196 393.409C120.438 393.409 121.579 393.602 122.616 393.989C123.654 394.367 124.571 394.905 125.366 395.602C126.17 396.292 126.829 397.095 127.344 398.011C127.866 398.928 128.223 399.924 128.412 401ZM139.767 417.364C138.259 417.364 136.926 416.981 135.767 416.216C134.616 415.451 133.714 414.394 133.062 413.045C132.411 411.689 132.085 410.125 132.085 408.352C132.085 406.564 132.411 404.992 133.062 403.636C133.714 402.273 134.616 401.212 135.767 400.455C136.926 399.689 138.259 399.307 139.767 399.307C141.275 399.307 142.604 399.689 143.756 400.455C144.907 401.22 145.809 402.28 146.46 403.636C147.119 404.992 147.449 406.564 147.449 408.352C147.449 410.125 147.123 411.689 146.472 413.045C145.82 414.394 144.915 415.451 143.756 416.216C142.604 416.981 141.275 417.364 139.767 417.364ZM139.767 415.511C140.979 415.511 142.006 415.186 142.847 414.534C143.688 413.883 144.324 413.015 144.756 411.932C145.195 410.848 145.415 409.655 145.415 408.352C145.415 407.049 145.195 405.852 144.756 404.761C144.324 403.67 143.688 402.795 142.847 402.136C142.006 401.477 140.979 401.148 139.767 401.148C138.563 401.148 137.536 401.477 136.688 402.136C135.847 402.795 135.206 403.67 134.767 404.761C134.335 405.852 134.119 407.049 134.119 408.352C134.119 409.655 134.335 410.848 134.767 411.932C135.206 413.015 135.847 413.883 136.688 414.534C137.528 415.186 138.555 415.511 139.767 415.511ZM153.912 406.091V417H151.889V399.545H153.855V402.284H154.037C154.446 401.39 155.082 400.674 155.946 400.136C156.817 399.591 157.893 399.318 159.173 399.318C160.348 399.318 161.378 399.564 162.264 400.057C163.158 400.542 163.851 401.258 164.344 402.205C164.844 403.152 165.094 404.314 165.094 405.693V417H163.071V405.818C163.071 404.386 162.67 403.254 161.866 402.42C161.071 401.587 160.003 401.17 158.662 401.17C157.745 401.17 156.931 401.367 156.219 401.761C155.507 402.155 154.942 402.723 154.526 403.466C154.116 404.201 153.912 405.076 153.912 406.091ZM177.239 417.364C175.678 417.364 174.318 416.973 173.159 416.193C172.008 415.413 171.114 414.345 170.477 412.989C169.841 411.633 169.523 410.087 169.523 408.352C169.523 406.602 169.845 405.045 170.489 403.682C171.14 402.318 172.042 401.25 173.193 400.477C174.345 399.697 175.682 399.307 177.205 399.307C178.371 399.307 179.428 399.534 180.375 399.989C181.322 400.436 182.102 401.068 182.716 401.886C183.337 402.697 183.727 403.644 183.886 404.727H181.841C181.629 403.742 181.117 402.902 180.307 402.205C179.504 401.5 178.481 401.148 177.239 401.148C176.125 401.148 175.14 401.451 174.284 402.057C173.428 402.655 172.758 403.492 172.273 404.568C171.795 405.636 171.557 406.875 171.557 408.284C171.557 409.701 171.792 410.955 172.261 412.045C172.731 413.129 173.39 413.977 174.239 414.591C175.095 415.205 176.095 415.511 177.239 415.511C178.011 415.511 178.716 415.367 179.352 415.08C179.996 414.784 180.534 414.367 180.966 413.83C181.405 413.292 181.701 412.652 181.852 411.909H183.898C183.746 412.962 183.371 413.902 182.773 414.727C182.182 415.545 181.413 416.189 180.466 416.659C179.527 417.129 178.451 417.364 177.239 417.364ZM195.29 417.364C193.661 417.364 192.252 416.985 191.062 416.227C189.873 415.462 188.953 414.405 188.301 413.057C187.657 411.701 187.335 410.14 187.335 408.375C187.335 406.617 187.657 405.057 188.301 403.693C188.953 402.322 189.85 401.25 190.994 400.477C192.146 399.697 193.475 399.307 194.983 399.307C195.93 399.307 196.843 399.481 197.722 399.83C198.6 400.17 199.388 400.697 200.085 401.409C200.79 402.114 201.347 403.004 201.756 404.08C202.165 405.148 202.369 406.413 202.369 407.875V408.875H188.733V407.091H200.301C200.301 405.97 200.074 404.962 199.619 404.068C199.172 403.167 198.547 402.455 197.744 401.932C196.949 401.409 196.028 401.148 194.983 401.148C193.877 401.148 192.903 401.443 192.062 402.034C191.222 402.625 190.563 403.405 190.085 404.375C189.616 405.345 189.377 406.405 189.369 407.557V408.625C189.369 410.011 189.608 411.223 190.085 412.261C190.57 413.292 191.256 414.091 192.142 414.659C193.028 415.227 194.078 415.511 195.29 415.511C196.116 415.511 196.839 415.383 197.46 415.125C198.089 414.867 198.616 414.523 199.04 414.091C199.472 413.652 199.797 413.17 200.017 412.648L201.938 413.273C201.672 414.008 201.237 414.686 200.631 415.307C200.032 415.928 199.282 416.428 198.381 416.807C197.487 417.178 196.456 417.364 195.29 417.364ZM206.827 423.545V399.545H208.793V402.875H209.031C209.274 402.352 209.607 401.818 210.031 401.273C210.455 400.72 211.016 400.254 211.713 399.875C212.418 399.496 213.304 399.307 214.372 399.307C215.812 399.307 217.069 399.686 218.145 400.443C219.228 401.193 220.069 402.246 220.668 403.602C221.274 404.951 221.577 406.523 221.577 408.318C221.577 410.121 221.274 411.701 220.668 413.057C220.069 414.413 219.228 415.47 218.145 416.227C217.069 416.985 215.819 417.364 214.395 417.364C213.342 417.364 212.459 417.174 211.747 416.795C211.043 416.417 210.471 415.951 210.031 415.398C209.599 414.837 209.266 414.292 209.031 413.761H208.849V423.545H206.827ZM208.827 408.284C208.827 409.693 209.035 410.943 209.452 412.034C209.876 413.117 210.482 413.97 211.27 414.591C212.065 415.205 213.027 415.511 214.156 415.511C215.315 415.511 216.293 415.193 217.088 414.557C217.891 413.913 218.501 413.045 218.918 411.955C219.342 410.864 219.554 409.64 219.554 408.284C219.554 406.943 219.346 405.735 218.929 404.659C218.52 403.583 217.914 402.731 217.111 402.102C216.308 401.466 215.323 401.148 214.156 401.148C213.02 401.148 212.054 401.455 211.259 402.068C210.463 402.674 209.857 403.515 209.44 404.591C209.031 405.659 208.827 406.89 208.827 408.284ZM232.889 399.545V401.307H224.56V399.545H232.889ZM227.162 395.364H229.196V412.443C229.196 413.17 229.321 413.742 229.571 414.159C229.821 414.568 230.147 414.86 230.548 415.034C230.95 415.201 231.378 415.284 231.832 415.284C232.098 415.284 232.325 415.269 232.514 415.239C232.704 415.201 232.87 415.163 233.014 415.125L233.446 416.955C233.249 417.03 233.007 417.098 232.719 417.159C232.431 417.227 232.075 417.261 231.651 417.261C230.908 417.261 230.192 417.098 229.503 416.773C228.821 416.447 228.26 415.962 227.821 415.318C227.382 414.674 227.162 413.875 227.162 412.92V395.364ZM248.898 403.375L247.045 403.898C246.864 403.375 246.606 402.902 246.273 402.477C245.939 402.053 245.504 401.716 244.966 401.466C244.436 401.216 243.777 401.091 242.989 401.091C241.807 401.091 240.837 401.371 240.08 401.932C239.322 402.492 238.943 403.216 238.943 404.102C238.943 404.852 239.201 405.462 239.716 405.932C240.239 406.394 241.042 406.761 242.125 407.034L244.761 407.682C246.223 408.038 247.318 408.602 248.045 409.375C248.78 410.148 249.148 411.117 249.148 412.284C249.148 413.269 248.875 414.144 248.33 414.909C247.784 415.674 247.023 416.277 246.045 416.716C245.076 417.148 243.951 417.364 242.67 417.364C240.966 417.364 239.561 416.981 238.455 416.216C237.348 415.443 236.64 414.33 236.33 412.875L238.273 412.398C238.523 413.436 239.011 414.22 239.739 414.75C240.473 415.28 241.439 415.545 242.636 415.545C243.977 415.545 245.049 415.246 245.852 414.648C246.655 414.042 247.057 413.284 247.057 412.375C247.057 411.67 246.822 411.08 246.352 410.602C245.883 410.117 245.17 409.761 244.216 409.534L241.364 408.852C239.848 408.489 238.727 407.913 238 407.125C237.273 406.337 236.909 405.36 236.909 404.193C236.909 403.231 237.17 402.386 237.693 401.659C238.216 400.924 238.936 400.348 239.852 399.932C240.769 399.515 241.814 399.307 242.989 399.307C244.587 399.307 245.864 399.67 246.818 400.398C247.78 401.117 248.473 402.11 248.898 403.375Z" fill="#3D3D3A"/>
<path d="M250.358 140.648C250.358 114.501 237.022 90.3093 215.892 76.0311L221.644 66.1173C222.437 64.7556 221.969 63.0121 220.607 62.2201C219.233 61.4225 217.499 61.8897 216.707 63.2571L211.04 73.0171C207.482 70.9773 203.747 69.1997 199.836 67.7297C198.371 67.16 196.717 67.9234 196.164 69.3934C195.611 70.8691 196.358 72.51 197.829 73.0627C201.444 74.4187 204.893 76.0653 208.183 77.9455L201.963 88.6741C193.239 83.7058 183.17 80.8228 172.429 80.8228C139.416 80.8228 112.562 107.658 112.562 140.648C112.562 161.125 122.922 179.215 138.664 190.006L132.5 200.717C129.975 199.042 127.517 197.265 125.202 195.265C124.011 194.234 122.209 194.365 121.177 195.555C120.145 196.746 120.276 198.541 121.468 199.572C124.056 201.811 126.816 203.794 129.655 205.657L124.723 214.232C123.937 215.594 124.41 217.337 125.778 218.124C126.229 218.38 126.713 218.5 127.198 218.5C128.184 218.5 129.142 217.987 129.672 217.07L134.53 208.62C144.679 214.272 156.002 217.594 167.696 218.306V238.464H150.591C149.018 238.464 147.741 239.74 147.741 241.313C147.741 242.885 149.018 244.162 150.591 244.162H190.503C192.076 244.162 193.353 242.885 193.353 241.313C193.353 239.74 192.076 238.464 190.503 238.464H173.398V218.471C215.914 217.947 250.358 183.26 250.358 140.648ZM118.264 140.648C118.264 110.804 142.564 86.5204 172.429 86.5204C202.293 86.5204 226.593 110.804 226.593 140.648C226.593 170.492 202.293 194.775 172.429 194.775C161.995 194.775 152.279 191.761 144 186.633C143.972 186.616 143.955 186.582 143.926 186.565C143.904 186.553 143.875 186.553 143.852 186.542C128.521 176.976 118.264 160.008 118.264 140.648ZM143.516 192.997C152.097 197.749 161.943 200.472 172.429 200.472C205.441 200.472 232.295 173.637 232.295 140.648C232.295 120.433 222.186 102.565 206.78 91.728L213.018 80.9766C232.42 94.2349 244.656 116.541 244.656 140.648C244.656 180.445 212.254 212.825 172.434 212.825C160.073 212.825 148.031 209.606 137.375 203.686L143.516 192.997Z" fill="#3D3D3A" stroke="#3D3D3A" stroke-width="7"/>
<circle cx="172.5" cy="173.5" r="9.5" fill="#3D3D3A"/>
<circle cx="138.5" cy="138.5" r="4.5" fill="#3D3D3A"/>
<circle cx="159" cy="133" r="4" fill="#3D3D3A"/>
<circle cx="150.5" cy="118.5" r="9.5" fill="#3D3D3A"/>
<circle cx="199" cy="133" r="12" fill="#3D3D3A"/>
<circle cx="188" cy="112" r="6" fill="#3D3D3A"/>
<circle cx="197" cy="153" r="3" fill="#3D3D3A"/>
<circle cx="155" cy="168" r="4" fill="#3D3D3A"/>
<circle cx="168.5" cy="154.5" r="4.5" fill="#3D3D3A"/>
</svg>
