<svg width="358" height="448" viewBox="0 0 358 448" fill="none" xmlns="http://www.w3.org/2000/svg">
<rect x="2.25" y="2.25" width="353.5" height="443.5" rx="69.75" fill="white"/>
<rect x="2.25" y="2.25" width="353.5" height="443.5" rx="69.75" stroke="#DDDDDD" stroke-width="4.5"/>
<path d="M131.697 315.239C131.413 314.318 131.021 313.494 130.521 312.767C130.032 312.028 129.441 311.398 128.748 310.875C128.066 310.352 127.282 309.96 126.396 309.699C125.509 309.426 124.543 309.29 123.498 309.29C121.623 309.29 119.952 309.761 118.487 310.705C117.021 311.648 115.867 313.034 115.026 314.864C114.197 316.682 113.782 318.898 113.782 321.511C113.782 324.148 114.197 326.381 115.026 328.21C115.856 330.04 117.009 331.432 118.487 332.386C119.964 333.33 121.68 333.801 123.634 333.801C125.407 333.801 126.941 333.46 128.237 332.778C129.543 332.097 130.549 331.131 131.254 329.881C131.958 328.619 132.31 327.142 132.31 325.449L133.742 325.67H124.265V320.727H138.43V324.92C138.43 327.909 137.793 330.494 136.521 332.676C135.248 334.858 133.498 336.54 131.271 337.722C129.043 338.892 126.487 339.477 123.6 339.477C120.384 339.477 117.56 338.756 115.129 337.312C112.708 335.858 110.816 333.795 109.452 331.125C108.1 328.443 107.424 325.261 107.424 321.58C107.424 318.761 107.822 316.244 108.617 314.028C109.424 311.812 110.549 309.932 111.992 308.386C113.435 306.83 115.129 305.648 117.072 304.841C119.015 304.023 121.129 303.614 123.413 303.614C125.344 303.614 127.146 303.898 128.816 304.466C130.487 305.023 131.969 305.818 133.265 306.852C134.572 307.886 135.646 309.114 136.487 310.534C137.327 311.955 137.879 313.523 138.14 315.239H131.697ZM150.442 304.091V339H144.272V304.091H150.442ZM168.208 339.511C165.651 339.511 163.435 338.949 161.56 337.824C159.685 336.699 158.231 335.125 157.197 333.102C156.174 331.08 155.663 328.716 155.663 326.011C155.663 323.307 156.174 320.937 157.197 318.903C158.231 316.869 159.685 315.29 161.56 314.165C163.435 313.04 165.651 312.477 168.208 312.477C170.765 312.477 172.981 313.04 174.856 314.165C176.731 315.29 178.18 316.869 179.202 318.903C180.237 320.937 180.754 323.307 180.754 326.011C180.754 328.716 180.237 331.08 179.202 333.102C178.18 335.125 176.731 336.699 174.856 337.824C172.981 338.949 170.765 339.511 168.208 339.511ZM168.242 334.568C169.629 334.568 170.788 334.187 171.719 333.426C172.651 332.653 173.344 331.619 173.799 330.324C174.265 329.028 174.498 327.585 174.498 325.994C174.498 324.392 174.265 322.943 173.799 321.648C173.344 320.341 172.651 319.301 171.719 318.528C170.788 317.756 169.629 317.369 168.242 317.369C166.822 317.369 165.64 317.756 164.697 318.528C163.765 319.301 163.066 320.341 162.6 321.648C162.146 322.943 161.918 324.392 161.918 325.994C161.918 327.585 162.146 329.028 162.6 330.324C163.066 331.619 163.765 332.653 164.697 333.426C165.64 334.187 166.822 334.568 168.242 334.568ZM186.263 339V304.091H192.434V317.148H192.69C193.008 316.511 193.457 315.835 194.036 315.119C194.616 314.392 195.4 313.773 196.388 313.261C197.377 312.739 198.638 312.477 200.173 312.477C202.195 312.477 204.019 312.994 205.644 314.028C207.281 315.051 208.576 316.568 209.531 318.58C210.496 320.58 210.979 323.034 210.979 325.943C210.979 328.818 210.508 331.261 209.565 333.273C208.621 335.284 207.337 336.818 205.712 337.875C204.087 338.932 202.246 339.46 200.19 339.46C198.69 339.46 197.445 339.21 196.457 338.71C195.468 338.21 194.673 337.608 194.07 336.903C193.479 336.187 193.019 335.511 192.69 334.875H192.332V339H186.263ZM192.315 325.909C192.315 327.602 192.553 329.085 193.031 330.358C193.519 331.631 194.218 332.625 195.127 333.341C196.048 334.045 197.161 334.398 198.468 334.398C199.832 334.398 200.974 334.034 201.894 333.307C202.815 332.568 203.508 331.562 203.974 330.29C204.451 329.006 204.69 327.545 204.69 325.909C204.69 324.284 204.457 322.841 203.991 321.58C203.525 320.318 202.832 319.33 201.911 318.614C200.991 317.898 199.843 317.54 198.468 317.54C197.15 317.54 196.031 317.886 195.11 318.58C194.19 319.273 193.491 320.244 193.013 321.494C192.548 322.744 192.315 324.216 192.315 325.909ZM223.759 339.528C222.1 339.528 220.606 339.233 219.276 338.642C217.958 338.04 216.913 337.153 216.14 335.983C215.379 334.812 214.998 333.369 214.998 331.653C214.998 330.176 215.271 328.955 215.816 327.989C216.362 327.023 217.106 326.25 218.049 325.67C218.992 325.091 220.055 324.653 221.237 324.358C222.43 324.051 223.663 323.83 224.935 323.693C226.469 323.534 227.714 323.392 228.668 323.267C229.623 323.131 230.316 322.926 230.748 322.653C231.191 322.369 231.413 321.932 231.413 321.341V321.239C231.413 319.955 231.032 318.96 230.271 318.256C229.509 317.551 228.413 317.199 226.981 317.199C225.469 317.199 224.271 317.528 223.384 318.188C222.509 318.847 221.918 319.625 221.612 320.523L215.85 319.705C216.305 318.114 217.055 316.784 218.1 315.716C219.146 314.636 220.424 313.83 221.935 313.295C223.447 312.75 225.117 312.477 226.947 312.477C228.208 312.477 229.464 312.625 230.714 312.92C231.964 313.216 233.106 313.705 234.14 314.386C235.174 315.057 236.004 315.972 236.629 317.131C237.265 318.29 237.583 319.739 237.583 321.477V339H231.651V335.403H231.447C231.072 336.131 230.543 336.812 229.862 337.449C229.191 338.074 228.344 338.58 227.322 338.966C226.31 339.341 225.123 339.528 223.759 339.528ZM225.362 334.994C226.6 334.994 227.674 334.75 228.583 334.261C229.492 333.761 230.191 333.102 230.68 332.284C231.18 331.466 231.43 330.574 231.43 329.608V326.523C231.237 326.682 230.907 326.83 230.441 326.966C229.987 327.102 229.475 327.222 228.907 327.324C228.339 327.426 227.776 327.517 227.219 327.597C226.663 327.676 226.18 327.744 225.771 327.801C224.85 327.926 224.026 328.131 223.299 328.415C222.572 328.699 221.998 329.097 221.577 329.608C221.157 330.108 220.947 330.756 220.947 331.551C220.947 332.688 221.362 333.545 222.191 334.125C223.021 334.705 224.077 334.994 225.362 334.994ZM249.958 304.091V339H243.788V304.091H249.958ZM77.1534 354.727V378H75.0284V354.727H77.1534ZM84.9432 367.091V378H82.9205V360.545H84.8864V363.284H85.0682C85.4773 362.39 86.1136 361.674 86.9773 361.136C87.8485 360.591 88.9242 360.318 90.2045 360.318C91.3788 360.318 92.4091 360.564 93.2955 361.057C94.1894 361.542 94.8826 362.258 95.375 363.205C95.875 364.152 96.125 365.314 96.125 366.693V378H94.1023V366.818C94.1023 365.386 93.7008 364.254 92.8977 363.42C92.1023 362.587 91.0341 362.17 89.6932 362.17C88.7765 362.17 87.9621 362.367 87.25 362.761C86.5379 363.155 85.9735 363.723 85.5568 364.466C85.1477 365.201 84.9432 366.076 84.9432 367.091ZM113.179 364.375L111.327 364.898C111.145 364.375 110.887 363.902 110.554 363.477C110.221 363.053 109.785 362.716 109.247 362.466C108.717 362.216 108.058 362.091 107.27 362.091C106.088 362.091 105.118 362.371 104.361 362.932C103.603 363.492 103.224 364.216 103.224 365.102C103.224 365.852 103.482 366.462 103.997 366.932C104.52 367.394 105.323 367.761 106.406 368.034L109.043 368.682C110.505 369.038 111.599 369.602 112.327 370.375C113.062 371.148 113.429 372.117 113.429 373.284C113.429 374.269 113.156 375.144 112.611 375.909C112.065 376.674 111.304 377.277 110.327 377.716C109.357 378.148 108.232 378.364 106.952 378.364C105.247 378.364 103.842 377.981 102.736 377.216C101.63 376.443 100.921 375.33 100.611 373.875L102.554 373.398C102.804 374.436 103.293 375.22 104.02 375.75C104.755 376.28 105.721 376.545 106.918 376.545C108.259 376.545 109.33 376.246 110.134 375.648C110.937 375.042 111.338 374.284 111.338 373.375C111.338 372.67 111.103 372.08 110.634 371.602C110.164 371.117 109.452 370.761 108.497 370.534L105.645 369.852C104.13 369.489 103.009 368.913 102.281 368.125C101.554 367.337 101.19 366.36 101.19 365.193C101.19 364.231 101.452 363.386 101.974 362.659C102.497 361.924 103.217 361.348 104.134 360.932C105.05 360.515 106.096 360.307 107.27 360.307C108.868 360.307 110.145 360.67 111.099 361.398C112.062 362.117 112.755 363.11 113.179 364.375ZM117.858 384.545V360.545H119.824V363.875H120.062C120.305 363.352 120.638 362.818 121.062 362.273C121.487 361.72 122.047 361.254 122.744 360.875C123.449 360.496 124.335 360.307 125.403 360.307C126.843 360.307 128.1 360.686 129.176 361.443C130.259 362.193 131.1 363.246 131.699 364.602C132.305 365.951 132.608 367.523 132.608 369.318C132.608 371.121 132.305 372.701 131.699 374.057C131.1 375.413 130.259 376.47 129.176 377.227C128.1 377.985 126.85 378.364 125.426 378.364C124.373 378.364 123.491 378.174 122.778 377.795C122.074 377.417 121.502 376.951 121.062 376.398C120.631 375.837 120.297 375.292 120.062 374.761H119.881V384.545H117.858ZM119.858 369.284C119.858 370.693 120.066 371.943 120.483 373.034C120.907 374.117 121.513 374.97 122.301 375.591C123.097 376.205 124.059 376.511 125.188 376.511C126.347 376.511 127.324 376.193 128.119 375.557C128.922 374.913 129.532 374.045 129.949 372.955C130.373 371.864 130.585 370.64 130.585 369.284C130.585 367.943 130.377 366.735 129.96 365.659C129.551 364.583 128.945 363.731 128.142 363.102C127.339 362.466 126.354 362.148 125.188 362.148C124.051 362.148 123.085 362.455 122.29 363.068C121.494 363.674 120.888 364.515 120.472 365.591C120.062 366.659 119.858 367.89 119.858 369.284ZM144.102 378.364C142.473 378.364 141.064 377.985 139.875 377.227C138.686 376.462 137.765 375.405 137.114 374.057C136.47 372.701 136.148 371.14 136.148 369.375C136.148 367.617 136.47 366.057 137.114 364.693C137.765 363.322 138.663 362.25 139.807 361.477C140.958 360.697 142.288 360.307 143.795 360.307C144.742 360.307 145.655 360.481 146.534 360.83C147.413 361.17 148.201 361.697 148.898 362.409C149.602 363.114 150.159 364.004 150.568 365.08C150.977 366.148 151.182 367.413 151.182 368.875V369.875H137.545V368.091H149.114C149.114 366.97 148.886 365.962 148.432 365.068C147.985 364.167 147.36 363.455 146.557 362.932C145.761 362.409 144.841 362.148 143.795 362.148C142.689 362.148 141.716 362.443 140.875 363.034C140.034 363.625 139.375 364.405 138.898 365.375C138.428 366.345 138.189 367.405 138.182 368.557V369.625C138.182 371.011 138.42 372.223 138.898 373.261C139.383 374.292 140.068 375.091 140.955 375.659C141.841 376.227 142.89 376.511 144.102 376.511C144.928 376.511 145.652 376.383 146.273 376.125C146.902 375.867 147.428 375.523 147.852 375.091C148.284 374.652 148.61 374.17 148.83 373.648L150.75 374.273C150.485 375.008 150.049 375.686 149.443 376.307C148.845 376.928 148.095 377.428 147.193 377.807C146.299 378.178 145.269 378.364 144.102 378.364ZM162.457 378.364C160.897 378.364 159.537 377.973 158.378 377.193C157.226 376.413 156.332 375.345 155.696 373.989C155.06 372.633 154.741 371.087 154.741 369.352C154.741 367.602 155.063 366.045 155.707 364.682C156.359 363.318 157.26 362.25 158.412 361.477C159.563 360.697 160.901 360.307 162.423 360.307C163.59 360.307 164.647 360.534 165.594 360.989C166.541 361.436 167.321 362.068 167.935 362.886C168.556 363.697 168.946 364.644 169.105 365.727H167.06C166.848 364.742 166.336 363.902 165.526 363.205C164.723 362.5 163.7 362.148 162.457 362.148C161.344 362.148 160.359 362.451 159.503 363.057C158.647 363.655 157.976 364.492 157.491 365.568C157.014 366.636 156.776 367.875 156.776 369.284C156.776 370.701 157.01 371.955 157.48 373.045C157.95 374.129 158.609 374.977 159.457 375.591C160.313 376.205 161.313 376.511 162.457 376.511C163.23 376.511 163.935 376.367 164.571 376.08C165.215 375.784 165.753 375.367 166.185 374.83C166.624 374.292 166.92 373.652 167.071 372.909H169.116C168.965 373.962 168.59 374.902 167.991 375.727C167.401 376.545 166.632 377.189 165.685 377.659C164.745 378.129 163.67 378.364 162.457 378.364ZM180.327 360.545V362.307H171.997V360.545H180.327ZM174.599 356.364H176.634V373.443C176.634 374.17 176.759 374.742 177.009 375.159C177.259 375.568 177.584 375.86 177.986 376.034C178.387 376.201 178.815 376.284 179.27 376.284C179.535 376.284 179.762 376.269 179.952 376.239C180.141 376.201 180.308 376.163 180.452 376.125L180.884 377.955C180.687 378.03 180.444 378.098 180.156 378.159C179.868 378.227 179.512 378.261 179.088 378.261C178.346 378.261 177.63 378.098 176.94 377.773C176.259 377.447 175.698 376.962 175.259 376.318C174.819 375.674 174.599 374.875 174.599 373.92V356.364ZM210.443 362C210.231 361.227 209.92 360.504 209.511 359.83C209.102 359.148 208.595 358.553 207.989 358.045C207.39 357.53 206.697 357.129 205.909 356.841C205.129 356.553 204.258 356.409 203.295 356.409C201.78 356.409 200.424 356.803 199.227 357.591C198.03 358.379 197.083 359.515 196.386 361C195.697 362.485 195.352 364.273 195.352 366.364C195.352 368.447 195.701 370.231 196.398 371.716C197.095 373.201 198.049 374.341 199.261 375.136C200.481 375.924 201.875 376.318 203.443 376.318C204.875 376.318 206.14 376 207.239 375.364C208.337 374.727 209.193 373.818 209.807 372.636C210.428 371.455 210.731 370.049 210.716 368.42L211.398 368.636H203.943V366.727H212.784V368.636C212.784 370.621 212.383 372.337 211.58 373.784C210.777 375.231 209.674 376.348 208.273 377.136C206.871 377.924 205.261 378.318 203.443 378.318C201.413 378.318 199.636 377.83 198.114 376.852C196.591 375.867 195.405 374.481 194.557 372.693C193.716 370.898 193.295 368.788 193.295 366.364C193.295 364.538 193.538 362.89 194.023 361.42C194.508 359.951 195.193 358.693 196.08 357.648C196.973 356.602 198.03 355.803 199.25 355.25C200.47 354.689 201.818 354.409 203.295 354.409C204.568 354.409 205.731 354.61 206.784 355.011C207.845 355.413 208.777 355.966 209.58 356.67C210.39 357.367 211.053 358.174 211.568 359.091C212.091 360 212.443 360.97 212.625 362H210.443ZM219.662 354.727V378H217.639V354.727H219.662ZM231.798 378.364C230.291 378.364 228.957 377.981 227.798 377.216C226.647 376.451 225.745 375.394 225.094 374.045C224.442 372.689 224.116 371.125 224.116 369.352C224.116 367.564 224.442 365.992 225.094 364.636C225.745 363.273 226.647 362.212 227.798 361.455C228.957 360.689 230.291 360.307 231.798 360.307C233.306 360.307 234.635 360.689 235.787 361.455C236.938 362.22 237.84 363.28 238.491 364.636C239.151 365.992 239.48 367.564 239.48 369.352C239.48 371.125 239.154 372.689 238.503 374.045C237.851 375.394 236.946 376.451 235.787 377.216C234.635 377.981 233.306 378.364 231.798 378.364ZM231.798 376.511C233.01 376.511 234.037 376.186 234.878 375.534C235.719 374.883 236.355 374.015 236.787 372.932C237.226 371.848 237.446 370.655 237.446 369.352C237.446 368.049 237.226 366.852 236.787 365.761C236.355 364.67 235.719 363.795 234.878 363.136C234.037 362.477 233.01 362.148 231.798 362.148C230.594 362.148 229.567 362.477 228.719 363.136C227.878 363.795 227.238 364.67 226.798 365.761C226.366 366.852 226.151 368.049 226.151 369.352C226.151 370.655 226.366 371.848 226.798 372.932C227.238 374.015 227.878 374.883 228.719 375.534C229.56 376.186 230.586 376.511 231.798 376.511ZM244.341 378V354.727H246.375V363.875H246.557C246.784 363.352 247.11 362.814 247.534 362.261C247.966 361.708 248.53 361.246 249.227 360.875C249.932 360.496 250.818 360.307 251.886 360.307C253.318 360.307 254.576 360.686 255.659 361.443C256.742 362.193 257.587 363.246 258.193 364.602C258.799 365.951 259.102 367.523 259.102 369.318C259.102 371.121 258.799 372.701 258.193 374.057C257.595 375.413 256.754 376.47 255.67 377.227C254.595 377.985 253.345 378.364 251.92 378.364C250.86 378.364 249.973 378.174 249.261 377.795C248.557 377.417 247.989 376.951 247.557 376.398C247.125 375.837 246.792 375.292 246.557 374.761H246.307V378H244.341ZM246.341 369.284C246.341 370.693 246.549 371.943 246.966 373.034C247.39 374.117 247.996 374.97 248.784 375.591C249.58 376.205 250.542 376.511 251.67 376.511C252.83 376.511 253.811 376.193 254.614 375.557C255.417 374.913 256.027 374.045 256.443 372.955C256.86 371.864 257.068 370.64 257.068 369.284C257.068 367.943 256.86 366.735 256.443 365.659C256.034 364.583 255.428 363.731 254.625 363.102C253.822 362.466 252.837 362.148 251.67 362.148C250.534 362.148 249.568 362.455 248.773 363.068C247.985 363.674 247.383 364.515 246.966 365.591C246.549 366.659 246.341 367.89 246.341 369.284ZM268.42 378.398C267.367 378.398 266.405 378.193 265.534 377.784C264.663 377.367 263.97 376.769 263.455 375.989C262.939 375.201 262.682 374.246 262.682 373.125C262.682 372.261 262.845 371.534 263.17 370.943C263.496 370.352 263.958 369.867 264.557 369.489C265.155 369.11 265.864 368.811 266.682 368.591C267.5 368.371 268.402 368.201 269.386 368.08C270.364 367.958 271.189 367.852 271.864 367.761C272.545 367.67 273.064 367.527 273.42 367.33C273.777 367.133 273.955 366.814 273.955 366.375V365.966C273.955 364.777 273.598 363.841 272.886 363.159C272.182 362.47 271.167 362.125 269.841 362.125C268.583 362.125 267.557 362.402 266.761 362.955C265.973 363.508 265.42 364.159 265.102 364.909L263.182 364.216C263.576 363.261 264.121 362.5 264.818 361.932C265.515 361.356 266.295 360.943 267.159 360.693C268.023 360.436 268.898 360.307 269.784 360.307C270.451 360.307 271.144 360.394 271.864 360.568C272.591 360.742 273.265 361.045 273.886 361.477C274.508 361.902 275.011 362.496 275.398 363.261C275.784 364.019 275.977 364.981 275.977 366.148V378H273.955V375.239H273.83C273.587 375.754 273.227 376.254 272.75 376.739C272.273 377.223 271.674 377.621 270.955 377.932C270.235 378.242 269.39 378.398 268.42 378.398ZM268.693 376.545C269.769 376.545 270.701 376.307 271.489 375.83C272.277 375.352 272.883 374.72 273.307 373.932C273.739 373.136 273.955 372.261 273.955 371.307V368.784C273.803 368.928 273.549 369.057 273.193 369.17C272.845 369.284 272.439 369.386 271.977 369.477C271.523 369.561 271.068 369.633 270.614 369.693C270.159 369.754 269.75 369.807 269.386 369.852C268.402 369.973 267.561 370.163 266.864 370.42C266.167 370.678 265.633 371.034 265.261 371.489C264.89 371.936 264.705 372.511 264.705 373.216C264.705 374.277 265.083 375.098 265.841 375.682C266.598 376.258 267.549 376.545 268.693 376.545ZM283.381 354.727V378H281.358V354.727H283.381ZM87.4503 417V393.727H100.95V395.636H89.5753V404.398H100.234V406.307H89.5753V415.091H101.178V417H87.4503ZM107.28 399.545L111.78 406.989L116.28 399.545H118.632L113.018 408.273L118.632 417H116.28L111.78 409.795L107.28 417H104.939L110.484 408.273L104.939 399.545H107.28ZM122.874 423.545V399.545H124.839V402.875H125.078C125.321 402.352 125.654 401.818 126.078 401.273C126.502 400.72 127.063 400.254 127.76 399.875C128.464 399.496 129.351 399.307 130.419 399.307C131.858 399.307 133.116 399.686 134.192 400.443C135.275 401.193 136.116 402.246 136.714 403.602C137.321 404.951 137.624 406.523 137.624 408.318C137.624 410.121 137.321 411.701 136.714 413.057C136.116 414.413 135.275 415.47 134.192 416.227C133.116 416.985 131.866 417.364 130.442 417.364C129.389 417.364 128.506 417.174 127.794 416.795C127.089 416.417 126.518 415.951 126.078 415.398C125.646 414.837 125.313 414.292 125.078 413.761H124.896V423.545H122.874ZM124.874 408.284C124.874 409.693 125.082 410.943 125.499 412.034C125.923 413.117 126.529 413.97 127.317 414.591C128.112 415.205 129.074 415.511 130.203 415.511C131.362 415.511 132.339 415.193 133.135 414.557C133.938 413.913 134.548 413.045 134.964 411.955C135.389 410.864 135.601 409.64 135.601 408.284C135.601 406.943 135.393 405.735 134.976 404.659C134.567 403.583 133.961 402.731 133.158 402.102C132.355 401.466 131.37 401.148 130.203 401.148C129.067 401.148 128.101 401.455 127.305 402.068C126.51 402.674 125.904 403.515 125.487 404.591C125.078 405.659 124.874 406.89 124.874 408.284ZM144.084 393.727V417H142.061V393.727H144.084ZM154.311 417.398C153.258 417.398 152.296 417.193 151.425 416.784C150.554 416.367 149.86 415.769 149.345 414.989C148.83 414.201 148.572 413.246 148.572 412.125C148.572 411.261 148.735 410.534 149.061 409.943C149.387 409.352 149.849 408.867 150.447 408.489C151.046 408.11 151.754 407.811 152.572 407.591C153.391 407.371 154.292 407.201 155.277 407.08C156.254 406.958 157.08 406.852 157.754 406.761C158.436 406.67 158.955 406.527 159.311 406.33C159.667 406.133 159.845 405.814 159.845 405.375V404.966C159.845 403.777 159.489 402.841 158.777 402.159C158.072 401.47 157.057 401.125 155.732 401.125C154.474 401.125 153.447 401.402 152.652 401.955C151.864 402.508 151.311 403.159 150.993 403.909L149.072 403.216C149.466 402.261 150.012 401.5 150.709 400.932C151.406 400.356 152.186 399.943 153.05 399.693C153.913 399.436 154.788 399.307 155.675 399.307C156.341 399.307 157.035 399.394 157.754 399.568C158.482 399.742 159.156 400.045 159.777 400.477C160.398 400.902 160.902 401.496 161.288 402.261C161.675 403.019 161.868 403.981 161.868 405.148V417H159.845V414.239H159.72C159.478 414.754 159.118 415.254 158.641 415.739C158.163 416.223 157.565 416.621 156.845 416.932C156.125 417.242 155.281 417.398 154.311 417.398ZM154.584 415.545C155.66 415.545 156.591 415.307 157.379 414.83C158.167 414.352 158.773 413.72 159.197 412.932C159.629 412.136 159.845 411.261 159.845 410.307V407.784C159.694 407.928 159.44 408.057 159.084 408.17C158.735 408.284 158.33 408.386 157.868 408.477C157.413 408.561 156.959 408.633 156.504 408.693C156.05 408.754 155.641 408.807 155.277 408.852C154.292 408.973 153.451 409.163 152.754 409.42C152.057 409.678 151.523 410.034 151.152 410.489C150.781 410.936 150.595 411.511 150.595 412.216C150.595 413.277 150.974 414.098 151.732 414.682C152.489 415.258 153.44 415.545 154.584 415.545ZM169.271 406.091V417H167.249V399.545H169.214V402.284H169.396C169.805 401.39 170.442 400.674 171.305 400.136C172.177 399.591 173.252 399.318 174.533 399.318C175.707 399.318 176.737 399.564 177.624 400.057C178.518 400.542 179.211 401.258 179.703 402.205C180.203 403.152 180.453 404.314 180.453 405.693V417H178.43V405.818C178.43 404.386 178.029 403.254 177.226 402.42C176.43 401.587 175.362 401.17 174.021 401.17C173.105 401.17 172.29 401.367 171.578 401.761C170.866 402.155 170.302 402.723 169.885 403.466C169.476 404.201 169.271 405.076 169.271 406.091ZM190.655 417.398C189.602 417.398 188.64 417.193 187.768 416.784C186.897 416.367 186.204 415.769 185.689 414.989C185.174 414.201 184.916 413.246 184.916 412.125C184.916 411.261 185.079 410.534 185.405 409.943C185.731 409.352 186.193 408.867 186.791 408.489C187.39 408.11 188.098 407.811 188.916 407.591C189.734 407.371 190.636 407.201 191.621 407.08C192.598 406.958 193.424 406.852 194.098 406.761C194.78 406.67 195.299 406.527 195.655 406.33C196.011 406.133 196.189 405.814 196.189 405.375V404.966C196.189 403.777 195.833 402.841 195.121 402.159C194.416 401.47 193.401 401.125 192.075 401.125C190.818 401.125 189.791 401.402 188.996 401.955C188.208 402.508 187.655 403.159 187.337 403.909L185.416 403.216C185.81 402.261 186.356 401.5 187.053 400.932C187.75 400.356 188.53 399.943 189.393 399.693C190.257 399.436 191.132 399.307 192.018 399.307C192.685 399.307 193.378 399.394 194.098 399.568C194.825 399.742 195.5 400.045 196.121 400.477C196.742 400.902 197.246 401.496 197.632 402.261C198.018 403.019 198.212 403.981 198.212 405.148V417H196.189V414.239H196.064C195.821 414.754 195.462 415.254 194.984 415.739C194.507 416.223 193.909 416.621 193.189 416.932C192.469 417.242 191.625 417.398 190.655 417.398ZM190.928 415.545C192.003 415.545 192.935 415.307 193.723 414.83C194.511 414.352 195.117 413.72 195.541 412.932C195.973 412.136 196.189 411.261 196.189 410.307V407.784C196.037 407.928 195.784 408.057 195.428 408.17C195.079 408.284 194.674 408.386 194.212 408.477C193.757 408.561 193.303 408.633 192.848 408.693C192.393 408.754 191.984 408.807 191.621 408.852C190.636 408.973 189.795 409.163 189.098 409.42C188.401 409.678 187.867 410.034 187.496 410.489C187.125 410.936 186.939 411.511 186.939 412.216C186.939 413.277 187.318 414.098 188.075 414.682C188.833 415.258 189.784 415.545 190.928 415.545ZM210.467 399.545V401.307H202.138V399.545H210.467ZM204.74 395.364H206.774V412.443C206.774 413.17 206.899 413.742 207.149 414.159C207.399 414.568 207.725 414.86 208.126 415.034C208.528 415.201 208.956 415.284 209.411 415.284C209.676 415.284 209.903 415.269 210.092 415.239C210.282 415.201 210.448 415.163 210.592 415.125L211.024 416.955C210.827 417.03 210.585 417.098 210.297 417.159C210.009 417.227 209.653 417.261 209.229 417.261C208.486 417.261 207.77 417.098 207.081 416.773C206.399 416.447 205.839 415.962 205.399 415.318C204.96 414.674 204.74 413.875 204.74 412.92V395.364ZM215.084 417V399.545H217.118V417H215.084ZM216.118 396.545C215.701 396.545 215.345 396.405 215.05 396.125C214.754 395.837 214.607 395.492 214.607 395.091C214.607 394.689 214.754 394.348 215.05 394.068C215.345 393.78 215.701 393.636 216.118 393.636C216.535 393.636 216.891 393.78 217.186 394.068C217.482 394.348 217.629 394.689 217.629 395.091C217.629 395.492 217.482 395.837 217.186 396.125C216.891 396.405 216.535 396.545 216.118 396.545ZM229.251 417.364C227.744 417.364 226.411 416.981 225.251 416.216C224.1 415.451 223.198 414.394 222.547 413.045C221.895 411.689 221.57 410.125 221.57 408.352C221.57 406.564 221.895 404.992 222.547 403.636C223.198 402.273 224.1 401.212 225.251 400.455C226.411 399.689 227.744 399.307 229.251 399.307C230.759 399.307 232.089 399.689 233.24 400.455C234.392 401.22 235.293 402.28 235.945 403.636C236.604 404.992 236.933 406.564 236.933 408.352C236.933 410.125 236.607 411.689 235.956 413.045C235.304 414.394 234.399 415.451 233.24 416.216C232.089 416.981 230.759 417.364 229.251 417.364ZM229.251 415.511C230.464 415.511 231.49 415.186 232.331 414.534C233.172 413.883 233.808 413.015 234.24 411.932C234.679 410.848 234.899 409.655 234.899 408.352C234.899 407.049 234.679 405.852 234.24 404.761C233.808 403.67 233.172 402.795 232.331 402.136C231.49 401.477 230.464 401.148 229.251 401.148C228.047 401.148 227.02 401.477 226.172 402.136C225.331 402.795 224.691 403.67 224.251 404.761C223.82 405.852 223.604 407.049 223.604 408.352C223.604 409.655 223.82 410.848 224.251 411.932C224.691 413.015 225.331 413.883 226.172 414.534C227.013 415.186 228.039 415.511 229.251 415.511ZM243.396 406.091V417H241.374V399.545H243.339V402.284H243.521C243.93 401.39 244.567 400.674 245.43 400.136C246.302 399.591 247.377 399.318 248.658 399.318C249.832 399.318 250.862 399.564 251.749 400.057C252.643 400.542 253.336 401.258 253.828 402.205C254.328 403.152 254.578 404.314 254.578 405.693V417H252.555V405.818C252.555 404.386 252.154 403.254 251.351 402.42C250.555 401.587 249.487 401.17 248.146 401.17C247.23 401.17 246.415 401.367 245.703 401.761C244.991 402.155 244.427 402.723 244.01 403.466C243.601 404.201 243.396 405.076 243.396 406.091ZM271.632 403.375L269.78 403.898C269.598 403.375 269.34 402.902 269.007 402.477C268.674 402.053 268.238 401.716 267.7 401.466C267.17 401.216 266.511 401.091 265.723 401.091C264.541 401.091 263.571 401.371 262.814 401.932C262.056 402.492 261.678 403.216 261.678 404.102C261.678 404.852 261.935 405.462 262.45 405.932C262.973 406.394 263.776 406.761 264.859 407.034L267.496 407.682C268.958 408.038 270.053 408.602 270.78 409.375C271.515 410.148 271.882 411.117 271.882 412.284C271.882 413.269 271.609 414.144 271.064 414.909C270.518 415.674 269.757 416.277 268.78 416.716C267.81 417.148 266.685 417.364 265.405 417.364C263.7 417.364 262.295 416.981 261.189 416.216C260.083 415.443 259.375 414.33 259.064 412.875L261.007 412.398C261.257 413.436 261.746 414.22 262.473 414.75C263.208 415.28 264.174 415.545 265.371 415.545C266.712 415.545 267.784 415.246 268.587 414.648C269.39 414.042 269.791 413.284 269.791 412.375C269.791 411.67 269.556 411.08 269.087 410.602C268.617 410.117 267.905 409.761 266.95 409.534L264.098 408.852C262.583 408.489 261.462 407.913 260.734 407.125C260.007 406.337 259.643 405.36 259.643 404.193C259.643 403.231 259.905 402.386 260.428 401.659C260.95 400.924 261.67 400.348 262.587 399.932C263.503 399.515 264.549 399.307 265.723 399.307C267.321 399.307 268.598 399.67 269.553 400.398C270.515 401.117 271.208 402.11 271.632 403.375Z" fill="#3D3D3A"/>
<rect x="87.75" y="51.25" width="51.2841" height="53.4432" rx="11.75" stroke="#3D3D3A" stroke-width="13.5"/>
<rect x="87.75" y="201.307" width="51.2841" height="53.4432" rx="11.75" stroke="#3D3D3A" stroke-width="13.5"/>
<rect x="87.75" y="126.818" width="51.2841" height="53.4432" rx="11.75" stroke="#3D3D3A" stroke-width="13.5"/>
<circle cx="240" cy="151.5" r="29.25" stroke="#3D3D3A" stroke-width="13.5"/>
<line x1="158.915" y1="209.803" x2="192.056" y2="188.713" stroke="#3D3D3A" stroke-width="13.5" stroke-linecap="round"/>
<line x1="6.75" y1="-6.75" x2="46.0333" y2="-6.75" transform="matrix(-0.843661 -0.536875 -0.536875 0.843661 197.327 126.011)" stroke="#3D3D3A" stroke-width="13.5" stroke-linecap="round"/>
<line x1="159.546" y1="151.648" x2="190.307" y2="151.648" stroke="#3D3D3A" stroke-width="13.5" stroke-linecap="round"/>
</svg>
