<svg width="358" height="448" viewBox="0 0 358 448" fill="none" xmlns="http://www.w3.org/2000/svg">
<rect x="2.25" y="2.25" width="353.5" height="443.5" rx="69.75" fill="white"/>
<rect x="2.25" y="2.25" width="353.5" height="443.5" rx="69.75" stroke="#DDDDDD" stroke-width="4.5"/>
<path d="M131.697 313.239C131.413 312.318 131.021 311.494 130.521 310.767C130.032 310.028 129.441 309.398 128.748 308.875C128.066 308.352 127.282 307.96 126.396 307.699C125.509 307.426 124.543 307.29 123.498 307.29C121.623 307.29 119.952 307.761 118.487 308.705C117.021 309.648 115.867 311.034 115.026 312.864C114.197 314.682 113.782 316.898 113.782 319.511C113.782 322.148 114.197 324.381 115.026 326.21C115.856 328.04 117.009 329.432 118.487 330.386C119.964 331.33 121.68 331.801 123.634 331.801C125.407 331.801 126.941 331.46 128.237 330.778C129.543 330.097 130.549 329.131 131.254 327.881C131.958 326.619 132.31 325.142 132.31 323.449L133.742 323.67H124.265V318.727H138.43V322.92C138.43 325.909 137.793 328.494 136.521 330.676C135.248 332.858 133.498 334.54 131.271 335.722C129.043 336.892 126.487 337.477 123.6 337.477C120.384 337.477 117.56 336.756 115.129 335.312C112.708 333.858 110.816 331.795 109.452 329.125C108.1 326.443 107.424 323.261 107.424 319.58C107.424 316.761 107.822 314.244 108.617 312.028C109.424 309.812 110.549 307.932 111.992 306.386C113.435 304.83 115.129 303.648 117.072 302.841C119.015 302.023 121.129 301.614 123.413 301.614C125.344 301.614 127.146 301.898 128.816 302.466C130.487 303.023 131.969 303.818 133.265 304.852C134.572 305.886 135.646 307.114 136.487 308.534C137.327 309.955 137.879 311.523 138.14 313.239H131.697ZM150.442 302.091V337H144.272V302.091H150.442ZM168.208 337.511C165.651 337.511 163.435 336.949 161.56 335.824C159.685 334.699 158.231 333.125 157.197 331.102C156.174 329.08 155.663 326.716 155.663 324.011C155.663 321.307 156.174 318.937 157.197 316.903C158.231 314.869 159.685 313.29 161.56 312.165C163.435 311.04 165.651 310.477 168.208 310.477C170.765 310.477 172.981 311.04 174.856 312.165C176.731 313.29 178.18 314.869 179.202 316.903C180.237 318.937 180.754 321.307 180.754 324.011C180.754 326.716 180.237 329.08 179.202 331.102C178.18 333.125 176.731 334.699 174.856 335.824C172.981 336.949 170.765 337.511 168.208 337.511ZM168.242 332.568C169.629 332.568 170.788 332.187 171.719 331.426C172.651 330.653 173.344 329.619 173.799 328.324C174.265 327.028 174.498 325.585 174.498 323.994C174.498 322.392 174.265 320.943 173.799 319.648C173.344 318.341 172.651 317.301 171.719 316.528C170.788 315.756 169.629 315.369 168.242 315.369C166.822 315.369 165.64 315.756 164.697 316.528C163.765 317.301 163.066 318.341 162.6 319.648C162.146 320.943 161.918 322.392 161.918 323.994C161.918 325.585 162.146 327.028 162.6 328.324C163.066 329.619 163.765 330.653 164.697 331.426C165.64 332.187 166.822 332.568 168.242 332.568ZM186.263 337V302.091H192.434V315.148H192.69C193.008 314.511 193.457 313.835 194.036 313.119C194.616 312.392 195.4 311.773 196.388 311.261C197.377 310.739 198.638 310.477 200.173 310.477C202.195 310.477 204.019 310.994 205.644 312.028C207.281 313.051 208.576 314.568 209.531 316.58C210.496 318.58 210.979 321.034 210.979 323.943C210.979 326.818 210.508 329.261 209.565 331.273C208.621 333.284 207.337 334.818 205.712 335.875C204.087 336.932 202.246 337.46 200.19 337.46C198.69 337.46 197.445 337.21 196.457 336.71C195.468 336.21 194.673 335.608 194.07 334.903C193.479 334.187 193.019 333.511 192.69 332.875H192.332V337H186.263ZM192.315 323.909C192.315 325.602 192.553 327.085 193.031 328.358C193.519 329.631 194.218 330.625 195.127 331.341C196.048 332.045 197.161 332.398 198.468 332.398C199.832 332.398 200.974 332.034 201.894 331.307C202.815 330.568 203.508 329.562 203.974 328.29C204.451 327.006 204.69 325.545 204.69 323.909C204.69 322.284 204.457 320.841 203.991 319.58C203.525 318.318 202.832 317.33 201.911 316.614C200.991 315.898 199.843 315.54 198.468 315.54C197.15 315.54 196.031 315.886 195.11 316.58C194.19 317.273 193.491 318.244 193.013 319.494C192.548 320.744 192.315 322.216 192.315 323.909ZM223.759 337.528C222.1 337.528 220.606 337.233 219.276 336.642C217.958 336.04 216.913 335.153 216.14 333.983C215.379 332.812 214.998 331.369 214.998 329.653C214.998 328.176 215.271 326.955 215.816 325.989C216.362 325.023 217.106 324.25 218.049 323.67C218.992 323.091 220.055 322.653 221.237 322.358C222.43 322.051 223.663 321.83 224.935 321.693C226.469 321.534 227.714 321.392 228.668 321.267C229.623 321.131 230.316 320.926 230.748 320.653C231.191 320.369 231.413 319.932 231.413 319.341V319.239C231.413 317.955 231.032 316.96 230.271 316.256C229.509 315.551 228.413 315.199 226.981 315.199C225.469 315.199 224.271 315.528 223.384 316.188C222.509 316.847 221.918 317.625 221.612 318.523L215.85 317.705C216.305 316.114 217.055 314.784 218.1 313.716C219.146 312.636 220.424 311.83 221.935 311.295C223.447 310.75 225.117 310.477 226.947 310.477C228.208 310.477 229.464 310.625 230.714 310.92C231.964 311.216 233.106 311.705 234.14 312.386C235.174 313.057 236.004 313.972 236.629 315.131C237.265 316.29 237.583 317.739 237.583 319.477V337H231.651V333.403H231.447C231.072 334.131 230.543 334.812 229.862 335.449C229.191 336.074 228.344 336.58 227.322 336.966C226.31 337.341 225.123 337.528 223.759 337.528ZM225.362 332.994C226.6 332.994 227.674 332.75 228.583 332.261C229.492 331.761 230.191 331.102 230.68 330.284C231.18 329.466 231.43 328.574 231.43 327.608V324.523C231.237 324.682 230.907 324.83 230.441 324.966C229.987 325.102 229.475 325.222 228.907 325.324C228.339 325.426 227.776 325.517 227.219 325.597C226.663 325.676 226.18 325.744 225.771 325.801C224.85 325.926 224.026 326.131 223.299 326.415C222.572 326.699 221.998 327.097 221.577 327.608C221.157 328.108 220.947 328.756 220.947 329.551C220.947 330.688 221.362 331.545 222.191 332.125C223.021 332.705 224.077 332.994 225.362 332.994ZM249.958 302.091V337H243.788V302.091H249.958ZM77.1534 352.727V376H75.0284V352.727H77.1534ZM84.9432 365.091V376H82.9205V358.545H84.8864V361.284H85.0682C85.4773 360.39 86.1136 359.674 86.9773 359.136C87.8485 358.591 88.9242 358.318 90.2045 358.318C91.3788 358.318 92.4091 358.564 93.2955 359.057C94.1894 359.542 94.8826 360.258 95.375 361.205C95.875 362.152 96.125 363.314 96.125 364.693V376H94.1023V364.818C94.1023 363.386 93.7008 362.254 92.8977 361.42C92.1023 360.587 91.0341 360.17 89.6932 360.17C88.7765 360.17 87.9621 360.367 87.25 360.761C86.5379 361.155 85.9735 361.723 85.5568 362.466C85.1477 363.201 84.9432 364.076 84.9432 365.091ZM113.179 362.375L111.327 362.898C111.145 362.375 110.887 361.902 110.554 361.477C110.221 361.053 109.785 360.716 109.247 360.466C108.717 360.216 108.058 360.091 107.27 360.091C106.088 360.091 105.118 360.371 104.361 360.932C103.603 361.492 103.224 362.216 103.224 363.102C103.224 363.852 103.482 364.462 103.997 364.932C104.52 365.394 105.323 365.761 106.406 366.034L109.043 366.682C110.505 367.038 111.599 367.602 112.327 368.375C113.062 369.148 113.429 370.117 113.429 371.284C113.429 372.269 113.156 373.144 112.611 373.909C112.065 374.674 111.304 375.277 110.327 375.716C109.357 376.148 108.232 376.364 106.952 376.364C105.247 376.364 103.842 375.981 102.736 375.216C101.63 374.443 100.921 373.33 100.611 371.875L102.554 371.398C102.804 372.436 103.293 373.22 104.02 373.75C104.755 374.28 105.721 374.545 106.918 374.545C108.259 374.545 109.33 374.246 110.134 373.648C110.937 373.042 111.338 372.284 111.338 371.375C111.338 370.67 111.103 370.08 110.634 369.602C110.164 369.117 109.452 368.761 108.497 368.534L105.645 367.852C104.13 367.489 103.009 366.913 102.281 366.125C101.554 365.337 101.19 364.36 101.19 363.193C101.19 362.231 101.452 361.386 101.974 360.659C102.497 359.924 103.217 359.348 104.134 358.932C105.05 358.515 106.096 358.307 107.27 358.307C108.868 358.307 110.145 358.67 111.099 359.398C112.062 360.117 112.755 361.11 113.179 362.375ZM117.858 382.545V358.545H119.824V361.875H120.062C120.305 361.352 120.638 360.818 121.062 360.273C121.487 359.72 122.047 359.254 122.744 358.875C123.449 358.496 124.335 358.307 125.403 358.307C126.843 358.307 128.1 358.686 129.176 359.443C130.259 360.193 131.1 361.246 131.699 362.602C132.305 363.951 132.608 365.523 132.608 367.318C132.608 369.121 132.305 370.701 131.699 372.057C131.1 373.413 130.259 374.47 129.176 375.227C128.1 375.985 126.85 376.364 125.426 376.364C124.373 376.364 123.491 376.174 122.778 375.795C122.074 375.417 121.502 374.951 121.062 374.398C120.631 373.837 120.297 373.292 120.062 372.761H119.881V382.545H117.858ZM119.858 367.284C119.858 368.693 120.066 369.943 120.483 371.034C120.907 372.117 121.513 372.97 122.301 373.591C123.097 374.205 124.059 374.511 125.188 374.511C126.347 374.511 127.324 374.193 128.119 373.557C128.922 372.913 129.532 372.045 129.949 370.955C130.373 369.864 130.585 368.64 130.585 367.284C130.585 365.943 130.377 364.735 129.96 363.659C129.551 362.583 128.945 361.731 128.142 361.102C127.339 360.466 126.354 360.148 125.188 360.148C124.051 360.148 123.085 360.455 122.29 361.068C121.494 361.674 120.888 362.515 120.472 363.591C120.062 364.659 119.858 365.89 119.858 367.284ZM144.102 376.364C142.473 376.364 141.064 375.985 139.875 375.227C138.686 374.462 137.765 373.405 137.114 372.057C136.47 370.701 136.148 369.14 136.148 367.375C136.148 365.617 136.47 364.057 137.114 362.693C137.765 361.322 138.663 360.25 139.807 359.477C140.958 358.697 142.288 358.307 143.795 358.307C144.742 358.307 145.655 358.481 146.534 358.83C147.413 359.17 148.201 359.697 148.898 360.409C149.602 361.114 150.159 362.004 150.568 363.08C150.977 364.148 151.182 365.413 151.182 366.875V367.875H137.545V366.091H149.114C149.114 364.97 148.886 363.962 148.432 363.068C147.985 362.167 147.36 361.455 146.557 360.932C145.761 360.409 144.841 360.148 143.795 360.148C142.689 360.148 141.716 360.443 140.875 361.034C140.034 361.625 139.375 362.405 138.898 363.375C138.428 364.345 138.189 365.405 138.182 366.557V367.625C138.182 369.011 138.42 370.223 138.898 371.261C139.383 372.292 140.068 373.091 140.955 373.659C141.841 374.227 142.89 374.511 144.102 374.511C144.928 374.511 145.652 374.383 146.273 374.125C146.902 373.867 147.428 373.523 147.852 373.091C148.284 372.652 148.61 372.17 148.83 371.648L150.75 372.273C150.485 373.008 150.049 373.686 149.443 374.307C148.845 374.928 148.095 375.428 147.193 375.807C146.299 376.178 145.269 376.364 144.102 376.364ZM162.457 376.364C160.897 376.364 159.537 375.973 158.378 375.193C157.226 374.413 156.332 373.345 155.696 371.989C155.06 370.633 154.741 369.087 154.741 367.352C154.741 365.602 155.063 364.045 155.707 362.682C156.359 361.318 157.26 360.25 158.412 359.477C159.563 358.697 160.901 358.307 162.423 358.307C163.59 358.307 164.647 358.534 165.594 358.989C166.541 359.436 167.321 360.068 167.935 360.886C168.556 361.697 168.946 362.644 169.105 363.727H167.06C166.848 362.742 166.336 361.902 165.526 361.205C164.723 360.5 163.7 360.148 162.457 360.148C161.344 360.148 160.359 360.451 159.503 361.057C158.647 361.655 157.976 362.492 157.491 363.568C157.014 364.636 156.776 365.875 156.776 367.284C156.776 368.701 157.01 369.955 157.48 371.045C157.95 372.129 158.609 372.977 159.457 373.591C160.313 374.205 161.313 374.511 162.457 374.511C163.23 374.511 163.935 374.367 164.571 374.08C165.215 373.784 165.753 373.367 166.185 372.83C166.624 372.292 166.92 371.652 167.071 370.909H169.116C168.965 371.962 168.59 372.902 167.991 373.727C167.401 374.545 166.632 375.189 165.685 375.659C164.745 376.129 163.67 376.364 162.457 376.364ZM180.327 358.545V360.307H171.997V358.545H180.327ZM174.599 354.364H176.634V371.443C176.634 372.17 176.759 372.742 177.009 373.159C177.259 373.568 177.584 373.86 177.986 374.034C178.387 374.201 178.815 374.284 179.27 374.284C179.535 374.284 179.762 374.269 179.952 374.239C180.141 374.201 180.308 374.163 180.452 374.125L180.884 375.955C180.687 376.03 180.444 376.098 180.156 376.159C179.868 376.227 179.512 376.261 179.088 376.261C178.346 376.261 177.63 376.098 176.94 375.773C176.259 375.447 175.698 374.962 175.259 374.318C174.819 373.674 174.599 372.875 174.599 371.92V354.364ZM210.443 360C210.231 359.227 209.92 358.504 209.511 357.83C209.102 357.148 208.595 356.553 207.989 356.045C207.39 355.53 206.697 355.129 205.909 354.841C205.129 354.553 204.258 354.409 203.295 354.409C201.78 354.409 200.424 354.803 199.227 355.591C198.03 356.379 197.083 357.515 196.386 359C195.697 360.485 195.352 362.273 195.352 364.364C195.352 366.447 195.701 368.231 196.398 369.716C197.095 371.201 198.049 372.341 199.261 373.136C200.481 373.924 201.875 374.318 203.443 374.318C204.875 374.318 206.14 374 207.239 373.364C208.337 372.727 209.193 371.818 209.807 370.636C210.428 369.455 210.731 368.049 210.716 366.42L211.398 366.636H203.943V364.727H212.784V366.636C212.784 368.621 212.383 370.337 211.58 371.784C210.777 373.231 209.674 374.348 208.273 375.136C206.871 375.924 205.261 376.318 203.443 376.318C201.413 376.318 199.636 375.83 198.114 374.852C196.591 373.867 195.405 372.481 194.557 370.693C193.716 368.898 193.295 366.788 193.295 364.364C193.295 362.538 193.538 360.89 194.023 359.42C194.508 357.951 195.193 356.693 196.08 355.648C196.973 354.602 198.03 353.803 199.25 353.25C200.47 352.689 201.818 352.409 203.295 352.409C204.568 352.409 205.731 352.61 206.784 353.011C207.845 353.413 208.777 353.966 209.58 354.67C210.39 355.367 211.053 356.174 211.568 357.091C212.091 358 212.443 358.97 212.625 360H210.443ZM219.662 352.727V376H217.639V352.727H219.662ZM231.798 376.364C230.291 376.364 228.957 375.981 227.798 375.216C226.647 374.451 225.745 373.394 225.094 372.045C224.442 370.689 224.116 369.125 224.116 367.352C224.116 365.564 224.442 363.992 225.094 362.636C225.745 361.273 226.647 360.212 227.798 359.455C228.957 358.689 230.291 358.307 231.798 358.307C233.306 358.307 234.635 358.689 235.787 359.455C236.938 360.22 237.84 361.28 238.491 362.636C239.151 363.992 239.48 365.564 239.48 367.352C239.48 369.125 239.154 370.689 238.503 372.045C237.851 373.394 236.946 374.451 235.787 375.216C234.635 375.981 233.306 376.364 231.798 376.364ZM231.798 374.511C233.01 374.511 234.037 374.186 234.878 373.534C235.719 372.883 236.355 372.015 236.787 370.932C237.226 369.848 237.446 368.655 237.446 367.352C237.446 366.049 237.226 364.852 236.787 363.761C236.355 362.67 235.719 361.795 234.878 361.136C234.037 360.477 233.01 360.148 231.798 360.148C230.594 360.148 229.567 360.477 228.719 361.136C227.878 361.795 227.238 362.67 226.798 363.761C226.366 364.852 226.151 366.049 226.151 367.352C226.151 368.655 226.366 369.848 226.798 370.932C227.238 372.015 227.878 372.883 228.719 373.534C229.56 374.186 230.586 374.511 231.798 374.511ZM244.341 376V352.727H246.375V361.875H246.557C246.784 361.352 247.11 360.814 247.534 360.261C247.966 359.708 248.53 359.246 249.227 358.875C249.932 358.496 250.818 358.307 251.886 358.307C253.318 358.307 254.576 358.686 255.659 359.443C256.742 360.193 257.587 361.246 258.193 362.602C258.799 363.951 259.102 365.523 259.102 367.318C259.102 369.121 258.799 370.701 258.193 372.057C257.595 373.413 256.754 374.47 255.67 375.227C254.595 375.985 253.345 376.364 251.92 376.364C250.86 376.364 249.973 376.174 249.261 375.795C248.557 375.417 247.989 374.951 247.557 374.398C247.125 373.837 246.792 373.292 246.557 372.761H246.307V376H244.341ZM246.341 367.284C246.341 368.693 246.549 369.943 246.966 371.034C247.39 372.117 247.996 372.97 248.784 373.591C249.58 374.205 250.542 374.511 251.67 374.511C252.83 374.511 253.811 374.193 254.614 373.557C255.417 372.913 256.027 372.045 256.443 370.955C256.86 369.864 257.068 368.64 257.068 367.284C257.068 365.943 256.86 364.735 256.443 363.659C256.034 362.583 255.428 361.731 254.625 361.102C253.822 360.466 252.837 360.148 251.67 360.148C250.534 360.148 249.568 360.455 248.773 361.068C247.985 361.674 247.383 362.515 246.966 363.591C246.549 364.659 246.341 365.89 246.341 367.284ZM268.42 376.398C267.367 376.398 266.405 376.193 265.534 375.784C264.663 375.367 263.97 374.769 263.455 373.989C262.939 373.201 262.682 372.246 262.682 371.125C262.682 370.261 262.845 369.534 263.17 368.943C263.496 368.352 263.958 367.867 264.557 367.489C265.155 367.11 265.864 366.811 266.682 366.591C267.5 366.371 268.402 366.201 269.386 366.08C270.364 365.958 271.189 365.852 271.864 365.761C272.545 365.67 273.064 365.527 273.42 365.33C273.777 365.133 273.955 364.814 273.955 364.375V363.966C273.955 362.777 273.598 361.841 272.886 361.159C272.182 360.47 271.167 360.125 269.841 360.125C268.583 360.125 267.557 360.402 266.761 360.955C265.973 361.508 265.42 362.159 265.102 362.909L263.182 362.216C263.576 361.261 264.121 360.5 264.818 359.932C265.515 359.356 266.295 358.943 267.159 358.693C268.023 358.436 268.898 358.307 269.784 358.307C270.451 358.307 271.144 358.394 271.864 358.568C272.591 358.742 273.265 359.045 273.886 359.477C274.508 359.902 275.011 360.496 275.398 361.261C275.784 362.019 275.977 362.981 275.977 364.148V376H273.955V373.239H273.83C273.587 373.754 273.227 374.254 272.75 374.739C272.273 375.223 271.674 375.621 270.955 375.932C270.235 376.242 269.39 376.398 268.42 376.398ZM268.693 374.545C269.769 374.545 270.701 374.307 271.489 373.83C272.277 373.352 272.883 372.72 273.307 371.932C273.739 371.136 273.955 370.261 273.955 369.307V366.784C273.803 366.928 273.549 367.057 273.193 367.17C272.845 367.284 272.439 367.386 271.977 367.477C271.523 367.561 271.068 367.633 270.614 367.693C270.159 367.754 269.75 367.807 269.386 367.852C268.402 367.973 267.561 368.163 266.864 368.42C266.167 368.678 265.633 369.034 265.261 369.489C264.89 369.936 264.705 370.511 264.705 371.216C264.705 372.277 265.083 373.098 265.841 373.682C266.598 374.258 267.549 374.545 268.693 374.545ZM283.381 352.727V376H281.358V352.727H283.381ZM87.4503 415V391.727H100.95V393.636H89.5753V402.398H100.234V404.307H89.5753V413.091H101.178V415H87.4503ZM107.28 397.545L111.78 404.989L116.28 397.545H118.632L113.018 406.273L118.632 415H116.28L111.78 407.795L107.28 415H104.939L110.484 406.273L104.939 397.545H107.28ZM122.874 421.545V397.545H124.839V400.875H125.078C125.321 400.352 125.654 399.818 126.078 399.273C126.502 398.72 127.063 398.254 127.76 397.875C128.464 397.496 129.351 397.307 130.419 397.307C131.858 397.307 133.116 397.686 134.192 398.443C135.275 399.193 136.116 400.246 136.714 401.602C137.321 402.951 137.624 404.523 137.624 406.318C137.624 408.121 137.321 409.701 136.714 411.057C136.116 412.413 135.275 413.47 134.192 414.227C133.116 414.985 131.866 415.364 130.442 415.364C129.389 415.364 128.506 415.174 127.794 414.795C127.089 414.417 126.518 413.951 126.078 413.398C125.646 412.837 125.313 412.292 125.078 411.761H124.896V421.545H122.874ZM124.874 406.284C124.874 407.693 125.082 408.943 125.499 410.034C125.923 411.117 126.529 411.97 127.317 412.591C128.112 413.205 129.074 413.511 130.203 413.511C131.362 413.511 132.339 413.193 133.135 412.557C133.938 411.913 134.548 411.045 134.964 409.955C135.389 408.864 135.601 407.64 135.601 406.284C135.601 404.943 135.393 403.735 134.976 402.659C134.567 401.583 133.961 400.731 133.158 400.102C132.355 399.466 131.37 399.148 130.203 399.148C129.067 399.148 128.101 399.455 127.305 400.068C126.51 400.674 125.904 401.515 125.487 402.591C125.078 403.659 124.874 404.89 124.874 406.284ZM144.084 391.727V415H142.061V391.727H144.084ZM154.311 415.398C153.258 415.398 152.296 415.193 151.425 414.784C150.554 414.367 149.86 413.769 149.345 412.989C148.83 412.201 148.572 411.246 148.572 410.125C148.572 409.261 148.735 408.534 149.061 407.943C149.387 407.352 149.849 406.867 150.447 406.489C151.046 406.11 151.754 405.811 152.572 405.591C153.391 405.371 154.292 405.201 155.277 405.08C156.254 404.958 157.08 404.852 157.754 404.761C158.436 404.67 158.955 404.527 159.311 404.33C159.667 404.133 159.845 403.814 159.845 403.375V402.966C159.845 401.777 159.489 400.841 158.777 400.159C158.072 399.47 157.057 399.125 155.732 399.125C154.474 399.125 153.447 399.402 152.652 399.955C151.864 400.508 151.311 401.159 150.993 401.909L149.072 401.216C149.466 400.261 150.012 399.5 150.709 398.932C151.406 398.356 152.186 397.943 153.05 397.693C153.913 397.436 154.788 397.307 155.675 397.307C156.341 397.307 157.035 397.394 157.754 397.568C158.482 397.742 159.156 398.045 159.777 398.477C160.398 398.902 160.902 399.496 161.288 400.261C161.675 401.019 161.868 401.981 161.868 403.148V415H159.845V412.239H159.72C159.478 412.754 159.118 413.254 158.641 413.739C158.163 414.223 157.565 414.621 156.845 414.932C156.125 415.242 155.281 415.398 154.311 415.398ZM154.584 413.545C155.66 413.545 156.591 413.307 157.379 412.83C158.167 412.352 158.773 411.72 159.197 410.932C159.629 410.136 159.845 409.261 159.845 408.307V405.784C159.694 405.928 159.44 406.057 159.084 406.17C158.735 406.284 158.33 406.386 157.868 406.477C157.413 406.561 156.959 406.633 156.504 406.693C156.05 406.754 155.641 406.807 155.277 406.852C154.292 406.973 153.451 407.163 152.754 407.42C152.057 407.678 151.523 408.034 151.152 408.489C150.781 408.936 150.595 409.511 150.595 410.216C150.595 411.277 150.974 412.098 151.732 412.682C152.489 413.258 153.44 413.545 154.584 413.545ZM169.271 404.091V415H167.249V397.545H169.214V400.284H169.396C169.805 399.39 170.442 398.674 171.305 398.136C172.177 397.591 173.252 397.318 174.533 397.318C175.707 397.318 176.737 397.564 177.624 398.057C178.518 398.542 179.211 399.258 179.703 400.205C180.203 401.152 180.453 402.314 180.453 403.693V415H178.43V403.818C178.43 402.386 178.029 401.254 177.226 400.42C176.43 399.587 175.362 399.17 174.021 399.17C173.105 399.17 172.29 399.367 171.578 399.761C170.866 400.155 170.302 400.723 169.885 401.466C169.476 402.201 169.271 403.076 169.271 404.091ZM190.655 415.398C189.602 415.398 188.64 415.193 187.768 414.784C186.897 414.367 186.204 413.769 185.689 412.989C185.174 412.201 184.916 411.246 184.916 410.125C184.916 409.261 185.079 408.534 185.405 407.943C185.731 407.352 186.193 406.867 186.791 406.489C187.39 406.11 188.098 405.811 188.916 405.591C189.734 405.371 190.636 405.201 191.621 405.08C192.598 404.958 193.424 404.852 194.098 404.761C194.78 404.67 195.299 404.527 195.655 404.33C196.011 404.133 196.189 403.814 196.189 403.375V402.966C196.189 401.777 195.833 400.841 195.121 400.159C194.416 399.47 193.401 399.125 192.075 399.125C190.818 399.125 189.791 399.402 188.996 399.955C188.208 400.508 187.655 401.159 187.337 401.909L185.416 401.216C185.81 400.261 186.356 399.5 187.053 398.932C187.75 398.356 188.53 397.943 189.393 397.693C190.257 397.436 191.132 397.307 192.018 397.307C192.685 397.307 193.378 397.394 194.098 397.568C194.825 397.742 195.5 398.045 196.121 398.477C196.742 398.902 197.246 399.496 197.632 400.261C198.018 401.019 198.212 401.981 198.212 403.148V415H196.189V412.239H196.064C195.821 412.754 195.462 413.254 194.984 413.739C194.507 414.223 193.909 414.621 193.189 414.932C192.469 415.242 191.625 415.398 190.655 415.398ZM190.928 413.545C192.003 413.545 192.935 413.307 193.723 412.83C194.511 412.352 195.117 411.72 195.541 410.932C195.973 410.136 196.189 409.261 196.189 408.307V405.784C196.037 405.928 195.784 406.057 195.428 406.17C195.079 406.284 194.674 406.386 194.212 406.477C193.757 406.561 193.303 406.633 192.848 406.693C192.393 406.754 191.984 406.807 191.621 406.852C190.636 406.973 189.795 407.163 189.098 407.42C188.401 407.678 187.867 408.034 187.496 408.489C187.125 408.936 186.939 409.511 186.939 410.216C186.939 411.277 187.318 412.098 188.075 412.682C188.833 413.258 189.784 413.545 190.928 413.545ZM210.467 397.545V399.307H202.138V397.545H210.467ZM204.74 393.364H206.774V410.443C206.774 411.17 206.899 411.742 207.149 412.159C207.399 412.568 207.725 412.86 208.126 413.034C208.528 413.201 208.956 413.284 209.411 413.284C209.676 413.284 209.903 413.269 210.092 413.239C210.282 413.201 210.448 413.163 210.592 413.125L211.024 414.955C210.827 415.03 210.585 415.098 210.297 415.159C210.009 415.227 209.653 415.261 209.229 415.261C208.486 415.261 207.77 415.098 207.081 414.773C206.399 414.447 205.839 413.962 205.399 413.318C204.96 412.674 204.74 411.875 204.74 410.92V393.364ZM215.084 415V397.545H217.118V415H215.084ZM216.118 394.545C215.701 394.545 215.345 394.405 215.05 394.125C214.754 393.837 214.607 393.492 214.607 393.091C214.607 392.689 214.754 392.348 215.05 392.068C215.345 391.78 215.701 391.636 216.118 391.636C216.535 391.636 216.891 391.78 217.186 392.068C217.482 392.348 217.629 392.689 217.629 393.091C217.629 393.492 217.482 393.837 217.186 394.125C216.891 394.405 216.535 394.545 216.118 394.545ZM229.251 415.364C227.744 415.364 226.411 414.981 225.251 414.216C224.1 413.451 223.198 412.394 222.547 411.045C221.895 409.689 221.57 408.125 221.57 406.352C221.57 404.564 221.895 402.992 222.547 401.636C223.198 400.273 224.1 399.212 225.251 398.455C226.411 397.689 227.744 397.307 229.251 397.307C230.759 397.307 232.089 397.689 233.24 398.455C234.392 399.22 235.293 400.28 235.945 401.636C236.604 402.992 236.933 404.564 236.933 406.352C236.933 408.125 236.607 409.689 235.956 411.045C235.304 412.394 234.399 413.451 233.24 414.216C232.089 414.981 230.759 415.364 229.251 415.364ZM229.251 413.511C230.464 413.511 231.49 413.186 232.331 412.534C233.172 411.883 233.808 411.015 234.24 409.932C234.679 408.848 234.899 407.655 234.899 406.352C234.899 405.049 234.679 403.852 234.24 402.761C233.808 401.67 233.172 400.795 232.331 400.136C231.49 399.477 230.464 399.148 229.251 399.148C228.047 399.148 227.02 399.477 226.172 400.136C225.331 400.795 224.691 401.67 224.251 402.761C223.82 403.852 223.604 405.049 223.604 406.352C223.604 407.655 223.82 408.848 224.251 409.932C224.691 411.015 225.331 411.883 226.172 412.534C227.013 413.186 228.039 413.511 229.251 413.511ZM243.396 404.091V415H241.374V397.545H243.339V400.284H243.521C243.93 399.39 244.567 398.674 245.43 398.136C246.302 397.591 247.377 397.318 248.658 397.318C249.832 397.318 250.862 397.564 251.749 398.057C252.643 398.542 253.336 399.258 253.828 400.205C254.328 401.152 254.578 402.314 254.578 403.693V415H252.555V403.818C252.555 402.386 252.154 401.254 251.351 400.42C250.555 399.587 249.487 399.17 248.146 399.17C247.23 399.17 246.415 399.367 245.703 399.761C244.991 400.155 244.427 400.723 244.01 401.466C243.601 402.201 243.396 403.076 243.396 404.091ZM271.632 401.375L269.78 401.898C269.598 401.375 269.34 400.902 269.007 400.477C268.674 400.053 268.238 399.716 267.7 399.466C267.17 399.216 266.511 399.091 265.723 399.091C264.541 399.091 263.571 399.371 262.814 399.932C262.056 400.492 261.678 401.216 261.678 402.102C261.678 402.852 261.935 403.462 262.45 403.932C262.973 404.394 263.776 404.761 264.859 405.034L267.496 405.682C268.958 406.038 270.053 406.602 270.78 407.375C271.515 408.148 271.882 409.117 271.882 410.284C271.882 411.269 271.609 412.144 271.064 412.909C270.518 413.674 269.757 414.277 268.78 414.716C267.81 415.148 266.685 415.364 265.405 415.364C263.7 415.364 262.295 414.981 261.189 414.216C260.083 413.443 259.375 412.33 259.064 410.875L261.007 410.398C261.257 411.436 261.746 412.22 262.473 412.75C263.208 413.28 264.174 413.545 265.371 413.545C266.712 413.545 267.784 413.246 268.587 412.648C269.39 412.042 269.791 411.284 269.791 410.375C269.791 409.67 269.556 409.08 269.087 408.602C268.617 408.117 267.905 407.761 266.95 407.534L264.098 406.852C262.583 406.489 261.462 405.913 260.734 405.125C260.007 404.337 259.643 403.36 259.643 402.193C259.643 401.231 259.905 400.386 260.428 399.659C260.95 398.924 261.67 398.348 262.587 397.932C263.503 397.515 264.549 397.307 265.723 397.307C267.321 397.307 268.598 397.67 269.553 398.398C270.515 399.117 271.208 400.11 271.632 401.375Z" fill="#3D3D3A"/>
<rect x="84.25" y="52.25" width="51.2841" height="53.4432" rx="11.75" stroke="#3D3D3A" stroke-width="13.5"/>
<rect x="84.25" y="202.307" width="51.2841" height="53.4432" rx="11.75" stroke="#3D3D3A" stroke-width="13.5"/>
<rect x="84.25" y="127.818" width="51.2841" height="53.4432" rx="11.75" stroke="#3D3D3A" stroke-width="13.5"/>
<circle cx="242.5" cy="152.5" r="29.25" stroke="#3D3D3A" stroke-width="13.5"/>
<line x1="155.002" y1="79.4971" x2="190.456" y2="114.951" stroke="#3D3D3A" stroke-width="13.5" stroke-linecap="round"/>
<line x1="191.364" y1="103.102" x2="192.395" y2="115.809" stroke="#3D3D3A" stroke-width="13.5" stroke-linecap="round"/>
<line x1="6.75" y1="-6.75" x2="19.4988" y2="-6.75" transform="matrix(0.996729 0.0808159 0.0808159 -0.996729 173.484 107.526)" stroke="#3D3D3A" stroke-width="13.5" stroke-linecap="round"/>
<line x1="154.497" y1="234.387" x2="191.951" y2="196.933" stroke="#3D3D3A" stroke-width="13.5" stroke-linecap="round"/>
<line x1="180.101" y1="196.023" x2="192.808" y2="194.993" stroke="#3D3D3A" stroke-width="13.5" stroke-linecap="round"/>
<line x1="6.75" y1="-6.75" x2="19.4988" y2="-6.75" transform="matrix(0.0808159 -0.996729 -0.996729 -0.0808159 184.526 213.904)" stroke="#3D3D3A" stroke-width="13.5" stroke-linecap="round"/>
<line x1="152.75" y1="156.163" x2="192.25" y2="156.163" stroke="#3D3D3A" stroke-width="13.5" stroke-linecap="round"/>
<line x1="184.515" y1="147.141" x2="194.229" y2="155.397" stroke="#3D3D3A" stroke-width="13.5" stroke-linecap="round"/>
<line x1="6.75" y1="-6.75" x2="19.4988" y2="-6.75" transform="matrix(0.761939 -0.647648 -0.647648 -0.761939 175 162.912)" stroke="#3D3D3A" stroke-width="13.5" stroke-linecap="round"/>
</svg>
