<svg width="358" height="448" viewBox="0 0 358 448" fill="none" xmlns="http://www.w3.org/2000/svg">
<rect x="2.25" y="2.25" width="353.5" height="443.5" rx="69.75" fill="white"/>
<rect x="2.25" y="2.25" width="353.5" height="443.5" rx="69.75" stroke="#DDDDDD" stroke-width="4.5"/>
<path d="M120.357 337V302.091H126.681V331.699H142.056V337H120.357ZM158.692 337.511C156.136 337.511 153.92 336.949 152.045 335.824C150.17 334.699 148.715 333.125 147.681 331.102C146.658 329.08 146.147 326.716 146.147 324.011C146.147 321.307 146.658 318.937 147.681 316.903C148.715 314.869 150.17 313.29 152.045 312.165C153.92 311.04 156.136 310.477 158.692 310.477C161.249 310.477 163.465 311.04 165.34 312.165C167.215 313.29 168.664 314.869 169.687 316.903C170.721 318.937 171.238 321.307 171.238 324.011C171.238 326.716 170.721 329.08 169.687 331.102C168.664 333.125 167.215 334.699 165.34 335.824C163.465 336.949 161.249 337.511 158.692 337.511ZM158.727 332.568C160.113 332.568 161.272 332.187 162.204 331.426C163.136 330.653 163.829 329.619 164.283 328.324C164.749 327.028 164.982 325.585 164.982 323.994C164.982 322.392 164.749 320.943 164.283 319.648C163.829 318.341 163.136 317.301 162.204 316.528C161.272 315.756 160.113 315.369 158.727 315.369C157.306 315.369 156.124 315.756 155.181 316.528C154.249 317.301 153.55 318.341 153.085 319.648C152.63 320.943 152.403 322.392 152.403 323.994C152.403 325.585 152.63 327.028 153.085 328.324C153.55 329.619 154.249 330.653 155.181 331.426C156.124 332.187 157.306 332.568 158.727 332.568ZM187.896 337.511C185.282 337.511 183.038 336.938 181.163 335.79C179.299 334.642 177.862 333.057 176.85 331.034C175.85 329 175.35 326.659 175.35 324.011C175.35 321.352 175.862 319.006 176.884 316.972C177.907 314.926 179.35 313.335 181.214 312.199C183.089 311.051 185.305 310.477 187.862 310.477C189.987 310.477 191.867 310.869 193.504 311.653C195.151 312.426 196.464 313.523 197.441 314.943C198.418 316.352 198.975 318 199.112 319.886H193.214C192.975 318.625 192.407 317.574 191.509 316.733C190.623 315.881 189.435 315.455 187.947 315.455C186.685 315.455 185.577 315.795 184.623 316.477C183.668 317.148 182.924 318.114 182.39 319.375C181.867 320.636 181.606 322.148 181.606 323.909C181.606 325.693 181.867 327.227 182.39 328.511C182.913 329.784 183.646 330.767 184.589 331.46C185.543 332.142 186.663 332.483 187.947 332.483C188.856 332.483 189.668 332.312 190.384 331.972C191.112 331.619 191.719 331.114 192.208 330.455C192.697 329.795 193.032 328.994 193.214 328.051H199.112C198.964 329.903 198.418 331.545 197.475 332.977C196.532 334.398 195.248 335.511 193.623 336.318C191.998 337.114 190.089 337.511 187.896 337.511ZM211.712 337.528C210.053 337.528 208.559 337.233 207.229 336.642C205.911 336.04 204.866 335.153 204.093 333.983C203.332 332.812 202.951 331.369 202.951 329.653C202.951 328.176 203.224 326.955 203.769 325.989C204.315 325.023 205.059 324.25 206.002 323.67C206.945 323.091 208.008 322.653 209.19 322.358C210.383 322.051 211.616 321.83 212.888 321.693C214.423 321.534 215.667 321.392 216.621 321.267C217.576 321.131 218.269 320.926 218.701 320.653C219.144 320.369 219.366 319.932 219.366 319.341V319.239C219.366 317.955 218.985 316.96 218.224 316.256C217.462 315.551 216.366 315.199 214.934 315.199C213.423 315.199 212.224 315.528 211.337 316.188C210.462 316.847 209.871 317.625 209.565 318.523L203.803 317.705C204.258 316.114 205.008 314.784 206.053 313.716C207.099 312.636 208.377 311.83 209.888 311.295C211.4 310.75 213.07 310.477 214.9 310.477C216.161 310.477 217.417 310.625 218.667 310.92C219.917 311.216 221.059 311.705 222.093 312.386C223.127 313.057 223.957 313.972 224.582 315.131C225.218 316.29 225.536 317.739 225.536 319.477V337H219.604V333.403H219.4C219.025 334.131 218.496 334.812 217.815 335.449C217.144 336.074 216.298 336.58 215.275 336.966C214.263 337.341 213.076 337.528 211.712 337.528ZM213.315 332.994C214.553 332.994 215.627 332.75 216.536 332.261C217.445 331.761 218.144 331.102 218.633 330.284C219.133 329.466 219.383 328.574 219.383 327.608V324.523C219.19 324.682 218.86 324.83 218.394 324.966C217.94 325.102 217.428 325.222 216.86 325.324C216.292 325.426 215.729 325.517 215.173 325.597C214.616 325.676 214.133 325.744 213.724 325.801C212.803 325.926 211.979 326.131 211.252 326.415C210.525 326.699 209.951 327.097 209.531 327.608C209.11 328.108 208.9 328.756 208.9 329.551C208.9 330.688 209.315 331.545 210.144 332.125C210.974 332.705 212.031 332.994 213.315 332.994ZM237.911 302.091V337H231.741V302.091H237.911ZM78.169 376V352.727H91.669V354.636H80.294V363.398H90.9531V365.307H80.294V374.091H91.8963V376H78.169ZM97.9986 358.545L102.499 365.989L106.999 358.545H109.351L103.737 367.273L109.351 376H106.999L102.499 368.795L97.9986 376H95.6577L101.203 367.273L95.6577 358.545H97.9986ZM113.592 382.545V358.545H115.558V361.875H115.797C116.039 361.352 116.373 360.818 116.797 360.273C117.221 359.72 117.782 359.254 118.479 358.875C119.183 358.496 120.07 358.307 121.138 358.307C122.577 358.307 123.835 358.686 124.911 359.443C125.994 360.193 126.835 361.246 127.433 362.602C128.039 363.951 128.342 365.523 128.342 367.318C128.342 369.121 128.039 370.701 127.433 372.057C126.835 373.413 125.994 374.47 124.911 375.227C123.835 375.985 122.585 376.364 121.161 376.364C120.107 376.364 119.225 376.174 118.513 375.795C117.808 375.417 117.236 374.951 116.797 374.398C116.365 373.837 116.032 373.292 115.797 372.761H115.615V382.545H113.592ZM115.592 367.284C115.592 368.693 115.801 369.943 116.217 371.034C116.642 372.117 117.248 372.97 118.036 373.591C118.831 374.205 119.793 374.511 120.922 374.511C122.081 374.511 123.058 374.193 123.854 373.557C124.657 372.913 125.267 372.045 125.683 370.955C126.107 369.864 126.32 368.64 126.32 367.284C126.32 365.943 126.111 364.735 125.695 363.659C125.286 362.583 124.679 361.731 123.876 361.102C123.073 360.466 122.089 360.148 120.922 360.148C119.786 360.148 118.82 360.455 118.024 361.068C117.229 361.674 116.623 362.515 116.206 363.591C115.797 364.659 115.592 365.89 115.592 367.284ZM134.803 352.727V376H132.78V352.727H134.803ZM145.03 376.398C143.977 376.398 143.015 376.193 142.143 375.784C141.272 375.367 140.579 374.769 140.064 373.989C139.549 373.201 139.291 372.246 139.291 371.125C139.291 370.261 139.454 369.534 139.78 368.943C140.106 368.352 140.568 367.867 141.166 367.489C141.765 367.11 142.473 366.811 143.291 366.591C144.109 366.371 145.011 366.201 145.996 366.08C146.973 365.958 147.799 365.852 148.473 365.761C149.155 365.67 149.674 365.527 150.03 365.33C150.386 365.133 150.564 364.814 150.564 364.375V363.966C150.564 362.777 150.208 361.841 149.496 361.159C148.791 360.47 147.776 360.125 146.45 360.125C145.193 360.125 144.166 360.402 143.371 360.955C142.583 361.508 142.03 362.159 141.712 362.909L139.791 362.216C140.185 361.261 140.731 360.5 141.428 359.932C142.125 359.356 142.905 358.943 143.768 358.693C144.632 358.436 145.507 358.307 146.393 358.307C147.06 358.307 147.753 358.394 148.473 358.568C149.2 358.742 149.875 359.045 150.496 359.477C151.117 359.902 151.621 360.496 152.007 361.261C152.393 362.019 152.587 362.981 152.587 364.148V376H150.564V373.239H150.439C150.196 373.754 149.837 374.254 149.359 374.739C148.882 375.223 148.284 375.621 147.564 375.932C146.844 376.242 146 376.398 145.03 376.398ZM145.303 374.545C146.378 374.545 147.31 374.307 148.098 373.83C148.886 373.352 149.492 372.72 149.916 371.932C150.348 371.136 150.564 370.261 150.564 369.307V366.784C150.412 366.928 150.159 367.057 149.803 367.17C149.454 367.284 149.049 367.386 148.587 367.477C148.132 367.561 147.678 367.633 147.223 367.693C146.768 367.754 146.359 367.807 145.996 367.852C145.011 367.973 144.17 368.163 143.473 368.42C142.776 368.678 142.242 369.034 141.871 369.489C141.5 369.936 141.314 370.511 141.314 371.216C141.314 372.277 141.693 373.098 142.45 373.682C143.208 374.258 144.159 374.545 145.303 374.545ZM157.99 376V358.545H160.024V376H157.99ZM159.024 355.545C158.607 355.545 158.251 355.405 157.956 355.125C157.661 354.837 157.513 354.492 157.513 354.091C157.513 353.689 157.661 353.348 157.956 353.068C158.251 352.78 158.607 352.636 159.024 352.636C159.441 352.636 159.797 352.78 160.092 353.068C160.388 353.348 160.536 353.689 160.536 354.091C160.536 354.492 160.388 354.837 160.092 355.125C159.797 355.405 159.441 355.545 159.024 355.545ZM167.396 365.091V376H165.374V358.545H167.339V361.284H167.521C167.93 360.39 168.567 359.674 169.43 359.136C170.302 358.591 171.377 358.318 172.658 358.318C173.832 358.318 174.862 358.564 175.749 359.057C176.643 359.542 177.336 360.258 177.828 361.205C178.328 362.152 178.578 363.314 178.578 364.693V376H176.555V364.818C176.555 363.386 176.154 362.254 175.351 361.42C174.555 360.587 173.487 360.17 172.146 360.17C171.23 360.17 170.415 360.367 169.703 360.761C168.991 361.155 168.427 361.723 168.01 362.466C167.601 363.201 167.396 364.076 167.396 365.091ZM193.325 352.727H195.78L204.223 373H204.428L212.871 352.727H215.325V376H213.325V357.216H213.143L205.291 376H203.359L195.507 357.216H195.325V376H193.325V352.727ZM227.876 376.364C226.369 376.364 225.036 375.981 223.876 375.216C222.725 374.451 221.823 373.394 221.172 372.045C220.52 370.689 220.195 369.125 220.195 367.352C220.195 365.564 220.52 363.992 221.172 362.636C221.823 361.273 222.725 360.212 223.876 359.455C225.036 358.689 226.369 358.307 227.876 358.307C229.384 358.307 230.714 358.689 231.865 359.455C233.017 360.22 233.918 361.28 234.57 362.636C235.229 363.992 235.558 365.564 235.558 367.352C235.558 369.125 235.232 370.689 234.581 372.045C233.929 373.394 233.024 374.451 231.865 375.216C230.714 375.981 229.384 376.364 227.876 376.364ZM227.876 374.511C229.089 374.511 230.115 374.186 230.956 373.534C231.797 372.883 232.433 372.015 232.865 370.932C233.304 369.848 233.524 368.655 233.524 367.352C233.524 366.049 233.304 364.852 232.865 363.761C232.433 362.67 231.797 361.795 230.956 361.136C230.115 360.477 229.089 360.148 227.876 360.148C226.672 360.148 225.645 360.477 224.797 361.136C223.956 361.795 223.316 362.67 222.876 363.761C222.445 364.852 222.229 366.049 222.229 367.352C222.229 368.655 222.445 369.848 222.876 370.932C223.316 372.015 223.956 372.883 224.797 373.534C225.638 374.186 226.664 374.511 227.876 374.511ZM246.283 376.364C244.851 376.364 243.597 375.985 242.521 375.227C241.446 374.47 240.605 373.413 239.999 372.057C239.4 370.701 239.101 369.121 239.101 367.318C239.101 365.523 239.4 363.951 239.999 362.602C240.605 361.246 241.449 360.193 242.533 359.443C243.616 358.686 244.877 358.307 246.317 358.307C247.377 358.307 248.26 358.496 248.964 358.875C249.669 359.246 250.233 359.708 250.658 360.261C251.082 360.814 251.411 361.352 251.646 361.875H251.828V352.727H253.862V376H251.885V372.761H251.646C251.411 373.292 251.078 373.837 250.646 374.398C250.214 374.951 249.643 375.417 248.93 375.795C248.226 376.174 247.343 376.364 246.283 376.364ZM246.521 374.511C247.65 374.511 248.612 374.205 249.408 373.591C250.203 372.97 250.809 372.117 251.226 371.034C251.65 369.943 251.862 368.693 251.862 367.284C251.862 365.89 251.654 364.659 251.237 363.591C250.821 362.515 250.214 361.674 249.419 361.068C248.624 360.455 247.658 360.148 246.521 360.148C245.355 360.148 244.37 360.466 243.567 361.102C242.771 361.731 242.165 362.583 241.749 363.659C241.339 364.735 241.135 365.943 241.135 367.284C241.135 368.64 241.343 369.864 241.76 370.955C242.177 372.045 242.783 372.913 243.578 373.557C244.381 374.193 245.362 374.511 246.521 374.511ZM266.68 376.364C265.052 376.364 263.643 375.985 262.453 375.227C261.264 374.462 260.343 373.405 259.692 372.057C259.048 370.701 258.726 369.14 258.726 367.375C258.726 365.617 259.048 364.057 259.692 362.693C260.343 361.322 261.241 360.25 262.385 359.477C263.536 358.697 264.866 358.307 266.374 358.307C267.321 358.307 268.233 358.481 269.112 358.83C269.991 359.17 270.779 359.697 271.476 360.409C272.18 361.114 272.737 362.004 273.146 363.08C273.555 364.148 273.76 365.413 273.76 366.875V367.875H260.124V366.091H271.692C271.692 364.97 271.464 363.962 271.01 363.068C270.563 362.167 269.938 361.455 269.135 360.932C268.339 360.409 267.419 360.148 266.374 360.148C265.268 360.148 264.294 360.443 263.453 361.034C262.612 361.625 261.953 362.405 261.476 363.375C261.006 364.345 260.768 365.405 260.76 366.557V367.625C260.76 369.011 260.999 370.223 261.476 371.261C261.961 372.292 262.646 373.091 263.533 373.659C264.419 374.227 265.468 374.511 266.68 374.511C267.506 374.511 268.23 374.383 268.851 374.125C269.48 373.867 270.006 373.523 270.43 373.091C270.862 372.652 271.188 372.17 271.408 371.648L273.328 372.273C273.063 373.008 272.627 373.686 272.021 374.307C271.423 374.928 270.673 375.428 269.771 375.807C268.877 376.178 267.847 376.364 266.68 376.364ZM280.24 352.727V376H278.217V352.727H280.24ZM98.5753 415V391.727H106.087C107.738 391.727 109.117 392.045 110.223 392.682C111.337 393.311 112.174 394.167 112.734 395.25C113.303 396.333 113.587 397.553 113.587 398.909C113.587 400.265 113.306 401.489 112.746 402.58C112.185 403.663 111.352 404.523 110.246 405.159C109.14 405.788 107.765 406.102 106.121 406.102H100.212V404.193H106.064C107.284 404.193 108.295 403.966 109.098 403.511C109.901 403.049 110.5 402.42 110.893 401.625C111.295 400.83 111.496 399.924 111.496 398.909C111.496 397.894 111.295 396.989 110.893 396.193C110.5 395.398 109.897 394.773 109.087 394.318C108.284 393.864 107.265 393.636 106.03 393.636H100.7V415H98.5753ZM118.155 415V397.545H120.121V400.227H120.268C120.617 399.348 121.223 398.64 122.087 398.102C122.958 397.557 123.943 397.284 125.041 397.284C125.208 397.284 125.393 397.288 125.598 397.295C125.803 397.303 125.973 397.311 126.109 397.318V399.375C126.018 399.36 125.859 399.337 125.632 399.307C125.405 399.277 125.159 399.261 124.893 399.261C123.984 399.261 123.174 399.455 122.462 399.841C121.757 400.22 121.2 400.746 120.791 401.42C120.382 402.095 120.178 402.864 120.178 403.727V415H118.155ZM136.087 415.364C134.458 415.364 133.049 414.985 131.859 414.227C130.67 413.462 129.75 412.405 129.098 411.057C128.454 409.701 128.132 408.14 128.132 406.375C128.132 404.617 128.454 403.057 129.098 401.693C129.75 400.322 130.647 399.25 131.791 398.477C132.943 397.697 134.272 397.307 135.78 397.307C136.727 397.307 137.64 397.481 138.518 397.83C139.397 398.17 140.185 398.697 140.882 399.409C141.587 400.114 142.143 401.004 142.553 402.08C142.962 403.148 143.166 404.413 143.166 405.875V406.875H129.53V405.091H141.098C141.098 403.97 140.871 402.962 140.416 402.068C139.969 401.167 139.344 400.455 138.541 399.932C137.746 399.409 136.825 399.148 135.78 399.148C134.674 399.148 133.7 399.443 132.859 400.034C132.018 400.625 131.359 401.405 130.882 402.375C130.412 403.345 130.174 404.405 130.166 405.557V406.625C130.166 408.011 130.405 409.223 130.882 410.261C131.367 411.292 132.053 412.091 132.939 412.659C133.825 413.227 134.875 413.511 136.087 413.511C136.912 413.511 137.636 413.383 138.257 413.125C138.886 412.867 139.412 412.523 139.837 412.091C140.268 411.652 140.594 411.17 140.814 410.648L142.734 411.273C142.469 412.008 142.034 412.686 141.428 413.307C140.829 413.928 140.079 414.428 139.178 414.807C138.284 415.178 137.253 415.364 136.087 415.364ZM153.908 415.364C152.476 415.364 151.222 414.985 150.146 414.227C149.071 413.47 148.23 412.413 147.624 411.057C147.025 409.701 146.726 408.121 146.726 406.318C146.726 404.523 147.025 402.951 147.624 401.602C148.23 400.246 149.074 399.193 150.158 398.443C151.241 397.686 152.502 397.307 153.942 397.307C155.002 397.307 155.885 397.496 156.589 397.875C157.294 398.246 157.858 398.708 158.283 399.261C158.707 399.814 159.036 400.352 159.271 400.875H159.453V391.727H161.487V415H159.51V411.761H159.271C159.036 412.292 158.703 412.837 158.271 413.398C157.839 413.951 157.268 414.417 156.555 414.795C155.851 415.174 154.968 415.364 153.908 415.364ZM154.146 413.511C155.275 413.511 156.237 413.205 157.033 412.591C157.828 411.97 158.434 411.117 158.851 410.034C159.275 408.943 159.487 407.693 159.487 406.284C159.487 404.89 159.279 403.659 158.862 402.591C158.446 401.515 157.839 400.674 157.044 400.068C156.249 399.455 155.283 399.148 154.146 399.148C152.98 399.148 151.995 399.466 151.192 400.102C150.396 400.731 149.79 401.583 149.374 402.659C148.964 403.735 148.76 404.943 148.76 406.284C148.76 407.64 148.968 408.864 149.385 409.955C149.802 411.045 150.408 411.913 151.203 412.557C152.006 413.193 152.987 413.511 154.146 413.511ZM167.271 415V397.545H169.305V415H167.271ZM168.305 394.545C167.889 394.545 167.533 394.405 167.237 394.125C166.942 393.837 166.794 393.492 166.794 393.091C166.794 392.689 166.942 392.348 167.237 392.068C167.533 391.78 167.889 391.636 168.305 391.636C168.722 391.636 169.078 391.78 169.374 392.068C169.669 392.348 169.817 392.689 169.817 393.091C169.817 393.492 169.669 393.837 169.374 394.125C169.078 394.405 168.722 394.545 168.305 394.545ZM181.473 415.364C179.912 415.364 178.553 414.973 177.393 414.193C176.242 413.413 175.348 412.345 174.712 410.989C174.075 409.633 173.757 408.087 173.757 406.352C173.757 404.602 174.079 403.045 174.723 401.682C175.375 400.318 176.276 399.25 177.428 398.477C178.579 397.697 179.916 397.307 181.439 397.307C182.606 397.307 183.662 397.534 184.609 397.989C185.556 398.436 186.337 399.068 186.95 399.886C187.571 400.697 187.962 401.644 188.121 402.727H186.075C185.863 401.742 185.352 400.902 184.541 400.205C183.738 399.5 182.715 399.148 181.473 399.148C180.359 399.148 179.375 399.451 178.518 400.057C177.662 400.655 176.992 401.492 176.507 402.568C176.03 403.636 175.791 404.875 175.791 406.284C175.791 407.701 176.026 408.955 176.496 410.045C176.965 411.129 177.625 411.977 178.473 412.591C179.329 413.205 180.329 413.511 181.473 413.511C182.246 413.511 182.95 413.367 183.587 413.08C184.231 412.784 184.768 412.367 185.2 411.83C185.64 411.292 185.935 410.652 186.087 409.909H188.132C187.981 410.962 187.606 411.902 187.007 412.727C186.416 413.545 185.647 414.189 184.7 414.659C183.761 415.129 182.685 415.364 181.473 415.364ZM199.342 397.545V399.307H191.013V397.545H199.342ZM193.615 393.364H195.649V410.443C195.649 411.17 195.774 411.742 196.024 412.159C196.274 412.568 196.6 412.86 197.001 413.034C197.403 413.201 197.831 413.284 198.286 413.284C198.551 413.284 198.778 413.269 198.967 413.239C199.157 413.201 199.323 413.163 199.467 413.125L199.899 414.955C199.702 415.03 199.46 415.098 199.172 415.159C198.884 415.227 198.528 415.261 198.104 415.261C197.361 415.261 196.645 415.098 195.956 414.773C195.274 414.447 194.714 413.962 194.274 413.318C193.835 412.674 193.615 411.875 193.615 410.92V393.364ZM203.959 415V397.545H205.993V415H203.959ZM204.993 394.545C204.576 394.545 204.22 394.405 203.925 394.125C203.629 393.837 203.482 393.492 203.482 393.091C203.482 392.689 203.629 392.348 203.925 392.068C204.22 391.78 204.576 391.636 204.993 391.636C205.41 391.636 205.766 391.78 206.061 392.068C206.357 392.348 206.504 392.689 206.504 393.091C206.504 393.492 206.357 393.837 206.061 394.125C205.766 394.405 205.41 394.545 204.993 394.545ZM218.126 415.364C216.619 415.364 215.286 414.981 214.126 414.216C212.975 413.451 212.073 412.394 211.422 411.045C210.77 409.689 210.445 408.125 210.445 406.352C210.445 404.564 210.77 402.992 211.422 401.636C212.073 400.273 212.975 399.212 214.126 398.455C215.286 397.689 216.619 397.307 218.126 397.307C219.634 397.307 220.964 397.689 222.115 398.455C223.267 399.22 224.168 400.28 224.82 401.636C225.479 402.992 225.808 404.564 225.808 406.352C225.808 408.125 225.482 409.689 224.831 411.045C224.179 412.394 223.274 413.451 222.115 414.216C220.964 414.981 219.634 415.364 218.126 415.364ZM218.126 413.511C219.339 413.511 220.365 413.186 221.206 412.534C222.047 411.883 222.683 411.015 223.115 409.932C223.554 408.848 223.774 407.655 223.774 406.352C223.774 405.049 223.554 403.852 223.115 402.761C222.683 401.67 222.047 400.795 221.206 400.136C220.365 399.477 219.339 399.148 218.126 399.148C216.922 399.148 215.895 399.477 215.047 400.136C214.206 400.795 213.566 401.67 213.126 402.761C212.695 403.852 212.479 405.049 212.479 406.352C212.479 407.655 212.695 408.848 213.126 409.932C213.566 411.015 214.206 411.883 215.047 412.534C215.888 413.186 216.914 413.511 218.126 413.511ZM232.271 404.091V415H230.249V397.545H232.214V400.284H232.396C232.805 399.39 233.442 398.674 234.305 398.136C235.177 397.591 236.252 397.318 237.533 397.318C238.707 397.318 239.737 397.564 240.624 398.057C241.518 398.542 242.211 399.258 242.703 400.205C243.203 401.152 243.453 402.314 243.453 403.693V415H241.43V403.818C241.43 402.386 241.029 401.254 240.226 400.42C239.43 399.587 238.362 399.17 237.021 399.17C236.105 399.17 235.29 399.367 234.578 399.761C233.866 400.155 233.302 400.723 232.885 401.466C232.476 402.201 232.271 403.076 232.271 404.091ZM260.507 401.375L258.655 401.898C258.473 401.375 258.215 400.902 257.882 400.477C257.549 400.053 257.113 399.716 256.575 399.466C256.045 399.216 255.386 399.091 254.598 399.091C253.416 399.091 252.446 399.371 251.689 399.932C250.931 400.492 250.553 401.216 250.553 402.102C250.553 402.852 250.81 403.462 251.325 403.932C251.848 404.394 252.651 404.761 253.734 405.034L256.371 405.682C257.833 406.038 258.928 406.602 259.655 407.375C260.39 408.148 260.757 409.117 260.757 410.284C260.757 411.269 260.484 412.144 259.939 412.909C259.393 413.674 258.632 414.277 257.655 414.716C256.685 415.148 255.56 415.364 254.28 415.364C252.575 415.364 251.17 414.981 250.064 414.216C248.958 413.443 248.25 412.33 247.939 410.875L249.882 410.398C250.132 411.436 250.621 412.22 251.348 412.75C252.083 413.28 253.049 413.545 254.246 413.545C255.587 413.545 256.659 413.246 257.462 412.648C258.265 412.042 258.666 411.284 258.666 410.375C258.666 409.67 258.431 409.08 257.962 408.602C257.492 408.117 256.78 407.761 255.825 407.534L252.973 406.852C251.458 406.489 250.337 405.913 249.609 405.125C248.882 404.337 248.518 403.36 248.518 402.193C248.518 401.231 248.78 400.386 249.303 399.659C249.825 398.924 250.545 398.348 251.462 397.932C252.378 397.515 253.424 397.307 254.598 397.307C256.196 397.307 257.473 397.67 258.428 398.398C259.39 399.117 260.083 400.11 260.507 401.375Z" fill="#3D3D3A"/>
<rect x="41.25" y="151.25" width="89.5" height="65.5" rx="11.75" stroke="#3D3D3A" stroke-width="13.5"/>
<path d="M70.3022 188.362L50 213L128.497 204.502L105.176 178.866L84.0386 202.58L70.3022 188.362Z" fill="#3D3D3A" stroke="#3D3D3A" stroke-width="13.5" stroke-linejoin="round"/>
<circle cx="59.5" cy="169.5" r="7.5" fill="#3D3D3A"/>
<line x1="158.75" y1="185.25" x2="226.25" y2="185.25" stroke="#3D3D3A" stroke-width="13.5" stroke-linecap="round"/>
<line x1="218.515" y1="176.229" x2="228.229" y2="184.485" stroke="#3D3D3A" stroke-width="13.5" stroke-linecap="round"/>
<line x1="6.75" y1="-6.75" x2="19.4988" y2="-6.75" transform="matrix(0.761939 -0.647648 -0.647648 -0.761939 209 192)" stroke="#3D3D3A" stroke-width="13.5" stroke-linecap="round"/>
<rect x="167.25" y="98.25" width="51.2841" height="53.4432" rx="11.75" fill="#3D3D3A" stroke="#3D3D3A" stroke-width="13.5"/>
<path d="M196.723 142.19C196.723 144.294 194.992 146 192.857 146C190.722 146 188.992 144.294 188.992 142.19C188.992 140.085 190.722 138.379 192.857 138.379C194.992 138.379 196.723 140.085 196.723 142.19Z" fill="white"/>
<path d="M193 135.669C190.82 135.669 189.049 134.058 189.049 132.073V127.82C189.049 125.193 191.115 122.94 193.951 122.463C196.361 122.06 198.098 120.135 198.098 117.896V116.001C198.098 113.419 195.869 111.271 193.115 111.211C191.721 111.181 190.426 111.659 189.443 112.539C188.459 113.419 187.918 114.598 187.918 115.852C187.918 117.837 186.148 119.448 183.967 119.448C181.787 119.448 180 117.837 180 115.837C180 112.629 181.393 109.614 183.902 107.376C186.426 105.137 189.754 103.929 193.279 104.003C200.295 104.138 206 109.525 206 115.986V117.896C206 122.98 202.454 127.424 197.33 129.063C197.106 129.134 196.951 129.339 196.951 129.573V132.058C196.951 134.058 195.18 135.669 193 135.669Z" fill="white"/>
<path d="M256 184H316" stroke="#3D3D3A" stroke-width="13.5" stroke-linecap="round" stroke-linejoin="bevel"/>
<path d="M256 159H316" stroke="#3D3D3A" stroke-width="13.5" stroke-linecap="round" stroke-linejoin="bevel"/>
<path d="M256 209H316" stroke="#3D3D3A" stroke-width="13.5" stroke-linecap="round" stroke-linejoin="bevel"/>
</svg>
