<svg width="438" height="108" viewBox="0 0 438 108" fill="none" xmlns="http://www.w3.org/2000/svg">
<rect x="0.75" y="0.75" width="436.5" height="106.5" rx="23.25" fill="white"/>
<rect x="0.75" y="0.75" width="436.5" height="106.5" rx="23.25" stroke="#DAD9D5" stroke-width="1.5"/>
<path d="M76.9333 31.0404C72.5428 23.2033 61.8732 21.4176 55.2938 28.1902C54.2731 29.2406 53.4855 30.5124 52.91 31.9267C52.4351 33.496 52.1991 35.2333 52.1991 37.0348C52.1991 39.8328 52.7617 42.7774 53.801 45.4419C54.8404 48.1083 56.3555 50.4893 58.2103 52.1948C59.4484 53.333 60.8292 54.1736 62.3351 54.6345C63.1953 54.8995 64.0984 55.0404 65.0501 55.0404C66.1855 55.0404 67.392 54.8389 68.6766 54.3873L69.3754 56.3792C67.8864 56.9035 66.4366 57.1508 65.0501 57.1508C63.743 57.1517 62.4928 56.9306 61.3238 56.5248C60.1519 56.1199 59.0623 55.5313 58.0621 54.8006C56.0609 53.3405 54.416 51.3215 53.1454 49.0171C52.2981 47.4795 51.617 45.8132 51.1152 44.0872C50.4444 41.7864 50.0889 39.3803 50.0889 37.0348C50.0889 36.1327 50.1411 35.2406 50.2503 34.3656C35.9194 42.7699 36.9569 58.0707 39.5945 66.6327C41.9754 74.3633 44.4254 83.7407 44.4254 83.7407H54.69C54.69 83.7407 54.69 79.7148 55.4608 74.3633C56.1699 69.4307 64.3502 69.4502 64.9547 74.2821C65.2336 76.5139 65.1563 83.7407 65.1563 83.7407H75.6215C75.6215 83.7407 77.0313 72.4703 78.2395 64.4187C78.9765 59.5028 85.6707 59.5429 84.4783 64.0165C82.8671 70.0538 83.2058 77.0736 85.3871 81.648C86.1718 83.2938 86.7987 84.5701 88.005 83.7388C89.2105 82.9066 90.6696 81.565 91.6231 81.2422C92.5766 80.9202 91.039 79.0943 90.7172 77.3003C89.3084 69.4501 93.1327 66.8331 94.5415 56.3679C96.3823 42.6915 87.8892 34.0969 76.9333 31.0404ZM82.13 49.9296C81.3827 49.9296 80.7763 49.3241 80.7763 48.5767C80.7763 47.8285 81.3827 47.223 82.13 47.223C82.8773 47.223 83.4828 47.8285 83.4828 48.5767C83.4828 49.3241 82.8773 49.9296 82.13 49.9296Z" fill="#84837D"/>
<path d="M128.442 57.61H138.606L133.608 43.624H133.524L128.442 57.61ZM131.424 40.012H135.834L147.552 70H143.142L139.866 60.97H127.182L123.822 70H119.748L131.424 40.012ZM150.426 59.332C150.426 60.34 150.552 61.334 150.804 62.314C151.084 63.266 151.49 64.12 152.022 64.876C152.582 65.632 153.282 66.234 154.122 66.682C154.99 67.13 155.998 67.354 157.146 67.354C158.35 67.354 159.372 67.116 160.212 66.64C161.052 66.164 161.738 65.548 162.27 64.792C162.802 64.008 163.18 63.126 163.404 62.146C163.656 61.166 163.782 60.172 163.782 59.164C163.782 58.1 163.656 57.078 163.404 56.098C163.152 55.09 162.746 54.208 162.186 53.452C161.654 52.696 160.954 52.094 160.086 51.646C159.218 51.17 158.168 50.932 156.936 50.932C155.732 50.932 154.71 51.17 153.87 51.646C153.03 52.122 152.358 52.752 151.854 53.536C151.35 54.32 150.986 55.216 150.762 56.224C150.538 57.232 150.426 58.268 150.426 59.332ZM167.226 70H163.656V67.06H163.572C162.984 68.264 162.06 69.132 160.8 69.664C159.54 70.196 158.154 70.462 156.642 70.462C154.962 70.462 153.492 70.154 152.232 69.538C151 68.922 149.964 68.096 149.124 67.06C148.312 66.024 147.696 64.82 147.276 63.448C146.856 62.076 146.646 60.62 146.646 59.08C146.646 57.54 146.842 56.084 147.234 54.712C147.654 53.34 148.27 52.15 149.082 51.142C149.922 50.106 150.958 49.294 152.19 48.706C153.45 48.09 154.906 47.782 156.558 47.782C157.118 47.782 157.72 47.838 158.364 47.95C159.008 48.062 159.652 48.258 160.296 48.538C160.94 48.79 161.542 49.14 162.102 49.588C162.69 50.008 163.18 50.54 163.572 51.184H163.656V40.012H167.226V70ZM173.223 59.332C173.223 60.34 173.349 61.334 173.601 62.314C173.881 63.266 174.287 64.12 174.819 64.876C175.379 65.632 176.079 66.234 176.919 66.682C177.787 67.13 178.795 67.354 179.943 67.354C181.147 67.354 182.169 67.116 183.009 66.64C183.849 66.164 184.535 65.548 185.067 64.792C185.599 64.008 185.977 63.126 186.201 62.146C186.453 61.166 186.579 60.172 186.579 59.164C186.579 58.1 186.453 57.078 186.201 56.098C185.949 55.09 185.543 54.208 184.983 53.452C184.451 52.696 183.751 52.094 182.883 51.646C182.015 51.17 180.965 50.932 179.733 50.932C178.529 50.932 177.507 51.17 176.667 51.646C175.827 52.122 175.155 52.752 174.651 53.536C174.147 54.32 173.783 55.216 173.559 56.224C173.335 57.232 173.223 58.268 173.223 59.332ZM190.023 70H186.453V67.06H186.369C185.781 68.264 184.857 69.132 183.597 69.664C182.337 70.196 180.951 70.462 179.439 70.462C177.759 70.462 176.289 70.154 175.029 69.538C173.797 68.922 172.761 68.096 171.921 67.06C171.109 66.024 170.493 64.82 170.073 63.448C169.653 62.076 169.443 60.62 169.443 59.08C169.443 57.54 169.639 56.084 170.031 54.712C170.451 53.34 171.067 52.15 171.879 51.142C172.719 50.106 173.755 49.294 174.987 48.706C176.247 48.09 177.703 47.782 179.355 47.782C179.915 47.782 180.517 47.838 181.161 47.95C181.805 48.062 182.449 48.258 183.093 48.538C183.737 48.79 184.339 49.14 184.899 49.588C185.487 50.008 185.977 50.54 186.369 51.184H186.453V40.012H190.023V70ZM222.241 69.916C221.625 70.28 220.771 70.462 219.679 70.462C218.755 70.462 218.013 70.21 217.453 69.706C216.921 69.174 216.655 68.32 216.655 67.144C215.675 68.32 214.527 69.174 213.211 69.706C211.923 70.21 210.523 70.462 209.011 70.462C208.031 70.462 207.093 70.35 206.197 70.126C205.329 69.902 204.573 69.552 203.929 69.076C203.285 68.6 202.767 67.984 202.375 67.228C202.011 66.444 201.829 65.506 201.829 64.414C201.829 63.182 202.039 62.174 202.459 61.39C202.879 60.606 203.425 59.976 204.097 59.5C204.797 58.996 205.581 58.618 206.449 58.366C207.345 58.114 208.255 57.904 209.179 57.736C210.159 57.54 211.083 57.4 211.951 57.316C212.847 57.204 213.631 57.064 214.303 56.896C214.975 56.7 215.507 56.434 215.899 56.098C216.291 55.734 216.487 55.216 216.487 54.544C216.487 53.76 216.333 53.13 216.025 52.654C215.745 52.178 215.367 51.814 214.891 51.562C214.443 51.31 213.925 51.142 213.337 51.058C212.777 50.974 212.217 50.932 211.657 50.932C210.145 50.932 208.885 51.226 207.877 51.814C206.869 52.374 206.323 53.452 206.239 55.048H202.669C202.725 53.704 203.005 52.57 203.509 51.646C204.013 50.722 204.685 49.98 205.525 49.42C206.365 48.832 207.317 48.412 208.381 48.16C209.473 47.908 210.635 47.782 211.867 47.782C212.847 47.782 213.813 47.852 214.765 47.992C215.745 48.132 216.627 48.426 217.411 48.874C218.195 49.294 218.825 49.896 219.301 50.68C219.777 51.464 220.015 52.486 220.015 53.746V64.918C220.015 65.758 220.057 66.374 220.141 66.766C220.253 67.158 220.589 67.354 221.149 67.354C221.457 67.354 221.821 67.284 222.241 67.144V69.916ZM216.445 58.786C215.997 59.122 215.409 59.374 214.681 59.542C213.953 59.682 213.183 59.808 212.371 59.92C211.587 60.004 210.789 60.116 209.977 60.256C209.165 60.368 208.437 60.564 207.793 60.844C207.149 61.124 206.617 61.53 206.197 62.062C205.805 62.566 205.609 63.266 205.609 64.162C205.609 64.75 205.721 65.254 205.945 65.674C206.197 66.066 206.505 66.388 206.869 66.64C207.261 66.892 207.709 67.074 208.213 67.186C208.717 67.298 209.249 67.354 209.809 67.354C210.985 67.354 211.993 67.2 212.833 66.892C213.673 66.556 214.359 66.15 214.891 65.674C215.423 65.17 215.815 64.638 216.067 64.078C216.319 63.49 216.445 62.944 216.445 62.44V58.786ZM223.463 48.286H226.823V51.73H226.907C228.391 49.098 230.743 47.782 233.963 47.782C235.391 47.782 236.581 47.978 237.533 48.37C238.485 48.762 239.255 49.308 239.843 50.008C240.431 50.708 240.837 51.548 241.061 52.528C241.313 53.48 241.439 54.544 241.439 55.72V70H237.869V55.3C237.869 53.956 237.477 52.892 236.693 52.108C235.909 51.324 234.831 50.932 233.459 50.932C232.367 50.932 231.415 51.1 230.603 51.436C229.819 51.772 229.161 52.248 228.629 52.864C228.097 53.48 227.691 54.208 227.411 55.048C227.159 55.86 227.033 56.756 227.033 57.736V70H223.463V48.286ZM254.879 40.012H275.585V43.372H258.869V52.906H274.451V56.266H258.869V66.64H275.711V70H254.879V40.012ZM278.077 40.012H281.647V70H278.077V40.012ZM300.155 57.064C300.099 56.224 299.903 55.426 299.567 54.67C299.259 53.914 298.825 53.27 298.265 52.738C297.733 52.178 297.089 51.744 296.333 51.436C295.605 51.1 294.793 50.932 293.897 50.932C292.973 50.932 292.133 51.1 291.377 51.436C290.649 51.744 290.019 52.178 289.487 52.738C288.955 53.298 288.535 53.956 288.227 54.712C287.919 55.44 287.737 56.224 287.681 57.064H300.155ZM303.599 63.112C303.123 65.548 302.073 67.382 300.449 68.614C298.825 69.846 296.781 70.462 294.317 70.462C292.581 70.462 291.069 70.182 289.781 69.622C288.521 69.062 287.457 68.278 286.589 67.27C285.721 66.262 285.063 65.058 284.615 63.658C284.195 62.258 283.957 60.732 283.901 59.08C283.901 57.428 284.153 55.916 284.657 54.544C285.161 53.172 285.861 51.982 286.757 50.974C287.681 49.966 288.759 49.182 289.991 48.622C291.251 48.062 292.623 47.782 294.107 47.782C296.039 47.782 297.635 48.188 298.895 49C300.183 49.784 301.205 50.792 301.961 52.024C302.745 53.256 303.277 54.6 303.557 56.056C303.865 57.512 303.991 58.898 303.935 60.214H287.681C287.653 61.166 287.765 62.076 288.017 62.944C288.269 63.784 288.675 64.54 289.235 65.212C289.795 65.856 290.509 66.374 291.377 66.766C292.245 67.158 293.267 67.354 294.443 67.354C295.955 67.354 297.187 67.004 298.139 66.304C299.119 65.604 299.763 64.54 300.071 63.112H303.599ZM305.662 48.286H309.232V51.226H309.316C309.904 50.022 310.828 49.154 312.088 48.622C313.348 48.062 314.734 47.782 316.246 47.782C317.926 47.782 319.382 48.09 320.614 48.706C321.874 49.322 322.91 50.162 323.722 51.226C324.562 52.262 325.192 53.466 325.612 54.838C326.032 56.21 326.242 57.666 326.242 59.206C326.242 60.746 326.032 62.202 325.612 63.574C325.22 64.946 324.604 66.15 323.764 67.186C322.952 68.194 321.916 68.992 320.656 69.58C319.424 70.168 317.982 70.462 316.33 70.462C315.798 70.462 315.196 70.406 314.524 70.294C313.88 70.182 313.236 70 312.592 69.748C311.948 69.496 311.332 69.16 310.744 68.74C310.184 68.292 309.708 67.746 309.316 67.102H309.232V78.274H305.662V48.286ZM322.462 58.954C322.462 57.946 322.322 56.966 322.042 56.014C321.79 55.034 321.384 54.166 320.824 53.41C320.292 52.654 319.592 52.052 318.724 51.604C317.884 51.156 316.89 50.932 315.742 50.932C314.538 50.932 313.516 51.17 312.676 51.646C311.836 52.122 311.15 52.752 310.618 53.536C310.086 54.292 309.694 55.16 309.442 56.14C309.218 57.12 309.106 58.114 309.106 59.122C309.106 60.186 309.232 61.222 309.484 62.23C309.736 63.21 310.128 64.078 310.66 64.834C311.22 65.59 311.934 66.206 312.802 66.682C313.67 67.13 314.72 67.354 315.952 67.354C317.184 67.354 318.206 67.116 319.018 66.64C319.858 66.164 320.53 65.534 321.034 64.75C321.538 63.966 321.902 63.07 322.126 62.062C322.35 61.054 322.462 60.018 322.462 58.954ZM328.332 40.012H331.902V51.478H331.986C332.266 50.806 332.658 50.246 333.162 49.798C333.666 49.322 334.226 48.944 334.842 48.664C335.486 48.356 336.144 48.132 336.816 47.992C337.516 47.852 338.188 47.782 338.832 47.782C340.26 47.782 341.45 47.978 342.402 48.37C343.354 48.762 344.124 49.308 344.712 50.008C345.3 50.708 345.706 51.548 345.93 52.528C346.182 53.48 346.308 54.544 346.308 55.72V70H342.738V55.3C342.738 53.956 342.346 52.892 341.562 52.108C340.778 51.324 339.7 50.932 338.328 50.932C337.236 50.932 336.284 51.1 335.472 51.436C334.688 51.772 334.03 52.248 333.498 52.864C332.966 53.48 332.56 54.208 332.28 55.048C332.028 55.86 331.902 56.756 331.902 57.736V70H328.332V40.012ZM368.806 69.916C368.19 70.28 367.336 70.462 366.244 70.462C365.32 70.462 364.578 70.21 364.018 69.706C363.486 69.174 363.22 68.32 363.22 67.144C362.24 68.32 361.092 69.174 359.776 69.706C358.488 70.21 357.088 70.462 355.576 70.462C354.596 70.462 353.658 70.35 352.762 70.126C351.894 69.902 351.138 69.552 350.494 69.076C349.85 68.6 349.332 67.984 348.94 67.228C348.576 66.444 348.394 65.506 348.394 64.414C348.394 63.182 348.604 62.174 349.024 61.39C349.444 60.606 349.99 59.976 350.662 59.5C351.362 58.996 352.146 58.618 353.014 58.366C353.91 58.114 354.82 57.904 355.744 57.736C356.724 57.54 357.648 57.4 358.516 57.316C359.412 57.204 360.196 57.064 360.868 56.896C361.54 56.7 362.072 56.434 362.464 56.098C362.856 55.734 363.052 55.216 363.052 54.544C363.052 53.76 362.898 53.13 362.59 52.654C362.31 52.178 361.932 51.814 361.456 51.562C361.008 51.31 360.49 51.142 359.902 51.058C359.342 50.974 358.782 50.932 358.222 50.932C356.71 50.932 355.45 51.226 354.442 51.814C353.434 52.374 352.888 53.452 352.804 55.048H349.234C349.29 53.704 349.57 52.57 350.074 51.646C350.578 50.722 351.25 49.98 352.09 49.42C352.93 48.832 353.882 48.412 354.946 48.16C356.038 47.908 357.2 47.782 358.432 47.782C359.412 47.782 360.378 47.852 361.33 47.992C362.31 48.132 363.192 48.426 363.976 48.874C364.76 49.294 365.39 49.896 365.866 50.68C366.342 51.464 366.58 52.486 366.58 53.746V64.918C366.58 65.758 366.622 66.374 366.706 66.766C366.818 67.158 367.154 67.354 367.714 67.354C368.022 67.354 368.386 67.284 368.806 67.144V69.916ZM363.01 58.786C362.562 59.122 361.974 59.374 361.246 59.542C360.518 59.682 359.748 59.808 358.936 59.92C358.152 60.004 357.354 60.116 356.542 60.256C355.73 60.368 355.002 60.564 354.358 60.844C353.714 61.124 353.182 61.53 352.762 62.062C352.37 62.566 352.174 63.266 352.174 64.162C352.174 64.75 352.286 65.254 352.51 65.674C352.762 66.066 353.07 66.388 353.434 66.64C353.826 66.892 354.274 67.074 354.778 67.186C355.282 67.298 355.814 67.354 356.374 67.354C357.55 67.354 358.558 67.2 359.398 66.892C360.238 66.556 360.924 66.15 361.456 65.674C361.988 65.17 362.38 64.638 362.632 64.078C362.884 63.49 363.01 62.944 363.01 62.44V58.786ZM370.029 48.286H373.389V51.73H373.473C374.957 49.098 377.309 47.782 380.529 47.782C381.957 47.782 383.147 47.978 384.099 48.37C385.051 48.762 385.821 49.308 386.409 50.008C386.997 50.708 387.403 51.548 387.627 52.528C387.879 53.48 388.005 54.544 388.005 55.72V70H384.435V55.3C384.435 53.956 384.043 52.892 383.259 52.108C382.475 51.324 381.397 50.932 380.025 50.932C378.933 50.932 377.981 51.1 377.169 51.436C376.385 51.772 375.727 52.248 375.195 52.864C374.663 53.48 374.257 54.208 373.977 55.048C373.725 55.86 373.599 56.756 373.599 57.736V70H370.029V48.286ZM396.223 48.286H400.549V51.436H396.223V64.918C396.223 65.338 396.251 65.674 396.307 65.926C396.391 66.178 396.531 66.374 396.727 66.514C396.923 66.654 397.189 66.752 397.525 66.808C397.889 66.836 398.351 66.85 398.911 66.85H400.549V70H397.819C396.895 70 396.097 69.944 395.425 69.832C394.781 69.692 394.249 69.454 393.829 69.118C393.437 68.782 393.143 68.306 392.947 67.69C392.751 67.074 392.653 66.262 392.653 65.254V51.436H388.957V48.286H392.653V41.776H396.223V48.286Z" fill="#3D3D3A"/>
</svg>
