<svg width="354" height="108" viewBox="0 0 354 108" fill="none" xmlns="http://www.w3.org/2000/svg">
<rect x="0.75" y="0.75" width="352.5" height="106.5" rx="23.25" fill="white"/>
<rect x="0.75" y="0.75" width="352.5" height="106.5" rx="23.25" stroke="#DAD9D5" stroke-width="1.5"/>
<g clip-path="url(#clip0_2053_10295)">
<line x1="66.5" y1="39.5" x2="66.5" y2="69.5" stroke="#84837D" stroke-width="5" stroke-linecap="round"/>
<line x1="51.5" y1="54.5" x2="81.5" y2="54.5" stroke="#84837D" stroke-width="5" stroke-linecap="round"/>
<circle cx="66" cy="54" r="27.5" stroke="#84837D" stroke-width="5"/>
</g>
<path d="M140.622 48.79C140.398 46.634 139.614 45.08 138.27 44.128C136.954 43.148 135.26 42.658 133.188 42.658C132.348 42.658 131.522 42.742 130.71 42.91C129.898 43.078 129.17 43.358 128.526 43.75C127.91 44.142 127.406 44.674 127.014 45.346C126.65 45.99 126.468 46.802 126.468 47.782C126.468 48.706 126.734 49.462 127.266 50.05C127.826 50.61 128.554 51.072 129.45 51.436C130.374 51.8 131.41 52.108 132.558 52.36C133.706 52.584 134.868 52.836 136.044 53.116C137.248 53.396 138.424 53.732 139.572 54.124C140.72 54.488 141.742 54.992 142.638 55.636C143.562 56.28 144.29 57.092 144.822 58.072C145.382 59.052 145.662 60.284 145.662 61.768C145.662 63.364 145.298 64.736 144.57 65.884C143.87 67.004 142.96 67.928 141.84 68.656C140.72 69.356 139.46 69.86 138.06 70.168C136.688 70.504 135.316 70.672 133.944 70.672C132.264 70.672 130.668 70.462 129.156 70.042C127.672 69.622 126.356 68.992 125.208 68.152C124.088 67.284 123.192 66.192 122.52 64.876C121.876 63.532 121.554 61.95 121.554 60.13H125.334C125.334 61.39 125.572 62.482 126.048 63.406C126.552 64.302 127.196 65.044 127.98 65.632C128.792 66.22 129.73 66.654 130.794 66.934C131.858 67.214 132.95 67.354 134.07 67.354C134.966 67.354 135.862 67.27 136.758 67.102C137.682 66.934 138.508 66.654 139.236 66.262C139.964 65.842 140.552 65.282 141 64.582C141.448 63.882 141.672 62.986 141.672 61.894C141.672 60.858 141.392 60.018 140.832 59.374C140.3 58.73 139.572 58.212 138.648 57.82C137.752 57.4 136.73 57.064 135.582 56.812C134.434 56.56 133.258 56.308 132.054 56.056C130.878 55.776 129.716 55.468 128.568 55.132C127.42 54.768 126.384 54.306 125.46 53.746C124.564 53.158 123.836 52.416 123.276 51.52C122.744 50.596 122.478 49.448 122.478 48.076C122.478 46.564 122.786 45.262 123.402 44.17C124.018 43.05 124.83 42.14 125.838 41.44C126.874 40.712 128.036 40.18 129.324 39.844C130.64 39.48 131.984 39.298 133.356 39.298C134.896 39.298 136.324 39.48 137.64 39.844C138.956 40.208 140.104 40.782 141.084 41.566C142.092 42.35 142.876 43.344 143.436 44.548C144.024 45.724 144.346 47.138 144.402 48.79H140.622ZM147.822 40.012H151.392V51.478H151.476C151.756 50.806 152.148 50.246 152.652 49.798C153.156 49.322 153.716 48.944 154.332 48.664C154.976 48.356 155.634 48.132 156.306 47.992C157.006 47.852 157.678 47.782 158.322 47.782C159.75 47.782 160.94 47.978 161.892 48.37C162.844 48.762 163.614 49.308 164.202 50.008C164.79 50.708 165.196 51.548 165.42 52.528C165.672 53.48 165.798 54.544 165.798 55.72V70H162.228V55.3C162.228 53.956 161.836 52.892 161.052 52.108C160.268 51.324 159.19 50.932 157.818 50.932C156.726 50.932 155.774 51.1 154.962 51.436C154.178 51.772 153.52 52.248 152.988 52.864C152.456 53.48 152.05 54.208 151.77 55.048C151.518 55.86 151.392 56.756 151.392 57.736V70H147.822V40.012ZM171.664 59.164C171.664 60.48 171.832 61.656 172.168 62.692C172.532 63.7 173.022 64.554 173.638 65.254C174.254 65.926 174.968 66.444 175.78 66.808C176.62 67.172 177.502 67.354 178.426 67.354C179.35 67.354 180.218 67.172 181.03 66.808C181.87 66.444 182.598 65.926 183.214 65.254C183.83 64.554 184.306 63.7 184.642 62.692C185.006 61.656 185.188 60.48 185.188 59.164C185.188 57.848 185.006 56.686 184.642 55.678C184.306 54.642 183.83 53.774 183.214 53.074C182.598 52.374 181.87 51.842 181.03 51.478C180.218 51.114 179.35 50.932 178.426 50.932C177.502 50.932 176.62 51.114 175.78 51.478C174.968 51.842 174.254 52.374 173.638 53.074C173.022 53.774 172.532 54.642 172.168 55.678C171.832 56.686 171.664 57.848 171.664 59.164ZM167.884 59.164C167.884 57.568 168.108 56.084 168.556 54.712C169.004 53.312 169.676 52.108 170.572 51.1C171.468 50.064 172.574 49.252 173.89 48.664C175.206 48.076 176.718 47.782 178.426 47.782C180.162 47.782 181.674 48.076 182.962 48.664C184.278 49.252 185.384 50.064 186.28 51.1C187.176 52.108 187.848 53.312 188.296 54.712C188.744 56.084 188.968 57.568 188.968 59.164C188.968 60.76 188.744 62.244 188.296 63.616C187.848 64.988 187.176 66.192 186.28 67.228C185.384 68.236 184.278 69.034 182.962 69.622C181.674 70.182 180.162 70.462 178.426 70.462C176.718 70.462 175.206 70.182 173.89 69.622C172.574 69.034 171.468 68.236 170.572 67.228C169.676 66.192 169.004 64.988 168.556 63.616C168.108 62.244 167.884 60.76 167.884 59.164ZM212.581 70H208.801L204.391 52.738H204.307L199.939 70H196.075L189.103 48.286H193.051L197.965 66.052H198.049L202.417 48.286H206.323L210.859 66.052H210.943L215.815 48.286H219.511L212.581 70ZM231.067 40.012H236.527L245.977 65.212L255.469 40.012H260.929V70H257.149V45.052H257.065L247.699 70H244.297L234.931 45.052H234.847V70H231.067V40.012ZM267.485 59.164C267.485 60.48 267.653 61.656 267.989 62.692C268.353 63.7 268.843 64.554 269.459 65.254C270.075 65.926 270.789 66.444 271.601 66.808C272.441 67.172 273.323 67.354 274.247 67.354C275.171 67.354 276.039 67.172 276.851 66.808C277.691 66.444 278.419 65.926 279.035 65.254C279.651 64.554 280.127 63.7 280.463 62.692C280.827 61.656 281.009 60.48 281.009 59.164C281.009 57.848 280.827 56.686 280.463 55.678C280.127 54.642 279.651 53.774 279.035 53.074C278.419 52.374 277.691 51.842 276.851 51.478C276.039 51.114 275.171 50.932 274.247 50.932C273.323 50.932 272.441 51.114 271.601 51.478C270.789 51.842 270.075 52.374 269.459 53.074C268.843 53.774 268.353 54.642 267.989 55.678C267.653 56.686 267.485 57.848 267.485 59.164ZM263.705 59.164C263.705 57.568 263.929 56.084 264.377 54.712C264.825 53.312 265.497 52.108 266.393 51.1C267.289 50.064 268.395 49.252 269.711 48.664C271.027 48.076 272.539 47.782 274.247 47.782C275.983 47.782 277.495 48.076 278.783 48.664C280.099 49.252 281.205 50.064 282.101 51.1C282.997 52.108 283.669 53.312 284.117 54.712C284.565 56.084 284.789 57.568 284.789 59.164C284.789 60.76 284.565 62.244 284.117 63.616C283.669 64.988 282.997 66.192 282.101 67.228C281.205 68.236 280.099 69.034 278.783 69.622C277.495 70.182 275.983 70.462 274.247 70.462C272.539 70.462 271.027 70.182 269.711 69.622C268.395 69.034 267.289 68.236 266.393 67.228C265.497 66.192 264.825 64.988 264.377 63.616C263.929 62.244 263.705 60.76 263.705 59.164ZM286.772 48.286H290.132V52.864H290.216C291.084 51.1 292.148 49.798 293.408 48.958C294.668 48.118 296.264 47.726 298.196 47.782V51.562C296.768 51.562 295.55 51.758 294.542 52.15C293.534 52.542 292.722 53.116 292.106 53.872C291.49 54.628 291.042 55.552 290.762 56.644C290.482 57.708 290.342 58.94 290.342 60.34V70H286.772V48.286ZM313.124 57.064C313.068 56.224 312.872 55.426 312.536 54.67C312.228 53.914 311.794 53.27 311.234 52.738C310.702 52.178 310.058 51.744 309.302 51.436C308.574 51.1 307.762 50.932 306.866 50.932C305.942 50.932 305.102 51.1 304.346 51.436C303.618 51.744 302.988 52.178 302.456 52.738C301.924 53.298 301.504 53.956 301.196 54.712C300.888 55.44 300.706 56.224 300.65 57.064H313.124ZM316.568 63.112C316.092 65.548 315.042 67.382 313.418 68.614C311.794 69.846 309.75 70.462 307.286 70.462C305.55 70.462 304.038 70.182 302.75 69.622C301.49 69.062 300.426 68.278 299.558 67.27C298.69 66.262 298.032 65.058 297.584 63.658C297.164 62.258 296.926 60.732 296.87 59.08C296.87 57.428 297.122 55.916 297.626 54.544C298.13 53.172 298.83 51.982 299.726 50.974C300.65 49.966 301.728 49.182 302.96 48.622C304.22 48.062 305.592 47.782 307.076 47.782C309.008 47.782 310.604 48.188 311.864 49C313.152 49.784 314.174 50.792 314.93 52.024C315.714 53.256 316.246 54.6 316.526 56.056C316.834 57.512 316.96 58.898 316.904 60.214H300.65C300.622 61.166 300.734 62.076 300.986 62.944C301.238 63.784 301.644 64.54 302.204 65.212C302.764 65.856 303.478 66.374 304.346 66.766C305.214 67.158 306.236 67.354 307.412 67.354C308.924 67.354 310.156 67.004 311.108 66.304C312.088 65.604 312.732 64.54 313.04 63.112H316.568Z" fill="#3D3D3A"/>
<defs>
<clipPath id="clip0_2053_10295">
<rect x="36" y="24" width="60" height="60" rx="15" fill="white"/>
</clipPath>
</defs>
</svg>
